G04 #@! TF.GenerationSoftware,KiCad,Pcbnew,7.0.7*
G04 #@! TF.CreationDate,2023-09-07T10:59:33+03:00*
G04 #@! TF.ProjectId,colorlight-cnc-proto,636f6c6f-726c-4696-9768-742d636e632d,rev?*
G04 #@! TF.SameCoordinates,Original*
G04 #@! TF.FileFunction,Soldermask,Top*
G04 #@! TF.FilePolarity,Negative*
%FSLAX46Y46*%
G04 Gerber Fmt 4.6, Leading zero omitted, Abs format (unit mm)*
G04 Created by KiCad (PCBNEW 7.0.7) date 2023-09-07 10:59:33*
%MOMM*%
%LPD*%
G01*
G04 APERTURE LIST*
G04 Aperture macros list*
%AMRoundRect*
0 Rectangle with rounded corners*
0 $1 Rounding radius*
0 $2 $3 $4 $5 $6 $7 $8 $9 X,Y pos of 4 corners*
0 Add a 4 corners polygon primitive as box body*
4,1,4,$2,$3,$4,$5,$6,$7,$8,$9,$2,$3,0*
0 Add four circle primitives for the rounded corners*
1,1,$1+$1,$2,$3*
1,1,$1+$1,$4,$5*
1,1,$1+$1,$6,$7*
1,1,$1+$1,$8,$9*
0 Add four rect primitives between the rounded corners*
20,1,$1+$1,$2,$3,$4,$5,0*
20,1,$1+$1,$4,$5,$6,$7,0*
20,1,$1+$1,$6,$7,$8,$9,0*
20,1,$1+$1,$8,$9,$2,$3,0*%
G04 Aperture macros list end*
%ADD10C,0.150000*%
%ADD11C,0.800000*%
%ADD12C,6.400000*%
%ADD13RoundRect,0.150000X0.150000X-0.825000X0.150000X0.825000X-0.150000X0.825000X-0.150000X-0.825000X0*%
%ADD14RoundRect,0.218750X-0.218750X-0.256250X0.218750X-0.256250X0.218750X0.256250X-0.218750X0.256250X0*%
%ADD15RoundRect,0.200000X0.200000X0.275000X-0.200000X0.275000X-0.200000X-0.275000X0.200000X-0.275000X0*%
%ADD16R,0.450000X0.700000*%
%ADD17RoundRect,0.200000X-0.200000X-0.275000X0.200000X-0.275000X0.200000X0.275000X-0.200000X0.275000X0*%
%ADD18RoundRect,0.150000X-0.825000X-0.150000X0.825000X-0.150000X0.825000X0.150000X-0.825000X0.150000X0*%
%ADD19RoundRect,0.250000X0.300000X0.300000X-0.300000X0.300000X-0.300000X-0.300000X0.300000X-0.300000X0*%
%ADD20RoundRect,0.225000X0.225000X0.250000X-0.225000X0.250000X-0.225000X-0.250000X0.225000X-0.250000X0*%
%ADD21RoundRect,0.200000X0.275000X-0.200000X0.275000X0.200000X-0.275000X0.200000X-0.275000X-0.200000X0*%
%ADD22RoundRect,0.250000X-0.250000X-0.475000X0.250000X-0.475000X0.250000X0.475000X-0.250000X0.475000X0*%
%ADD23RoundRect,0.225000X-0.250000X0.225000X-0.250000X-0.225000X0.250000X-0.225000X0.250000X0.225000X0*%
%ADD24R,0.700000X0.450000*%
%ADD25RoundRect,0.225000X-0.225000X-0.250000X0.225000X-0.250000X0.225000X0.250000X-0.225000X0.250000X0*%
%ADD26RoundRect,0.250000X-0.650000X-1.550000X0.650000X-1.550000X0.650000X1.550000X-0.650000X1.550000X0*%
%ADD27O,1.800000X3.600000*%
%ADD28RoundRect,0.150000X0.200000X-0.150000X0.200000X0.150000X-0.200000X0.150000X-0.200000X-0.150000X0*%
%ADD29RoundRect,0.218750X-0.218750X-0.381250X0.218750X-0.381250X0.218750X0.381250X-0.218750X0.381250X0*%
%ADD30RoundRect,0.250000X1.550000X-0.650000X1.550000X0.650000X-1.550000X0.650000X-1.550000X-0.650000X0*%
%ADD31O,3.600000X1.800000*%
%ADD32RoundRect,0.150000X-0.587500X-0.150000X0.587500X-0.150000X0.587500X0.150000X-0.587500X0.150000X0*%
%ADD33RoundRect,0.150000X0.512500X0.150000X-0.512500X0.150000X-0.512500X-0.150000X0.512500X-0.150000X0*%
%ADD34RoundRect,0.250000X-0.475000X0.250000X-0.475000X-0.250000X0.475000X-0.250000X0.475000X0.250000X0*%
%ADD35RoundRect,0.250000X-0.300000X-0.300000X0.300000X-0.300000X0.300000X0.300000X-0.300000X0.300000X0*%
%ADD36RoundRect,0.112500X-0.112500X0.187500X-0.112500X-0.187500X0.112500X-0.187500X0.112500X0.187500X0*%
%ADD37RoundRect,0.250000X0.300000X-0.300000X0.300000X0.300000X-0.300000X0.300000X-0.300000X-0.300000X0*%
%ADD38R,1.700000X1.700000*%
%ADD39O,1.700000X1.700000*%
%ADD40RoundRect,0.225000X0.250000X-0.225000X0.250000X0.225000X-0.250000X0.225000X-0.250000X-0.225000X0*%
%ADD41RoundRect,0.250000X0.475000X-0.250000X0.475000X0.250000X-0.475000X0.250000X-0.475000X-0.250000X0*%
%ADD42RoundRect,0.162500X-0.825000X-0.162500X0.825000X-0.162500X0.825000X0.162500X-0.825000X0.162500X0*%
%ADD43RoundRect,0.150000X-0.200000X0.150000X-0.200000X-0.150000X0.200000X-0.150000X0.200000X0.150000X0*%
%ADD44RoundRect,0.200000X-0.275000X0.200000X-0.275000X-0.200000X0.275000X-0.200000X0.275000X0.200000X0*%
%ADD45RoundRect,0.250000X-0.625000X0.375000X-0.625000X-0.375000X0.625000X-0.375000X0.625000X0.375000X0*%
%ADD46RoundRect,0.218750X0.256250X-0.218750X0.256250X0.218750X-0.256250X0.218750X-0.256250X-0.218750X0*%
%ADD47RoundRect,0.250000X0.650000X1.550000X-0.650000X1.550000X-0.650000X-1.550000X0.650000X-1.550000X0*%
%ADD48RoundRect,0.218750X-0.256250X0.218750X-0.256250X-0.218750X0.256250X-0.218750X0.256250X0.218750X0*%
%ADD49RoundRect,0.150000X-0.150000X0.587500X-0.150000X-0.587500X0.150000X-0.587500X0.150000X0.587500X0*%
%ADD50RoundRect,0.150000X0.150000X-0.512500X0.150000X0.512500X-0.150000X0.512500X-0.150000X-0.512500X0*%
%ADD51RoundRect,0.250000X-0.375000X-0.625000X0.375000X-0.625000X0.375000X0.625000X-0.375000X0.625000X0*%
%ADD52RoundRect,0.112500X0.187500X0.112500X-0.187500X0.112500X-0.187500X-0.112500X0.187500X-0.112500X0*%
%ADD53C,4.000000*%
%ADD54R,1.600000X1.600000*%
%ADD55C,1.600000*%
%ADD56RoundRect,0.218750X0.218750X0.256250X-0.218750X0.256250X-0.218750X-0.256250X0.218750X-0.256250X0*%
%ADD57RoundRect,0.112500X0.112500X-0.187500X0.112500X0.187500X-0.112500X0.187500X-0.112500X-0.187500X0*%
%ADD58RoundRect,0.218750X-0.381250X0.218750X-0.381250X-0.218750X0.381250X-0.218750X0.381250X0.218750X0*%
%ADD59RoundRect,0.150000X-0.725000X-0.150000X0.725000X-0.150000X0.725000X0.150000X-0.725000X0.150000X0*%
G04 APERTURE END LIST*
D10*
X77128207Y-74149819D02*
X76794874Y-73673628D01*
X76556779Y-74149819D02*
X76556779Y-73149819D01*
X76556779Y-73149819D02*
X76937731Y-73149819D01*
X76937731Y-73149819D02*
X77032969Y-73197438D01*
X77032969Y-73197438D02*
X77080588Y-73245057D01*
X77080588Y-73245057D02*
X77128207Y-73340295D01*
X77128207Y-73340295D02*
X77128207Y-73483152D01*
X77128207Y-73483152D02*
X77080588Y-73578390D01*
X77080588Y-73578390D02*
X77032969Y-73626009D01*
X77032969Y-73626009D02*
X76937731Y-73673628D01*
X76937731Y-73673628D02*
X76556779Y-73673628D01*
X77413922Y-73149819D02*
X77747255Y-74149819D01*
X77747255Y-74149819D02*
X78080588Y-73149819D01*
X78366303Y-73245057D02*
X78413922Y-73197438D01*
X78413922Y-73197438D02*
X78509160Y-73149819D01*
X78509160Y-73149819D02*
X78747255Y-73149819D01*
X78747255Y-73149819D02*
X78842493Y-73197438D01*
X78842493Y-73197438D02*
X78890112Y-73245057D01*
X78890112Y-73245057D02*
X78937731Y-73340295D01*
X78937731Y-73340295D02*
X78937731Y-73435533D01*
X78937731Y-73435533D02*
X78890112Y-73578390D01*
X78890112Y-73578390D02*
X78318684Y-74149819D01*
X78318684Y-74149819D02*
X78937731Y-74149819D01*
X79556779Y-73149819D02*
X79652017Y-73149819D01*
X79652017Y-73149819D02*
X79747255Y-73197438D01*
X79747255Y-73197438D02*
X79794874Y-73245057D01*
X79794874Y-73245057D02*
X79842493Y-73340295D01*
X79842493Y-73340295D02*
X79890112Y-73530771D01*
X79890112Y-73530771D02*
X79890112Y-73768866D01*
X79890112Y-73768866D02*
X79842493Y-73959342D01*
X79842493Y-73959342D02*
X79794874Y-74054580D01*
X79794874Y-74054580D02*
X79747255Y-74102200D01*
X79747255Y-74102200D02*
X79652017Y-74149819D01*
X79652017Y-74149819D02*
X79556779Y-74149819D01*
X79556779Y-74149819D02*
X79461541Y-74102200D01*
X79461541Y-74102200D02*
X79413922Y-74054580D01*
X79413922Y-74054580D02*
X79366303Y-73959342D01*
X79366303Y-73959342D02*
X79318684Y-73768866D01*
X79318684Y-73768866D02*
X79318684Y-73530771D01*
X79318684Y-73530771D02*
X79366303Y-73340295D01*
X79366303Y-73340295D02*
X79413922Y-73245057D01*
X79413922Y-73245057D02*
X79461541Y-73197438D01*
X79461541Y-73197438D02*
X79556779Y-73149819D01*
X80271065Y-73245057D02*
X80318684Y-73197438D01*
X80318684Y-73197438D02*
X80413922Y-73149819D01*
X80413922Y-73149819D02*
X80652017Y-73149819D01*
X80652017Y-73149819D02*
X80747255Y-73197438D01*
X80747255Y-73197438D02*
X80794874Y-73245057D01*
X80794874Y-73245057D02*
X80842493Y-73340295D01*
X80842493Y-73340295D02*
X80842493Y-73435533D01*
X80842493Y-73435533D02*
X80794874Y-73578390D01*
X80794874Y-73578390D02*
X80223446Y-74149819D01*
X80223446Y-74149819D02*
X80842493Y-74149819D01*
X81175827Y-73149819D02*
X81794874Y-73149819D01*
X81794874Y-73149819D02*
X81461541Y-73530771D01*
X81461541Y-73530771D02*
X81604398Y-73530771D01*
X81604398Y-73530771D02*
X81699636Y-73578390D01*
X81699636Y-73578390D02*
X81747255Y-73626009D01*
X81747255Y-73626009D02*
X81794874Y-73721247D01*
X81794874Y-73721247D02*
X81794874Y-73959342D01*
X81794874Y-73959342D02*
X81747255Y-74054580D01*
X81747255Y-74054580D02*
X81699636Y-74102200D01*
X81699636Y-74102200D02*
X81604398Y-74149819D01*
X81604398Y-74149819D02*
X81318684Y-74149819D01*
X81318684Y-74149819D02*
X81223446Y-74102200D01*
X81223446Y-74102200D02*
X81175827Y-74054580D01*
D11*
G04 #@! TO.C,H3*
X82902944Y-71302944D03*
X83605888Y-69605888D03*
X83605888Y-73000000D03*
X85302944Y-68902944D03*
D12*
X85302944Y-71302944D03*
D11*
X85302944Y-73702944D03*
X87000000Y-69605888D03*
X87000000Y-73000000D03*
X87702944Y-71302944D03*
G04 #@! TD*
D13*
G04 #@! TO.C,U5*
X28695000Y-30540000D03*
X29965000Y-30540000D03*
X31235000Y-30540000D03*
X32505000Y-30540000D03*
X32505000Y-25590000D03*
X31235000Y-25590000D03*
X29965000Y-25590000D03*
X28695000Y-25590000D03*
G04 #@! TD*
D14*
G04 #@! TO.C,FB2*
X54712500Y-7500000D03*
X56287500Y-7500000D03*
G04 #@! TD*
G04 #@! TO.C,FB1*
X73610000Y-19235000D03*
X75185000Y-19235000D03*
G04 #@! TD*
D15*
G04 #@! TO.C,R16*
X28525000Y-42630000D03*
X26875000Y-42630000D03*
G04 #@! TD*
D16*
G04 #@! TO.C,Q5*
X59195000Y-64020000D03*
X60495000Y-64020000D03*
X59845000Y-62020000D03*
G04 #@! TD*
D15*
G04 #@! TO.C,R41*
X64672500Y-7530000D03*
X63022500Y-7530000D03*
G04 #@! TD*
D17*
G04 #@! TO.C,R36*
X67790000Y-37560000D03*
X69440000Y-37560000D03*
G04 #@! TD*
D15*
G04 #@! TO.C,R9*
X76120000Y-69140000D03*
X74470000Y-69140000D03*
G04 #@! TD*
D17*
G04 #@! TO.C,R1*
X56170000Y-60690000D03*
X57820000Y-60690000D03*
G04 #@! TD*
D15*
G04 #@! TO.C,R31*
X23820000Y-22605000D03*
X22170000Y-22605000D03*
G04 #@! TD*
D18*
G04 #@! TO.C,U6*
X71770000Y-28080000D03*
X71770000Y-29350000D03*
X71770000Y-30620000D03*
X71770000Y-31890000D03*
X76720000Y-31890000D03*
X76720000Y-30620000D03*
X76720000Y-29350000D03*
X76720000Y-28080000D03*
G04 #@! TD*
D19*
G04 #@! TO.C,D13*
X74342500Y-37860000D03*
X71542500Y-37860000D03*
G04 #@! TD*
D20*
G04 #@! TO.C,C15*
X65162500Y-12510000D03*
X63612500Y-12510000D03*
G04 #@! TD*
D21*
G04 #@! TO.C,R50*
X23320000Y-61010000D03*
X23320000Y-59360000D03*
G04 #@! TD*
D20*
G04 #@! TO.C,C7*
X15185000Y-41080000D03*
X13635000Y-41080000D03*
G04 #@! TD*
D22*
G04 #@! TO.C,C22*
X48395000Y-33995000D03*
X50295000Y-33995000D03*
G04 #@! TD*
D15*
G04 #@! TO.C,R39*
X74672500Y-55410000D03*
X73022500Y-55410000D03*
G04 #@! TD*
D23*
G04 #@! TO.C,C10*
X19635000Y-25800000D03*
X19635000Y-27350000D03*
G04 #@! TD*
D24*
G04 #@! TO.C,Q7*
X41175000Y-29925000D03*
X41175000Y-31225000D03*
X43175000Y-30575000D03*
G04 #@! TD*
D25*
G04 #@! TO.C,C13*
X76585000Y-19245000D03*
X78135000Y-19245000D03*
G04 #@! TD*
D15*
G04 #@! TO.C,R17*
X31532500Y-40060000D03*
X29882500Y-40060000D03*
G04 #@! TD*
D24*
G04 #@! TO.C,Q1*
X77185000Y-67370000D03*
X77185000Y-66070000D03*
X75185000Y-66720000D03*
G04 #@! TD*
G04 #@! TO.C,Q2*
X66407500Y-49550000D03*
X66407500Y-50850000D03*
X68407500Y-50200000D03*
G04 #@! TD*
D26*
G04 #@! TO.C,J4*
X19675000Y-71097500D03*
D27*
X23175000Y-71097500D03*
X26675000Y-71097500D03*
X30175000Y-71097500D03*
X33675000Y-71097500D03*
G04 #@! TD*
D28*
G04 #@! TO.C,D21*
X28460000Y-60395000D03*
X28460000Y-61795000D03*
G04 #@! TD*
D17*
G04 #@! TO.C,R3*
X61820000Y-62250000D03*
X63470000Y-62250000D03*
G04 #@! TD*
D29*
G04 #@! TO.C,L2*
X76000000Y-14360000D03*
X78125000Y-14360000D03*
G04 #@! TD*
D30*
G04 #@! TO.C,J6*
X85067500Y-32945000D03*
D31*
X85067500Y-29445000D03*
X85067500Y-25945000D03*
X85067500Y-22445000D03*
X85067500Y-18945000D03*
G04 #@! TD*
D32*
G04 #@! TO.C,Q10*
X71770000Y-39770000D03*
X71770000Y-41670000D03*
X73645000Y-40720000D03*
G04 #@! TD*
D21*
G04 #@! TO.C,R52*
X26770000Y-61060000D03*
X26770000Y-59410000D03*
G04 #@! TD*
D20*
G04 #@! TO.C,C1*
X57800000Y-62220000D03*
X56250000Y-62220000D03*
G04 #@! TD*
D33*
G04 #@! TO.C,U9*
X77997500Y-10820000D03*
X77997500Y-9870000D03*
X77997500Y-8920000D03*
X75722500Y-8920000D03*
X75722500Y-9870000D03*
X75722500Y-10820000D03*
G04 #@! TD*
D34*
G04 #@! TO.C,C21*
X23920000Y-16290331D03*
X23920000Y-18190331D03*
G04 #@! TD*
D35*
G04 #@! TO.C,D6*
X74657500Y-59580000D03*
X77457500Y-59580000D03*
G04 #@! TD*
D17*
G04 #@! TO.C,R20*
X34847500Y-39195000D03*
X36497500Y-39195000D03*
G04 #@! TD*
D36*
G04 #@! TO.C,D7*
X46495000Y-27645000D03*
X46495000Y-29745000D03*
G04 #@! TD*
D11*
G04 #@! TO.C,H2*
X1200000Y-71000000D03*
X1902944Y-69302944D03*
X1902944Y-72697056D03*
X3600000Y-68600000D03*
D12*
X3600000Y-71000000D03*
D11*
X3600000Y-73400000D03*
X5297056Y-69302944D03*
X5297056Y-72697056D03*
X6000000Y-71000000D03*
G04 #@! TD*
D15*
G04 #@! TO.C,R38*
X75630000Y-43250000D03*
X73980000Y-43250000D03*
G04 #@! TD*
D37*
G04 #@! TO.C,D17*
X80062500Y-12517500D03*
X80062500Y-9717500D03*
G04 #@! TD*
D21*
G04 #@! TO.C,R33*
X28160000Y-23640000D03*
X28160000Y-21990000D03*
G04 #@! TD*
D29*
G04 #@! TO.C,L1*
X63635000Y-15020000D03*
X65760000Y-15020000D03*
G04 #@! TD*
D14*
G04 #@! TO.C,D14*
X77240000Y-42880000D03*
X78815000Y-42880000D03*
G04 #@! TD*
D28*
G04 #@! TO.C,D22*
X32010000Y-60345000D03*
X32010000Y-61745000D03*
G04 #@! TD*
D38*
G04 #@! TO.C,J1*
X5040000Y-55280000D03*
D39*
X2500000Y-55280000D03*
X5040000Y-52740000D03*
X2500000Y-52740000D03*
X5040000Y-50200000D03*
X2500000Y-50200000D03*
X5040000Y-47660000D03*
X2500000Y-47660000D03*
X5040000Y-45120000D03*
X2500000Y-45120000D03*
X5040000Y-42580000D03*
X2500000Y-42580000D03*
X5040000Y-40040000D03*
X2500000Y-40040000D03*
X5040000Y-37500000D03*
X2500000Y-37500000D03*
X5040000Y-34960000D03*
X2500000Y-34960000D03*
X5040000Y-32420000D03*
X2500000Y-32420000D03*
X5040000Y-29880000D03*
X2500000Y-29880000D03*
X5040000Y-27340000D03*
X2500000Y-27340000D03*
X5040000Y-24800000D03*
X2500000Y-24800000D03*
X5040000Y-22260000D03*
X2500000Y-22260000D03*
X5040000Y-19720000D03*
X2500000Y-19720000D03*
G04 #@! TD*
D40*
G04 #@! TO.C,C24*
X53010000Y-14237500D03*
X53010000Y-12687500D03*
G04 #@! TD*
D13*
G04 #@! TO.C,U4*
X21162500Y-31115000D03*
X22432500Y-31115000D03*
X23702500Y-31115000D03*
X24972500Y-31115000D03*
X24972500Y-26165000D03*
X23702500Y-26165000D03*
X22432500Y-26165000D03*
X21162500Y-26165000D03*
G04 #@! TD*
D15*
G04 #@! TO.C,R15*
X31532500Y-42620000D03*
X29882500Y-42620000D03*
G04 #@! TD*
D17*
G04 #@! TO.C,R13*
X17665000Y-36820000D03*
X19315000Y-36820000D03*
G04 #@! TD*
G04 #@! TO.C,R43*
X78527500Y-7420000D03*
X80177500Y-7420000D03*
G04 #@! TD*
G04 #@! TO.C,R4*
X70930000Y-66030000D03*
X72580000Y-66030000D03*
G04 #@! TD*
D21*
G04 #@! TO.C,R55*
X30410000Y-64210000D03*
X30410000Y-62560000D03*
G04 #@! TD*
D41*
G04 #@! TO.C,C19*
X73822500Y-9870000D03*
X73822500Y-7970000D03*
G04 #@! TD*
D42*
G04 #@! TO.C,U3*
X19442500Y-38715000D03*
X19442500Y-39985000D03*
X19442500Y-41255000D03*
X19442500Y-42525000D03*
X24517500Y-42525000D03*
X24517500Y-41255000D03*
X24517500Y-39985000D03*
X24517500Y-38715000D03*
G04 #@! TD*
D43*
G04 #@! TO.C,D9*
X11745000Y-23780000D03*
X11745000Y-22380000D03*
G04 #@! TD*
D25*
G04 #@! TO.C,C5*
X67620000Y-66030000D03*
X69170000Y-66030000D03*
G04 #@! TD*
D21*
G04 #@! TO.C,R49*
X19680000Y-61160000D03*
X19680000Y-59510000D03*
G04 #@! TD*
D23*
G04 #@! TO.C,C9*
X11775000Y-25555000D03*
X11775000Y-27105000D03*
G04 #@! TD*
D18*
G04 #@! TO.C,U7*
X71645000Y-21035000D03*
X71645000Y-22305000D03*
X71645000Y-23575000D03*
X71645000Y-24845000D03*
X76595000Y-24845000D03*
X76595000Y-23575000D03*
X76595000Y-22305000D03*
X76595000Y-21035000D03*
G04 #@! TD*
D17*
G04 #@! TO.C,R21*
X37837500Y-39255000D03*
X39487500Y-39255000D03*
G04 #@! TD*
D44*
G04 #@! TO.C,R26*
X44705000Y-27640000D03*
X44705000Y-29290000D03*
G04 #@! TD*
D30*
G04 #@! TO.C,J3*
X85067500Y-59945000D03*
D31*
X85067500Y-56445000D03*
X85067500Y-52945000D03*
G04 #@! TD*
D21*
G04 #@! TO.C,R54*
X26810000Y-64190000D03*
X26810000Y-62540000D03*
G04 #@! TD*
G04 #@! TO.C,R44*
X58080000Y-3000000D03*
X58080000Y-1350000D03*
G04 #@! TD*
D11*
G04 #@! TO.C,H1*
X1200000Y-3697056D03*
X1902944Y-2000000D03*
X1902944Y-5394112D03*
X3600000Y-1297056D03*
D12*
X3600000Y-3697056D03*
D11*
X3600000Y-6097056D03*
X5297056Y-2000000D03*
X5297056Y-5394112D03*
X6000000Y-3697056D03*
G04 #@! TD*
D24*
G04 #@! TO.C,Q9*
X67955000Y-39070000D03*
X67955000Y-40370000D03*
X69955000Y-39720000D03*
G04 #@! TD*
D15*
G04 #@! TO.C,R34*
X31455000Y-21865000D03*
X29805000Y-21865000D03*
G04 #@! TD*
D13*
G04 #@! TO.C,U1*
X13820000Y-30845000D03*
X15090000Y-30845000D03*
X16360000Y-30845000D03*
X17630000Y-30845000D03*
X17630000Y-25895000D03*
X16360000Y-25895000D03*
X15090000Y-25895000D03*
X13820000Y-25895000D03*
G04 #@! TD*
D21*
G04 #@! TO.C,R23*
X71787500Y-51145000D03*
X71787500Y-49495000D03*
G04 #@! TD*
D15*
G04 #@! TO.C,R11*
X15240000Y-42570000D03*
X13590000Y-42570000D03*
G04 #@! TD*
D17*
G04 #@! TO.C,R12*
X20690000Y-36820000D03*
X22340000Y-36820000D03*
G04 #@! TD*
D15*
G04 #@! TO.C,R10*
X57845000Y-63690000D03*
X56195000Y-63690000D03*
G04 #@! TD*
D44*
G04 #@! TO.C,R47*
X36490000Y-14220000D03*
X36490000Y-15870000D03*
G04 #@! TD*
D45*
G04 #@! TO.C,F1*
X77717500Y-50540000D03*
X77717500Y-53340000D03*
G04 #@! TD*
D46*
G04 #@! TO.C,FB6*
X22180000Y-16307831D03*
X22180000Y-14732831D03*
G04 #@! TD*
D21*
G04 #@! TO.C,R46*
X57880000Y-14152500D03*
X57880000Y-12502500D03*
G04 #@! TD*
D20*
G04 #@! TO.C,C17*
X77577500Y-12330000D03*
X76027500Y-12330000D03*
G04 #@! TD*
D14*
G04 #@! TO.C,FB5*
X67587500Y-67620000D03*
X69162500Y-67620000D03*
G04 #@! TD*
D44*
G04 #@! TO.C,R35*
X32940000Y-21940000D03*
X32940000Y-23590000D03*
G04 #@! TD*
D14*
G04 #@! TO.C,FB4*
X81975000Y-8880000D03*
X83550000Y-8880000D03*
G04 #@! TD*
D25*
G04 #@! TO.C,C6*
X10445000Y-39170000D03*
X11995000Y-39170000D03*
G04 #@! TD*
D15*
G04 #@! TO.C,R22*
X64952500Y-49700000D03*
X63302500Y-49700000D03*
G04 #@! TD*
D30*
G04 #@! TO.C,J7*
X85017500Y-43695000D03*
D31*
X85017500Y-40195000D03*
G04 #@! TD*
D35*
G04 #@! TO.C,D20*
X53282500Y-17072500D03*
X56082500Y-17072500D03*
G04 #@! TD*
D15*
G04 #@! TO.C,R18*
X28535000Y-40060000D03*
X26885000Y-40060000D03*
G04 #@! TD*
G04 #@! TO.C,R5*
X76260000Y-64460000D03*
X74610000Y-64460000D03*
G04 #@! TD*
D25*
G04 #@! TO.C,C12*
X76895000Y-26495000D03*
X78445000Y-26495000D03*
G04 #@! TD*
D15*
G04 #@! TO.C,R7*
X76240000Y-62980000D03*
X74590000Y-62980000D03*
G04 #@! TD*
D17*
G04 #@! TO.C,R27*
X14875000Y-22180000D03*
X16525000Y-22180000D03*
G04 #@! TD*
D22*
G04 #@! TO.C,C20*
X75780000Y-5550000D03*
X77680000Y-5550000D03*
G04 #@! TD*
D21*
G04 #@! TO.C,R30*
X20635000Y-24270000D03*
X20635000Y-22620000D03*
G04 #@! TD*
D37*
G04 #@! TO.C,D16*
X67567500Y-11910000D03*
X67567500Y-9110000D03*
G04 #@! TD*
D41*
G04 #@! TO.C,C14*
X61297500Y-10000000D03*
X61297500Y-8100000D03*
G04 #@! TD*
D33*
G04 #@! TO.C,U8*
X65472500Y-10950000D03*
X65472500Y-10000000D03*
X65472500Y-9050000D03*
X63197500Y-9050000D03*
X63197500Y-10000000D03*
X63197500Y-10950000D03*
G04 #@! TD*
D41*
G04 #@! TO.C,C18*
X82202500Y-12330000D03*
X82202500Y-10430000D03*
G04 #@! TD*
D46*
G04 #@! TO.C,D3*
X41022500Y-41532500D03*
X41022500Y-39957500D03*
G04 #@! TD*
D15*
G04 #@! TO.C,R25*
X39817500Y-30015000D03*
X38167500Y-30015000D03*
G04 #@! TD*
D21*
G04 #@! TO.C,R51*
X23380000Y-64210000D03*
X23380000Y-62560000D03*
G04 #@! TD*
D44*
G04 #@! TO.C,R14*
X16880000Y-38205000D03*
X16880000Y-39855000D03*
G04 #@! TD*
D47*
G04 #@! TO.C,J2*
X54195000Y-3932500D03*
D27*
X50695000Y-3932500D03*
G04 #@! TD*
D46*
G04 #@! TO.C,FB7*
X53100000Y-22490000D03*
X53100000Y-20915000D03*
G04 #@! TD*
D22*
G04 #@! TO.C,C25*
X53090000Y-19202500D03*
X54990000Y-19202500D03*
G04 #@! TD*
D21*
G04 #@! TO.C,R45*
X57900000Y-17172500D03*
X57900000Y-15522500D03*
G04 #@! TD*
D48*
G04 #@! TO.C,D18*
X58150000Y-4400000D03*
X58150000Y-5975000D03*
G04 #@! TD*
D32*
G04 #@! TO.C,Q6*
X73507500Y-49460000D03*
X73507500Y-51360000D03*
X75382500Y-50410000D03*
G04 #@! TD*
D15*
G04 #@! TO.C,R37*
X70110000Y-41850000D03*
X68460000Y-41850000D03*
G04 #@! TD*
G04 #@! TO.C,R8*
X72650000Y-69090000D03*
X71000000Y-69090000D03*
G04 #@! TD*
D49*
G04 #@! TO.C,Q8*
X46585000Y-31387500D03*
X44685000Y-31387500D03*
X45635000Y-33262500D03*
G04 #@! TD*
D21*
G04 #@! TO.C,R53*
X30410000Y-61140000D03*
X30410000Y-59490000D03*
G04 #@! TD*
D17*
G04 #@! TO.C,R2*
X59930000Y-60590000D03*
X61580000Y-60590000D03*
G04 #@! TD*
D20*
G04 #@! TO.C,C4*
X73070000Y-59080000D03*
X71520000Y-59080000D03*
G04 #@! TD*
D44*
G04 #@! TO.C,R32*
X25305000Y-22610000D03*
X25305000Y-24260000D03*
G04 #@! TD*
D50*
G04 #@! TO.C,U10*
X54500000Y-15000000D03*
X55450000Y-15000000D03*
X56400000Y-15000000D03*
X56400000Y-12725000D03*
X55450000Y-12725000D03*
X54500000Y-12725000D03*
G04 #@! TD*
D51*
G04 #@! TO.C,F2*
X75925000Y-40730000D03*
X78725000Y-40730000D03*
G04 #@! TD*
D25*
G04 #@! TO.C,C3*
X63110000Y-60570000D03*
X64660000Y-60570000D03*
G04 #@! TD*
D24*
G04 #@! TO.C,Q4*
X37442500Y-40875000D03*
X37442500Y-42175000D03*
X39442500Y-41525000D03*
G04 #@! TD*
D41*
G04 #@! TO.C,C16*
X69697500Y-11950000D03*
X69697500Y-10050000D03*
G04 #@! TD*
D52*
G04 #@! TO.C,D12*
X70155000Y-43580000D03*
X68055000Y-43580000D03*
G04 #@! TD*
D53*
G04 #@! TO.C,J8*
X39000000Y-9390331D03*
X14000000Y-9390331D03*
D54*
X20960000Y-10810331D03*
D55*
X23730000Y-10810331D03*
X26500000Y-10810331D03*
X29270000Y-10810331D03*
X32040000Y-10810331D03*
X22345000Y-7970331D03*
X25115000Y-7970331D03*
X27885000Y-7970331D03*
X30655000Y-7970331D03*
G04 #@! TD*
D19*
G04 #@! TO.C,D5*
X75535000Y-53290000D03*
X72735000Y-53290000D03*
G04 #@! TD*
D20*
G04 #@! TO.C,C8*
X25255000Y-36810000D03*
X23705000Y-36810000D03*
G04 #@! TD*
D43*
G04 #@! TO.C,D19*
X20710000Y-17767831D03*
X20710000Y-16367831D03*
G04 #@! TD*
D52*
G04 #@! TO.C,D2*
X12160000Y-41040000D03*
X10060000Y-41040000D03*
G04 #@! TD*
D15*
G04 #@! TO.C,R40*
X67682500Y-7510000D03*
X66032500Y-7510000D03*
G04 #@! TD*
D11*
G04 #@! TO.C,H4*
X82902944Y-3697056D03*
X83605888Y-2000000D03*
X83605888Y-5394112D03*
X85302944Y-1297056D03*
D12*
X85302944Y-3697056D03*
D11*
X85302944Y-6097056D03*
X87000000Y-2000000D03*
X87000000Y-5394112D03*
X87702944Y-3697056D03*
G04 #@! TD*
D56*
G04 #@! TO.C,FB3*
X72962500Y-11970000D03*
X71387500Y-11970000D03*
G04 #@! TD*
D19*
G04 #@! TO.C,D8*
X42832500Y-33135000D03*
X40032500Y-33135000D03*
G04 #@! TD*
D20*
G04 #@! TO.C,C2*
X63405000Y-63760000D03*
X61855000Y-63760000D03*
G04 #@! TD*
D14*
G04 #@! TO.C,D15*
X76200000Y-55440000D03*
X77775000Y-55440000D03*
G04 #@! TD*
D17*
G04 #@! TO.C,R42*
X75547500Y-7420000D03*
X77197500Y-7420000D03*
G04 #@! TD*
D44*
G04 #@! TO.C,R29*
X17975000Y-22185000D03*
X17975000Y-23835000D03*
G04 #@! TD*
D23*
G04 #@! TO.C,C11*
X27000000Y-25000000D03*
X27000000Y-26550000D03*
G04 #@! TD*
D57*
G04 #@! TO.C,D4*
X70057500Y-51257500D03*
X70057500Y-49157500D03*
G04 #@! TD*
D21*
G04 #@! TO.C,R28*
X13295000Y-23855000D03*
X13295000Y-22205000D03*
G04 #@! TD*
G04 #@! TO.C,R48*
X19670000Y-64300000D03*
X19670000Y-62650000D03*
G04 #@! TD*
D15*
G04 #@! TO.C,R19*
X31540000Y-38600000D03*
X29890000Y-38600000D03*
G04 #@! TD*
G04 #@! TO.C,R6*
X72600000Y-67530000D03*
X70950000Y-67530000D03*
G04 #@! TD*
D58*
G04 #@! TO.C,L3*
X50980000Y-12690000D03*
X50980000Y-14815000D03*
G04 #@! TD*
D28*
G04 #@! TO.C,D11*
X24940000Y-60435000D03*
X24940000Y-61835000D03*
G04 #@! TD*
D24*
G04 #@! TO.C,Q3*
X33982500Y-40745000D03*
X33982500Y-42045000D03*
X35982500Y-41395000D03*
G04 #@! TD*
D59*
G04 #@! TO.C,U2*
X67520000Y-60645000D03*
X67520000Y-61915000D03*
X67520000Y-63185000D03*
X67520000Y-64455000D03*
X72670000Y-64455000D03*
X72670000Y-63185000D03*
X72670000Y-61915000D03*
X72670000Y-60645000D03*
G04 #@! TD*
D52*
G04 #@! TO.C,D1*
X15360000Y-39180000D03*
X13260000Y-39180000D03*
G04 #@! TD*
D22*
G04 #@! TO.C,C23*
X55520000Y-10832500D03*
X57420000Y-10832500D03*
G04 #@! TD*
D17*
G04 #@! TO.C,R24*
X76220000Y-61520000D03*
X77870000Y-61520000D03*
G04 #@! TD*
D28*
G04 #@! TO.C,D10*
X21420000Y-61065000D03*
X21420000Y-62465000D03*
G04 #@! TD*
M02*
