G04 #@! TF.GenerationSoftware,KiCad,Pcbnew,7.0.7*
G04 #@! TF.CreationDate,2023-09-07T10:59:33+03:00*
G04 #@! TF.ProjectId,colorlight-cnc-proto,636f6c6f-726c-4696-9768-742d636e632d,rev?*
G04 #@! TF.SameCoordinates,Original*
G04 #@! TF.FileFunction,Copper,L2,Bot*
G04 #@! TF.FilePolarity,Positive*
%FSLAX46Y46*%
G04 Gerber Fmt 4.6, Leading zero omitted, Abs format (unit mm)*
G04 Created by KiCad (PCBNEW 7.0.7) date 2023-09-07 10:59:33*
%MOMM*%
%LPD*%
G01*
G04 APERTURE LIST*
G04 Aperture macros list*
%AMRoundRect*
0 Rectangle with rounded corners*
0 $1 Rounding radius*
0 $2 $3 $4 $5 $6 $7 $8 $9 X,Y pos of 4 corners*
0 Add a 4 corners polygon primitive as box body*
4,1,4,$2,$3,$4,$5,$6,$7,$8,$9,$2,$3,0*
0 Add four circle primitives for the rounded corners*
1,1,$1+$1,$2,$3*
1,1,$1+$1,$4,$5*
1,1,$1+$1,$6,$7*
1,1,$1+$1,$8,$9*
0 Add four rect primitives between the rounded corners*
20,1,$1+$1,$2,$3,$4,$5,0*
20,1,$1+$1,$4,$5,$6,$7,0*
20,1,$1+$1,$6,$7,$8,$9,0*
20,1,$1+$1,$8,$9,$2,$3,0*%
G04 Aperture macros list end*
G04 #@! TA.AperFunction,ComponentPad*
%ADD10C,0.800000*%
G04 #@! TD*
G04 #@! TA.AperFunction,ComponentPad*
%ADD11C,6.400000*%
G04 #@! TD*
G04 #@! TA.AperFunction,ComponentPad*
%ADD12RoundRect,0.250000X-0.650000X-1.550000X0.650000X-1.550000X0.650000X1.550000X-0.650000X1.550000X0*%
G04 #@! TD*
G04 #@! TA.AperFunction,ComponentPad*
%ADD13O,1.800000X3.600000*%
G04 #@! TD*
G04 #@! TA.AperFunction,ComponentPad*
%ADD14RoundRect,0.250000X1.550000X-0.650000X1.550000X0.650000X-1.550000X0.650000X-1.550000X-0.650000X0*%
G04 #@! TD*
G04 #@! TA.AperFunction,ComponentPad*
%ADD15O,3.600000X1.800000*%
G04 #@! TD*
G04 #@! TA.AperFunction,ComponentPad*
%ADD16R,1.700000X1.700000*%
G04 #@! TD*
G04 #@! TA.AperFunction,ComponentPad*
%ADD17O,1.700000X1.700000*%
G04 #@! TD*
G04 #@! TA.AperFunction,ComponentPad*
%ADD18RoundRect,0.250000X0.650000X1.550000X-0.650000X1.550000X-0.650000X-1.550000X0.650000X-1.550000X0*%
G04 #@! TD*
G04 #@! TA.AperFunction,ComponentPad*
%ADD19C,4.000000*%
G04 #@! TD*
G04 #@! TA.AperFunction,ComponentPad*
%ADD20R,1.600000X1.600000*%
G04 #@! TD*
G04 #@! TA.AperFunction,ComponentPad*
%ADD21C,1.600000*%
G04 #@! TD*
G04 #@! TA.AperFunction,ViaPad*
%ADD22C,0.600000*%
G04 #@! TD*
G04 #@! TA.AperFunction,ViaPad*
%ADD23C,0.800000*%
G04 #@! TD*
G04 #@! TA.AperFunction,Conductor*
%ADD24C,0.500000*%
G04 #@! TD*
G04 #@! TA.AperFunction,Conductor*
%ADD25C,0.250000*%
G04 #@! TD*
G04 #@! TA.AperFunction,Conductor*
%ADD26C,0.200000*%
G04 #@! TD*
G04 APERTURE END LIST*
D10*
G04 #@! TO.P,H3,1,1*
G04 #@! TO.N,GND*
X82902944Y-71302944D03*
X83605888Y-69605888D03*
X83605888Y-73000000D03*
X85302944Y-68902944D03*
D11*
X85302944Y-71302944D03*
D10*
X85302944Y-73702944D03*
X87000000Y-69605888D03*
X87000000Y-73000000D03*
X87702944Y-71302944D03*
G04 #@! TD*
D12*
G04 #@! TO.P,J4,1,Pin_1*
G04 #@! TO.N,Net-(J4-Pin_1)*
X19675000Y-71097500D03*
D13*
G04 #@! TO.P,J4,2,Pin_2*
G04 #@! TO.N,Net-(J4-Pin_2)*
X23175000Y-71097500D03*
G04 #@! TO.P,J4,3,Pin_3*
G04 #@! TO.N,Net-(J4-Pin_3)*
X26675000Y-71097500D03*
G04 #@! TO.P,J4,4,Pin_4*
G04 #@! TO.N,Net-(J4-Pin_4)*
X30175000Y-71097500D03*
G04 #@! TO.P,J4,5,Pin_5*
G04 #@! TO.N,GND*
X33675000Y-71097500D03*
G04 #@! TD*
D14*
G04 #@! TO.P,J6,1,Pin_1*
G04 #@! TO.N,/Step Dir/STEP_OUT_P*
X85067500Y-32945000D03*
D15*
G04 #@! TO.P,J6,2,Pin_2*
G04 #@! TO.N,/Step Dir/STEP_OUT_N*
X85067500Y-29445000D03*
G04 #@! TO.P,J6,3,Pin_3*
G04 #@! TO.N,/Step Dir/DIR_OUT_P*
X85067500Y-25945000D03*
G04 #@! TO.P,J6,4,Pin_4*
G04 #@! TO.N,/Step Dir/DIR_OUT_N*
X85067500Y-22445000D03*
G04 #@! TO.P,J6,5,Pin_5*
G04 #@! TO.N,GND*
X85067500Y-18945000D03*
G04 #@! TD*
D10*
G04 #@! TO.P,H2,1,1*
G04 #@! TO.N,GND*
X1200000Y-71000000D03*
X1902944Y-69302944D03*
X1902944Y-72697056D03*
X3600000Y-68600000D03*
D11*
X3600000Y-71000000D03*
D10*
X3600000Y-73400000D03*
X5297056Y-69302944D03*
X5297056Y-72697056D03*
X6000000Y-71000000D03*
G04 #@! TD*
D16*
G04 #@! TO.P,J1,1,Pin_1*
G04 #@! TO.N,+3V3*
X5040000Y-55280000D03*
D17*
G04 #@! TO.P,J1,2,Pin_2*
X2500000Y-55280000D03*
G04 #@! TO.P,J1,3,Pin_3*
G04 #@! TO.N,GND*
X5040000Y-52740000D03*
G04 #@! TO.P,J1,4,Pin_4*
X2500000Y-52740000D03*
G04 #@! TO.P,J1,5,Pin_5*
G04 #@! TO.N,/IO/INP0*
X5040000Y-50200000D03*
G04 #@! TO.P,J1,6,Pin_6*
G04 #@! TO.N,/Analog output/PWM_IN*
X2500000Y-50200000D03*
G04 #@! TO.P,J1,7,Pin_7*
G04 #@! TO.N,/IO/INP1*
X5040000Y-47660000D03*
G04 #@! TO.P,J1,8,Pin_8*
G04 #@! TO.N,/Analog output/DIR_IN*
X2500000Y-47660000D03*
G04 #@! TO.P,J1,9,Pin_9*
G04 #@! TO.N,/IO/INP2*
X5040000Y-45120000D03*
G04 #@! TO.P,J1,10,Pin_10*
G04 #@! TO.N,/Analog output/EN*
X2500000Y-45120000D03*
G04 #@! TO.P,J1,11,Pin_11*
G04 #@! TO.N,/IO/INP3*
X5040000Y-42580000D03*
G04 #@! TO.P,J1,12,Pin_12*
G04 #@! TO.N,/Watchdog/24V_OK*
X2500000Y-42580000D03*
G04 #@! TO.P,J1,13,Pin_13*
G04 #@! TO.N,/Step Dir/STEP*
X5040000Y-40040000D03*
G04 #@! TO.P,J1,14,Pin_14*
G04 #@! TO.N,/Watchdog/PWM_IN*
X2500000Y-40040000D03*
G04 #@! TO.P,J1,15,Pin_15*
G04 #@! TO.N,+5V*
X5040000Y-37500000D03*
G04 #@! TO.P,J1,16,Pin_16*
G04 #@! TO.N,unconnected-(J1-Pin_16-Pad16)*
X2500000Y-37500000D03*
G04 #@! TO.P,J1,17,Pin_17*
G04 #@! TO.N,/Step Dir/DIR*
X5040000Y-34960000D03*
G04 #@! TO.P,J1,18,Pin_18*
G04 #@! TO.N,/SD_EN*
X2500000Y-34960000D03*
G04 #@! TO.P,J1,19,Pin_19*
G04 #@! TO.N,+3V3*
X5040000Y-32420000D03*
G04 #@! TO.P,J1,20,Pin_20*
X2500000Y-32420000D03*
G04 #@! TO.P,J1,21,Pin_21*
G04 #@! TO.N,GND*
X5040000Y-29880000D03*
G04 #@! TO.P,J1,22,Pin_22*
X2500000Y-29880000D03*
G04 #@! TO.P,J1,23,Pin_23*
G04 #@! TO.N,unconnected-(J1-Pin_23-Pad23)*
X5040000Y-27340000D03*
G04 #@! TO.P,J1,24,Pin_24*
G04 #@! TO.N,/Quad encoder/Z*
X2500000Y-27340000D03*
G04 #@! TO.P,J1,25,Pin_25*
G04 #@! TO.N,unconnected-(J1-Pin_25-Pad25)*
X5040000Y-24800000D03*
G04 #@! TO.P,J1,26,Pin_26*
G04 #@! TO.N,/Quad encoder/B*
X2500000Y-24800000D03*
G04 #@! TO.P,J1,27,Pin_27*
G04 #@! TO.N,unconnected-(J1-Pin_27-Pad27)*
X5040000Y-22260000D03*
G04 #@! TO.P,J1,28,Pin_28*
G04 #@! TO.N,/Quad encoder/A*
X2500000Y-22260000D03*
G04 #@! TO.P,J1,29,Pin_29*
G04 #@! TO.N,unconnected-(J1-Pin_29-Pad29)*
X5040000Y-19720000D03*
G04 #@! TO.P,J1,30,Pin_30*
G04 #@! TO.N,unconnected-(J1-Pin_30-Pad30)*
X2500000Y-19720000D03*
G04 #@! TD*
D14*
G04 #@! TO.P,J3,1,Pin_1*
G04 #@! TO.N,/Analog output/OUT*
X85067500Y-59945000D03*
D15*
G04 #@! TO.P,J3,2,Pin_2*
G04 #@! TO.N,/Analog output/EN_OUT*
X85067500Y-56445000D03*
G04 #@! TO.P,J3,3,Pin_3*
G04 #@! TO.N,GND*
X85067500Y-52945000D03*
G04 #@! TD*
D10*
G04 #@! TO.P,H1,1,1*
G04 #@! TO.N,GND*
X1200000Y-3697056D03*
X1902944Y-2000000D03*
X1902944Y-5394112D03*
X3600000Y-1297056D03*
D11*
X3600000Y-3697056D03*
D10*
X3600000Y-6097056D03*
X5297056Y-2000000D03*
X5297056Y-5394112D03*
X6000000Y-3697056D03*
G04 #@! TD*
D14*
G04 #@! TO.P,J7,1,Pin_1*
G04 #@! TO.N,/Step Dir/EN_OUT*
X85017500Y-43695000D03*
D15*
G04 #@! TO.P,J7,2,Pin_2*
G04 #@! TO.N,GND*
X85017500Y-40195000D03*
G04 #@! TD*
D18*
G04 #@! TO.P,J2,1,Pin_1*
G04 #@! TO.N,Net-(J2-Pin_1)*
X54195000Y-3932500D03*
D13*
G04 #@! TO.P,J2,2,Pin_2*
G04 #@! TO.N,GND*
X50695000Y-3932500D03*
G04 #@! TD*
D19*
G04 #@! TO.P,J8,0,PAD*
G04 #@! TO.N,Net-(J8-PAD)*
X39000000Y-9390331D03*
X14000000Y-9390331D03*
D20*
G04 #@! TO.P,J8,1,1*
G04 #@! TO.N,/Quad encoder/A_IN_N*
X20960000Y-10810331D03*
D21*
G04 #@! TO.P,J8,2,2*
G04 #@! TO.N,GND*
X23730000Y-10810331D03*
G04 #@! TO.P,J8,3,3*
G04 #@! TO.N,/Quad encoder/B_IN_N*
X26500000Y-10810331D03*
G04 #@! TO.P,J8,4,4*
G04 #@! TO.N,GND*
X29270000Y-10810331D03*
G04 #@! TO.P,J8,5,5*
G04 #@! TO.N,/Quad encoder/Z_IN_N*
X32040000Y-10810331D03*
G04 #@! TO.P,J8,6,6*
G04 #@! TO.N,/Quad encoder/A_IN_P*
X22345000Y-7970331D03*
G04 #@! TO.P,J8,7,7*
G04 #@! TO.N,Net-(FB6-Pad2)*
X25115000Y-7970331D03*
G04 #@! TO.P,J8,8,8*
G04 #@! TO.N,/Quad encoder/B_IN_P*
X27885000Y-7970331D03*
G04 #@! TO.P,J8,9,9*
G04 #@! TO.N,/Quad encoder/Z_IN_P*
X30655000Y-7970331D03*
G04 #@! TD*
D10*
G04 #@! TO.P,H4,1,1*
G04 #@! TO.N,GND*
X82902944Y-3697056D03*
X83605888Y-2000000D03*
X83605888Y-5394112D03*
X85302944Y-1297056D03*
D11*
X85302944Y-3697056D03*
D10*
X85302944Y-6097056D03*
X87000000Y-2000000D03*
X87000000Y-5394112D03*
X87702944Y-3697056D03*
G04 #@! TD*
D22*
G04 #@! TO.N,GND*
X48460000Y-19690000D03*
X31960000Y-59535000D03*
D23*
X67567500Y-10110000D03*
D22*
X15570000Y-34460000D03*
X34680000Y-53750000D03*
D23*
X17765000Y-27380000D03*
D22*
X43120000Y-4120000D03*
X28410000Y-59585000D03*
X19710000Y-58605000D03*
X47160000Y-9950000D03*
X12860000Y-42520000D03*
X8040000Y-44660000D03*
X20850000Y-18670000D03*
X8670000Y-56460000D03*
X61135000Y-64250000D03*
D23*
X19685000Y-28350000D03*
D22*
X59250000Y-1380000D03*
X23350000Y-58425000D03*
X26060000Y-43510000D03*
X84820000Y-48710000D03*
X32560000Y-50620000D03*
X22990000Y-36810000D03*
X51360000Y-33940000D03*
X67105000Y-40640000D03*
X33140000Y-42350000D03*
X84820000Y-36930000D03*
X60867500Y-7190000D03*
X74565000Y-60540000D03*
X15800000Y-52290000D03*
X78380000Y-31880000D03*
X82520000Y-50820000D03*
D23*
X16320000Y-32490000D03*
D22*
X55236250Y-17918750D03*
X25860000Y-34610000D03*
X61360000Y-3940000D03*
X35385000Y-10020000D03*
X85180000Y-15010000D03*
X61757500Y-7130000D03*
X70027500Y-9120000D03*
X51220000Y-41740000D03*
X65700000Y-51670000D03*
X33040000Y-15130000D03*
X17950000Y-42470000D03*
X55475000Y-61880000D03*
D23*
X22995000Y-33090000D03*
D22*
X8700000Y-37290000D03*
X7930000Y-41050000D03*
X79092500Y-14360000D03*
X45220000Y-24530000D03*
X49940000Y-25560000D03*
X74852500Y-7420000D03*
X70710000Y-58110000D03*
X14680000Y-63590000D03*
X72955000Y-44070000D03*
X28280000Y-15130000D03*
X49880000Y-46710000D03*
X63540000Y-30390000D03*
D23*
X25905000Y-26165000D03*
X27055000Y-27570000D03*
D22*
X44730000Y-18430000D03*
X23330000Y-44080000D03*
X57160000Y-35930000D03*
D23*
X10895000Y-21580000D03*
D22*
X22670000Y-19160000D03*
X69107500Y-9150000D03*
X70005000Y-66030000D03*
X87960000Y-9800000D03*
X39290000Y-35070000D03*
X36560000Y-17070000D03*
X47340000Y-14420000D03*
X30100000Y-46460000D03*
X64507500Y-10010000D03*
X26240000Y-40720000D03*
X30440000Y-58765000D03*
D23*
X33345000Y-25290000D03*
D22*
X21030000Y-60225000D03*
X39215000Y-33115000D03*
X82520000Y-18140000D03*
D23*
X10785000Y-27800000D03*
D22*
X77015000Y-64500000D03*
X35980000Y-32450000D03*
X72190000Y-55570000D03*
X12180000Y-16290000D03*
X71350000Y-53960000D03*
X39710000Y-51570000D03*
X8280000Y-21770000D03*
X26740000Y-58615000D03*
D23*
X30445000Y-32760000D03*
D22*
X51330000Y-48830000D03*
X77565000Y-65460000D03*
X64190000Y-34540000D03*
X36080000Y-49450000D03*
X79390000Y-19190000D03*
X82050000Y-63800000D03*
X78080000Y-24870000D03*
X40355000Y-31315000D03*
X18465000Y-10130000D03*
X81432500Y-13100000D03*
G04 #@! TO.N,+5V*
X8950000Y-31180000D03*
X9930000Y-25990000D03*
X15610000Y-15660000D03*
X9838411Y-30291589D03*
X18300000Y-16140000D03*
G04 #@! TO.N,+3V3*
X17665000Y-37420000D03*
X8890000Y-26810000D03*
X26460000Y-37730000D03*
X8400000Y-30040000D03*
G04 #@! TO.N,+24V*
X47170000Y-18050000D03*
X45395000Y-30595000D03*
X45525000Y-27775000D03*
X48490000Y-16170000D03*
G04 #@! TO.N,+24V_WD*
X57710000Y-42130000D03*
X50990000Y-37390000D03*
G04 #@! TO.N,-15V*
X69460000Y-70160000D03*
X70700000Y-71750000D03*
G04 #@! TO.N,/Step Dir/STEP*
X11480000Y-47250000D03*
G04 #@! TO.N,/Analog output/PWM_IN*
X12250000Y-50580000D03*
G04 #@! TO.N,/Step Dir/DIR*
X10930000Y-45740000D03*
G04 #@! TO.N,/Analog output/DIR_IN*
X14500000Y-51240000D03*
G04 #@! TO.N,/Analog output/EN*
X12660000Y-49290000D03*
G04 #@! TO.N,WATCHDOG*
X32670000Y-40380000D03*
X33080000Y-38180000D03*
X17482500Y-39252500D03*
D23*
G04 #@! TO.N,/Quad encoder/A_IN_N*
X17245000Y-19760000D03*
X14875000Y-20050000D03*
G04 #@! TO.N,/Quad encoder/B_IN_N*
X25285000Y-21630000D03*
X22170000Y-21550000D03*
G04 #@! TO.N,/Quad encoder/Z_IN_N*
X29695000Y-20090000D03*
X32625000Y-20110000D03*
G04 #@! TO.N,/Quad encoder/A_IN_P*
X13635000Y-20920000D03*
X16165000Y-20750000D03*
G04 #@! TO.N,/Quad encoder/B_IN_P*
X24135000Y-20810000D03*
X21015000Y-20790000D03*
G04 #@! TO.N,/Quad encoder/Z_IN_P*
X28385000Y-20970000D03*
X31295000Y-20880000D03*
D22*
G04 #@! TO.N,/IO/INP3*
X7040000Y-44740000D03*
G04 #@! TO.N,/SD_EN*
X13760000Y-48000000D03*
G04 #@! TD*
D24*
G04 #@! TO.N,+5V*
X8950000Y-31180000D02*
X9930000Y-30200000D01*
X15610000Y-15660000D02*
X17820000Y-15660000D01*
X17820000Y-15660000D02*
X18300000Y-16140000D01*
X9930000Y-30200000D02*
X9930000Y-25990000D01*
G04 #@! TO.N,+3V3*
X8890000Y-26810000D02*
X8400000Y-27300000D01*
D25*
X26460000Y-37730000D02*
X17975000Y-37730000D01*
X17975000Y-37730000D02*
X17665000Y-37420000D01*
D24*
X8400000Y-27300000D02*
X8400000Y-30040000D01*
G04 #@! TO.N,+24V*
X45395000Y-30595000D02*
X45395000Y-27905000D01*
X45395000Y-27905000D02*
X45525000Y-27775000D01*
X48490000Y-16730000D02*
X47170000Y-18050000D01*
X48490000Y-16170000D02*
X48490000Y-16730000D01*
G04 #@! TO.N,+24V_WD*
X50990000Y-37390000D02*
X52970000Y-37390000D01*
X52970000Y-37390000D02*
X57710000Y-42130000D01*
G04 #@! TO.N,-15V*
X70700000Y-71750000D02*
X70700000Y-71400000D01*
X70700000Y-71400000D02*
X69460000Y-70160000D01*
D25*
G04 #@! TO.N,/Step Dir/STEP*
X11480000Y-47216116D02*
X11480000Y-47250000D01*
X5040000Y-40040000D02*
X5040000Y-40776116D01*
X5040000Y-40776116D02*
X11480000Y-47216116D01*
G04 #@! TO.N,/Analog output/PWM_IN*
X3675000Y-51375000D02*
X2500000Y-50200000D01*
X11455000Y-51375000D02*
X3675000Y-51375000D01*
X12250000Y-50580000D02*
X11455000Y-51375000D01*
G04 #@! TO.N,/Step Dir/DIR*
X7080000Y-41760000D02*
X10930000Y-45610000D01*
X7080000Y-37000000D02*
X7080000Y-41760000D01*
X10930000Y-45610000D02*
X10930000Y-45740000D01*
X5040000Y-34960000D02*
X7080000Y-37000000D01*
G04 #@! TO.N,/Analog output/DIR_IN*
X13800000Y-51240000D02*
X12515000Y-49955000D01*
X5677106Y-48985405D02*
X3825405Y-48985405D01*
X3825405Y-48985405D02*
X2500000Y-47660000D01*
X14500000Y-51240000D02*
X13800000Y-51240000D01*
X6646701Y-49955000D02*
X5677106Y-48985405D01*
X12515000Y-49955000D02*
X6646701Y-49955000D01*
G04 #@! TO.N,/Analog output/EN*
X5336701Y-46295000D02*
X3675000Y-46295000D01*
X3675000Y-46295000D02*
X2500000Y-45120000D01*
X12660000Y-49290000D02*
X8331701Y-49290000D01*
X8331701Y-49290000D02*
X5336701Y-46295000D01*
G04 #@! TO.N,WATCHDOG*
X33080000Y-39970000D02*
X32670000Y-40380000D01*
X32670000Y-40380000D02*
X31542500Y-39252500D01*
X31542500Y-39252500D02*
X17482500Y-39252500D01*
X33080000Y-38180000D02*
X33080000Y-39970000D01*
D26*
G04 #@! TO.N,/Quad encoder/A_IN_N*
X17245000Y-19760000D02*
X15165000Y-19760000D01*
X15165000Y-19760000D02*
X14875000Y-20050000D01*
G04 #@! TO.N,/Quad encoder/B_IN_N*
X22250000Y-21630000D02*
X22170000Y-21550000D01*
X25285000Y-21630000D02*
X22250000Y-21630000D01*
D25*
G04 #@! TO.N,/Quad encoder/Z_IN_N*
X32625000Y-20110000D02*
X29715000Y-20110000D01*
X29715000Y-20110000D02*
X29695000Y-20090000D01*
D26*
G04 #@! TO.N,/Quad encoder/A_IN_P*
X13635000Y-20920000D02*
X15995000Y-20920000D01*
X15995000Y-20920000D02*
X16165000Y-20750000D01*
G04 #@! TO.N,/Quad encoder/B_IN_P*
X24115000Y-20790000D02*
X24135000Y-20810000D01*
X21015000Y-20790000D02*
X24115000Y-20790000D01*
G04 #@! TO.N,/Quad encoder/Z_IN_P*
X28385000Y-20970000D02*
X31205000Y-20970000D01*
X31205000Y-20970000D02*
X31295000Y-20880000D01*
D25*
G04 #@! TO.N,/IO/INP3*
X5040000Y-42580000D02*
X7040000Y-44580000D01*
X7040000Y-44580000D02*
X7040000Y-44740000D01*
G04 #@! TO.N,/SD_EN*
X2500000Y-34960000D02*
X3675000Y-33785000D01*
X8870000Y-41690000D02*
X13760000Y-46580000D01*
X8000000Y-36258299D02*
X8000000Y-38130000D01*
X8000000Y-38130000D02*
X8870000Y-39000000D01*
X5526701Y-33785000D02*
X8000000Y-36258299D01*
X3675000Y-33785000D02*
X5526701Y-33785000D01*
X8870000Y-39000000D02*
X8870000Y-41690000D01*
X13760000Y-46580000D02*
X13760000Y-48000000D01*
G04 #@! TD*
G04 #@! TA.AperFunction,Conductor*
G04 #@! TO.N,GND*
G36*
X88942539Y-20185D02*
G01*
X88988294Y-72989D01*
X88999500Y-124500D01*
X88999500Y-74875500D01*
X88979815Y-74942539D01*
X88927011Y-74988294D01*
X88875500Y-74999500D01*
X124500Y-74999500D01*
X57461Y-74979815D01*
X11706Y-74927011D01*
X500Y-74875500D01*
X500Y-72695370D01*
X18524500Y-72695370D01*
X18524501Y-72695376D01*
X18530908Y-72754983D01*
X18581202Y-72889828D01*
X18581206Y-72889835D01*
X18667452Y-73005044D01*
X18667455Y-73005047D01*
X18782664Y-73091293D01*
X18782671Y-73091297D01*
X18917517Y-73141591D01*
X18917516Y-73141591D01*
X18924444Y-73142335D01*
X18977127Y-73148000D01*
X20372872Y-73147999D01*
X20432483Y-73141591D01*
X20567331Y-73091296D01*
X20682546Y-73005046D01*
X20768796Y-72889831D01*
X20819091Y-72754983D01*
X20825500Y-72695373D01*
X20825500Y-72050690D01*
X22024499Y-72050690D01*
X22033018Y-72142620D01*
X22039244Y-72209810D01*
X22066399Y-72305250D01*
X22097596Y-72414892D01*
X22097596Y-72414894D01*
X22192632Y-72605753D01*
X22305326Y-72754982D01*
X22321128Y-72775907D01*
X22478698Y-72919552D01*
X22659981Y-73031798D01*
X22858802Y-73108821D01*
X23068390Y-73148000D01*
X23068392Y-73148000D01*
X23281608Y-73148000D01*
X23281610Y-73148000D01*
X23491198Y-73108821D01*
X23690019Y-73031798D01*
X23871302Y-72919552D01*
X24028872Y-72775907D01*
X24157366Y-72605755D01*
X24252405Y-72414889D01*
X24310756Y-72209810D01*
X24325500Y-72050694D01*
X25524500Y-72050694D01*
X25539244Y-72209810D01*
X25566399Y-72305250D01*
X25597596Y-72414892D01*
X25597596Y-72414894D01*
X25692632Y-72605753D01*
X25805326Y-72754982D01*
X25821128Y-72775907D01*
X25978698Y-72919552D01*
X26159981Y-73031798D01*
X26358802Y-73108821D01*
X26568390Y-73148000D01*
X26568392Y-73148000D01*
X26781608Y-73148000D01*
X26781610Y-73148000D01*
X26991198Y-73108821D01*
X27190019Y-73031798D01*
X27371302Y-72919552D01*
X27528872Y-72775907D01*
X27657366Y-72605755D01*
X27752405Y-72414889D01*
X27810756Y-72209810D01*
X27825500Y-72050694D01*
X29024500Y-72050694D01*
X29039244Y-72209810D01*
X29066399Y-72305250D01*
X29097596Y-72414892D01*
X29097596Y-72414894D01*
X29192632Y-72605753D01*
X29305326Y-72754982D01*
X29321128Y-72775907D01*
X29478698Y-72919552D01*
X29659981Y-73031798D01*
X29858802Y-73108821D01*
X30068390Y-73148000D01*
X30068392Y-73148000D01*
X30281608Y-73148000D01*
X30281610Y-73148000D01*
X30491198Y-73108821D01*
X30690019Y-73031798D01*
X30871302Y-72919552D01*
X31028872Y-72775907D01*
X31157366Y-72605755D01*
X31252405Y-72414889D01*
X31310756Y-72209810D01*
X31325500Y-72050694D01*
X31325500Y-70160000D01*
X68904750Y-70160000D01*
X68923670Y-70303708D01*
X68923671Y-70303712D01*
X68979137Y-70437622D01*
X68979138Y-70437624D01*
X68979139Y-70437625D01*
X69067379Y-70552621D01*
X69182375Y-70640861D01*
X69246089Y-70667251D01*
X69286317Y-70694131D01*
X70124479Y-71532293D01*
X70157964Y-71593616D01*
X70159737Y-71636159D01*
X70144750Y-71749997D01*
X70144750Y-71750000D01*
X70163670Y-71893708D01*
X70163671Y-71893712D01*
X70219137Y-72027622D01*
X70219138Y-72027624D01*
X70219139Y-72027625D01*
X70307379Y-72142621D01*
X70422375Y-72230861D01*
X70556291Y-72286330D01*
X70683280Y-72303048D01*
X70699999Y-72305250D01*
X70700000Y-72305250D01*
X70700001Y-72305250D01*
X70714977Y-72303278D01*
X70843709Y-72286330D01*
X70977625Y-72230861D01*
X71092621Y-72142621D01*
X71180861Y-72027625D01*
X71236330Y-71893709D01*
X71255250Y-71750000D01*
X71236330Y-71606291D01*
X71209937Y-71542572D01*
X71200500Y-71495124D01*
X71200500Y-71467143D01*
X71203334Y-71440785D01*
X71204359Y-71436073D01*
X71200658Y-71384329D01*
X71200500Y-71379904D01*
X71200500Y-71364201D01*
X71198264Y-71348657D01*
X71197791Y-71344254D01*
X71194091Y-71292517D01*
X71192407Y-71288002D01*
X71185850Y-71262312D01*
X71185165Y-71257543D01*
X71163612Y-71210351D01*
X71161932Y-71206295D01*
X71143796Y-71157669D01*
X71140905Y-71153807D01*
X71127379Y-71131010D01*
X71125377Y-71126627D01*
X71117856Y-71117947D01*
X71091411Y-71087427D01*
X71088633Y-71083979D01*
X71079229Y-71071417D01*
X71079224Y-71071412D01*
X71079221Y-71071407D01*
X71068097Y-71060283D01*
X71065103Y-71057067D01*
X71031128Y-71017857D01*
X71031125Y-71017854D01*
X71027066Y-71015246D01*
X71006428Y-70998614D01*
X69994131Y-69986317D01*
X69967251Y-69946089D01*
X69940861Y-69882375D01*
X69852621Y-69767379D01*
X69737625Y-69679139D01*
X69737624Y-69679138D01*
X69737622Y-69679137D01*
X69603712Y-69623671D01*
X69603710Y-69623670D01*
X69603709Y-69623670D01*
X69531854Y-69614210D01*
X69460001Y-69604750D01*
X69459999Y-69604750D01*
X69316291Y-69623670D01*
X69316287Y-69623671D01*
X69182377Y-69679137D01*
X69067379Y-69767379D01*
X68979137Y-69882377D01*
X68923671Y-70016287D01*
X68923670Y-70016291D01*
X68904750Y-70159999D01*
X68904750Y-70160000D01*
X31325500Y-70160000D01*
X31325500Y-70144306D01*
X31310756Y-69985190D01*
X31252405Y-69780111D01*
X31252403Y-69780106D01*
X31252403Y-69780105D01*
X31157367Y-69589246D01*
X31028872Y-69419093D01*
X30903906Y-69305171D01*
X30871302Y-69275448D01*
X30690019Y-69163202D01*
X30690017Y-69163201D01*
X30590608Y-69124690D01*
X30491198Y-69086179D01*
X30281610Y-69047000D01*
X30068390Y-69047000D01*
X29858802Y-69086179D01*
X29858799Y-69086179D01*
X29858799Y-69086180D01*
X29659982Y-69163201D01*
X29659980Y-69163202D01*
X29478699Y-69275447D01*
X29321127Y-69419093D01*
X29192632Y-69589246D01*
X29097596Y-69780105D01*
X29097596Y-69780107D01*
X29039244Y-69985189D01*
X29036362Y-70016287D01*
X29024500Y-70144306D01*
X29024500Y-72050694D01*
X27825500Y-72050694D01*
X27825500Y-70144306D01*
X27810756Y-69985190D01*
X27752405Y-69780111D01*
X27752403Y-69780106D01*
X27752403Y-69780105D01*
X27657367Y-69589246D01*
X27528872Y-69419093D01*
X27403906Y-69305171D01*
X27371302Y-69275448D01*
X27190019Y-69163202D01*
X27190017Y-69163201D01*
X27090608Y-69124690D01*
X26991198Y-69086179D01*
X26781610Y-69047000D01*
X26568390Y-69047000D01*
X26358802Y-69086179D01*
X26358799Y-69086179D01*
X26358799Y-69086180D01*
X26159982Y-69163201D01*
X26159980Y-69163202D01*
X25978699Y-69275447D01*
X25821127Y-69419093D01*
X25692632Y-69589246D01*
X25597596Y-69780105D01*
X25597596Y-69780107D01*
X25539244Y-69985189D01*
X25536362Y-70016287D01*
X25524500Y-70144306D01*
X25524500Y-72050694D01*
X24325500Y-72050694D01*
X24325500Y-70144306D01*
X24310756Y-69985190D01*
X24252405Y-69780111D01*
X24252403Y-69780106D01*
X24252403Y-69780105D01*
X24157367Y-69589246D01*
X24028872Y-69419093D01*
X23903906Y-69305171D01*
X23871302Y-69275448D01*
X23690019Y-69163202D01*
X23690017Y-69163201D01*
X23590608Y-69124690D01*
X23491198Y-69086179D01*
X23281610Y-69047000D01*
X23068390Y-69047000D01*
X22858802Y-69086179D01*
X22858799Y-69086179D01*
X22858799Y-69086180D01*
X22659982Y-69163201D01*
X22659980Y-69163202D01*
X22478699Y-69275447D01*
X22321127Y-69419093D01*
X22192632Y-69589246D01*
X22097596Y-69780105D01*
X22097596Y-69780107D01*
X22039244Y-69985189D01*
X22024499Y-70144309D01*
X22024499Y-72050690D01*
X20825500Y-72050690D01*
X20825499Y-69499628D01*
X20819091Y-69440017D01*
X20768796Y-69305169D01*
X20768795Y-69305168D01*
X20768793Y-69305164D01*
X20682547Y-69189955D01*
X20682544Y-69189952D01*
X20567335Y-69103706D01*
X20567328Y-69103702D01*
X20432482Y-69053408D01*
X20432483Y-69053408D01*
X20372883Y-69047001D01*
X20372881Y-69047000D01*
X20372873Y-69047000D01*
X20372864Y-69047000D01*
X18977129Y-69047000D01*
X18977123Y-69047001D01*
X18917516Y-69053408D01*
X18782671Y-69103702D01*
X18782664Y-69103706D01*
X18667455Y-69189952D01*
X18667452Y-69189955D01*
X18581206Y-69305164D01*
X18581202Y-69305171D01*
X18530908Y-69440017D01*
X18524501Y-69499616D01*
X18524501Y-69499623D01*
X18524500Y-69499635D01*
X18524500Y-72695370D01*
X500Y-72695370D01*
X500Y-60642870D01*
X83017000Y-60642870D01*
X83017001Y-60642876D01*
X83023408Y-60702483D01*
X83073702Y-60837328D01*
X83073706Y-60837335D01*
X83159952Y-60952544D01*
X83159955Y-60952547D01*
X83275164Y-61038793D01*
X83275171Y-61038797D01*
X83410017Y-61089091D01*
X83410016Y-61089091D01*
X83416944Y-61089835D01*
X83469627Y-61095500D01*
X86665372Y-61095499D01*
X86724983Y-61089091D01*
X86859831Y-61038796D01*
X86975046Y-60952546D01*
X87061296Y-60837331D01*
X87111591Y-60702483D01*
X87118000Y-60642873D01*
X87117999Y-59247128D01*
X87111591Y-59187517D01*
X87061296Y-59052669D01*
X87061295Y-59052668D01*
X87061293Y-59052664D01*
X86975047Y-58937455D01*
X86975044Y-58937452D01*
X86859835Y-58851206D01*
X86859828Y-58851202D01*
X86724982Y-58800908D01*
X86724983Y-58800908D01*
X86665383Y-58794501D01*
X86665381Y-58794500D01*
X86665373Y-58794500D01*
X86665364Y-58794500D01*
X83469629Y-58794500D01*
X83469623Y-58794501D01*
X83410016Y-58800908D01*
X83275171Y-58851202D01*
X83275164Y-58851206D01*
X83159955Y-58937452D01*
X83159952Y-58937455D01*
X83073706Y-59052664D01*
X83073702Y-59052671D01*
X83023408Y-59187517D01*
X83017001Y-59247116D01*
X83017001Y-59247123D01*
X83017000Y-59247135D01*
X83017000Y-60642870D01*
X500Y-60642870D01*
X500Y-56551610D01*
X83017000Y-56551610D01*
X83056179Y-56761198D01*
X83133202Y-56960019D01*
X83245448Y-57141302D01*
X83389093Y-57298871D01*
X83389093Y-57298872D01*
X83559246Y-57427367D01*
X83750106Y-57522403D01*
X83750108Y-57522403D01*
X83750111Y-57522405D01*
X83955190Y-57580756D01*
X84114306Y-57595500D01*
X84114310Y-57595500D01*
X86020690Y-57595500D01*
X86020694Y-57595500D01*
X86179810Y-57580756D01*
X86384889Y-57522405D01*
X86384893Y-57522403D01*
X86384894Y-57522403D01*
X86575753Y-57427367D01*
X86575753Y-57427366D01*
X86575755Y-57427366D01*
X86745907Y-57298872D01*
X86889552Y-57141302D01*
X87001798Y-56960019D01*
X87078821Y-56761198D01*
X87118000Y-56551610D01*
X87118000Y-56338390D01*
X87078821Y-56128802D01*
X87001798Y-55929981D01*
X86889552Y-55748698D01*
X86745907Y-55591128D01*
X86602834Y-55483083D01*
X86575753Y-55462632D01*
X86384893Y-55367596D01*
X86179810Y-55309244D01*
X86020694Y-55294500D01*
X84114306Y-55294500D01*
X83987013Y-55306295D01*
X83955189Y-55309244D01*
X83750107Y-55367596D01*
X83750105Y-55367596D01*
X83559246Y-55462632D01*
X83389093Y-55591127D01*
X83245447Y-55748699D01*
X83133202Y-55929980D01*
X83133201Y-55929982D01*
X83096554Y-56024581D01*
X83056179Y-56128802D01*
X83017000Y-56338390D01*
X83017000Y-56551610D01*
X500Y-56551610D01*
X500Y-55280000D01*
X1394785Y-55280000D01*
X1413602Y-55483082D01*
X1469417Y-55679247D01*
X1469422Y-55679260D01*
X1560327Y-55861821D01*
X1683237Y-56024581D01*
X1833958Y-56161980D01*
X1833960Y-56161982D01*
X1933141Y-56223392D01*
X2007363Y-56269348D01*
X2197544Y-56343024D01*
X2398024Y-56380500D01*
X2398026Y-56380500D01*
X2601974Y-56380500D01*
X2601976Y-56380500D01*
X2802456Y-56343024D01*
X2992637Y-56269348D01*
X3166041Y-56161981D01*
X3174052Y-56154678D01*
X3939500Y-56154678D01*
X3954032Y-56227735D01*
X3954033Y-56227739D01*
X3954034Y-56227740D01*
X4009399Y-56310601D01*
X4092260Y-56365965D01*
X4092260Y-56365966D01*
X4092264Y-56365967D01*
X4165321Y-56380499D01*
X4165324Y-56380500D01*
X4165326Y-56380500D01*
X5914676Y-56380500D01*
X5914677Y-56380499D01*
X5987740Y-56365966D01*
X6070601Y-56310601D01*
X6125966Y-56227740D01*
X6140500Y-56154674D01*
X6140500Y-54405326D01*
X6140500Y-54405323D01*
X6140499Y-54405321D01*
X6125967Y-54332264D01*
X6125966Y-54332260D01*
X6070601Y-54249399D01*
X5987740Y-54194034D01*
X5987739Y-54194033D01*
X5987735Y-54194032D01*
X5914677Y-54179500D01*
X5914674Y-54179500D01*
X4165326Y-54179500D01*
X4165323Y-54179500D01*
X4092264Y-54194032D01*
X4092260Y-54194033D01*
X4009399Y-54249399D01*
X3954033Y-54332260D01*
X3954032Y-54332264D01*
X3939500Y-54405321D01*
X3939500Y-56154678D01*
X3174052Y-56154678D01*
X3316764Y-56024579D01*
X3439673Y-55861821D01*
X3530582Y-55679250D01*
X3586397Y-55483083D01*
X3605215Y-55280000D01*
X3586397Y-55076917D01*
X3530582Y-54880750D01*
X3439673Y-54698179D01*
X3316764Y-54535421D01*
X3316762Y-54535418D01*
X3166041Y-54398019D01*
X3166039Y-54398017D01*
X2992642Y-54290655D01*
X2992635Y-54290651D01*
X2886150Y-54249399D01*
X2802456Y-54216976D01*
X2601976Y-54179500D01*
X2398024Y-54179500D01*
X2197544Y-54216976D01*
X2197541Y-54216976D01*
X2197541Y-54216977D01*
X2007364Y-54290651D01*
X2007357Y-54290655D01*
X1833960Y-54398017D01*
X1833958Y-54398019D01*
X1683237Y-54535418D01*
X1560327Y-54698178D01*
X1469422Y-54880739D01*
X1469417Y-54880752D01*
X1413602Y-55076917D01*
X1394785Y-55279999D01*
X1394785Y-55280000D01*
X500Y-55280000D01*
X500Y-50200000D01*
X1394785Y-50200000D01*
X1413602Y-50403082D01*
X1469417Y-50599247D01*
X1469422Y-50599260D01*
X1560327Y-50781821D01*
X1683237Y-50944581D01*
X1833958Y-51081980D01*
X1833960Y-51081982D01*
X1933141Y-51143392D01*
X2007363Y-51189348D01*
X2197544Y-51263024D01*
X2398024Y-51300500D01*
X2398026Y-51300500D01*
X2601974Y-51300500D01*
X2601976Y-51300500D01*
X2802456Y-51263024D01*
X2892556Y-51228118D01*
X2962174Y-51222256D01*
X3023914Y-51254965D01*
X3025027Y-51256064D01*
X3372850Y-51603888D01*
X3388975Y-51623744D01*
X3394913Y-51632832D01*
X3394916Y-51632836D01*
X3405564Y-51641124D01*
X3422925Y-51654636D01*
X3428687Y-51659725D01*
X3431482Y-51662520D01*
X3450495Y-51676094D01*
X3493811Y-51709809D01*
X3493818Y-51709811D01*
X3500720Y-51713547D01*
X3507796Y-51717006D01*
X3507801Y-51717010D01*
X3520737Y-51720861D01*
X3560403Y-51732670D01*
X3612338Y-51750500D01*
X3620072Y-51751790D01*
X3627910Y-51752767D01*
X3627912Y-51752768D01*
X3627913Y-51752767D01*
X3627914Y-51752768D01*
X3682756Y-51750500D01*
X11403196Y-51750500D01*
X11428641Y-51753139D01*
X11432440Y-51753935D01*
X11439268Y-51755367D01*
X11460225Y-51752754D01*
X11474492Y-51750977D01*
X11482168Y-51750500D01*
X11486112Y-51750500D01*
X11486114Y-51750500D01*
X11486116Y-51750499D01*
X11486122Y-51750499D01*
X11501487Y-51747934D01*
X11509140Y-51746657D01*
X11563626Y-51739866D01*
X11563627Y-51739865D01*
X11563629Y-51739865D01*
X11571141Y-51737628D01*
X11578606Y-51735066D01*
X11578606Y-51735065D01*
X11578610Y-51735065D01*
X11626877Y-51708944D01*
X11676211Y-51684826D01*
X11676213Y-51684823D01*
X11682594Y-51680268D01*
X11688819Y-51675422D01*
X11688826Y-51675419D01*
X11726007Y-51635029D01*
X12192355Y-51168681D01*
X12253674Y-51135199D01*
X12263824Y-51133429D01*
X12393709Y-51116330D01*
X12527625Y-51060861D01*
X12642621Y-50972621D01*
X12712399Y-50881683D01*
X12768825Y-50840483D01*
X12838571Y-50836328D01*
X12898454Y-50869491D01*
X13497849Y-51468886D01*
X13513977Y-51488745D01*
X13519916Y-51497836D01*
X13547932Y-51519641D01*
X13553693Y-51524730D01*
X13556482Y-51527519D01*
X13575483Y-51541085D01*
X13618811Y-51574809D01*
X13625722Y-51578549D01*
X13632800Y-51582010D01*
X13685405Y-51597670D01*
X13685405Y-51597671D01*
X13737340Y-51615500D01*
X13737342Y-51615500D01*
X13745079Y-51616791D01*
X13752909Y-51617767D01*
X13752911Y-51617768D01*
X13752912Y-51617767D01*
X13752913Y-51617768D01*
X13807755Y-51615500D01*
X14042974Y-51615500D01*
X14110013Y-51635185D01*
X14118452Y-51641117D01*
X14222375Y-51720861D01*
X14356291Y-51776330D01*
X14483280Y-51793048D01*
X14499999Y-51795250D01*
X14500000Y-51795250D01*
X14500001Y-51795250D01*
X14514977Y-51793278D01*
X14643709Y-51776330D01*
X14777625Y-51720861D01*
X14892621Y-51632621D01*
X14980861Y-51517625D01*
X15036330Y-51383709D01*
X15055250Y-51240000D01*
X15036330Y-51096291D01*
X14980861Y-50962375D01*
X14892621Y-50847379D01*
X14777625Y-50759139D01*
X14777624Y-50759138D01*
X14777622Y-50759137D01*
X14643712Y-50703671D01*
X14643710Y-50703670D01*
X14643709Y-50703670D01*
X14571854Y-50694210D01*
X14500001Y-50684750D01*
X14499999Y-50684750D01*
X14356291Y-50703670D01*
X14356287Y-50703671D01*
X14222377Y-50759137D01*
X14192815Y-50781821D01*
X14118459Y-50838876D01*
X14053291Y-50864070D01*
X14042974Y-50864500D01*
X14006900Y-50864500D01*
X13939861Y-50844815D01*
X13919219Y-50828181D01*
X12994758Y-49903720D01*
X12961273Y-49842397D01*
X12966257Y-49772705D01*
X13006952Y-49717664D01*
X13052621Y-49682621D01*
X13140861Y-49567625D01*
X13196330Y-49433709D01*
X13215250Y-49290000D01*
X13196330Y-49146291D01*
X13140861Y-49012375D01*
X13052621Y-48897379D01*
X12937625Y-48809139D01*
X12937624Y-48809138D01*
X12937622Y-48809137D01*
X12803712Y-48753671D01*
X12803710Y-48753670D01*
X12803709Y-48753670D01*
X12731854Y-48744210D01*
X12660001Y-48734750D01*
X12659999Y-48734750D01*
X12516291Y-48753670D01*
X12516287Y-48753671D01*
X12382377Y-48809137D01*
X12335333Y-48845235D01*
X12278459Y-48888876D01*
X12213291Y-48914070D01*
X12202974Y-48914500D01*
X8538600Y-48914500D01*
X8471561Y-48894815D01*
X8450919Y-48878181D01*
X5729173Y-46156434D01*
X5695688Y-46095111D01*
X5700672Y-46025419D01*
X5733313Y-45977119D01*
X5856764Y-45864579D01*
X5979673Y-45701821D01*
X6070582Y-45519250D01*
X6126397Y-45323083D01*
X6145215Y-45120000D01*
X6135728Y-45017622D01*
X6126397Y-44916917D01*
X6106077Y-44845500D01*
X6070582Y-44720750D01*
X5979673Y-44538179D01*
X5869951Y-44392883D01*
X5856762Y-44375418D01*
X5706041Y-44238019D01*
X5706039Y-44238017D01*
X5532642Y-44130655D01*
X5532635Y-44130651D01*
X5437546Y-44093814D01*
X5342456Y-44056976D01*
X5141976Y-44019500D01*
X4938024Y-44019500D01*
X4737544Y-44056976D01*
X4737541Y-44056976D01*
X4737541Y-44056977D01*
X4547364Y-44130651D01*
X4547357Y-44130655D01*
X4373960Y-44238017D01*
X4373958Y-44238019D01*
X4223237Y-44375418D01*
X4100327Y-44538178D01*
X4009422Y-44720739D01*
X4009417Y-44720752D01*
X3953602Y-44916917D01*
X3934785Y-45119999D01*
X3934785Y-45120000D01*
X3953602Y-45323082D01*
X4009417Y-45519247D01*
X4009422Y-45519260D01*
X4100327Y-45701821D01*
X4114639Y-45720773D01*
X4139331Y-45786134D01*
X4124766Y-45854469D01*
X4075569Y-45904081D01*
X4015685Y-45919500D01*
X3881899Y-45919500D01*
X3814860Y-45899815D01*
X3794218Y-45883181D01*
X3559709Y-45648672D01*
X3526224Y-45587349D01*
X3530666Y-45525234D01*
X3529013Y-45524764D01*
X3546764Y-45462377D01*
X3586397Y-45323083D01*
X3605215Y-45120000D01*
X3595728Y-45017622D01*
X3586397Y-44916917D01*
X3566077Y-44845500D01*
X3530582Y-44720750D01*
X3439673Y-44538179D01*
X3329951Y-44392883D01*
X3316762Y-44375418D01*
X3166041Y-44238019D01*
X3166039Y-44238017D01*
X2992642Y-44130655D01*
X2992635Y-44130651D01*
X2897546Y-44093814D01*
X2802456Y-44056976D01*
X2601976Y-44019500D01*
X2398024Y-44019500D01*
X2197544Y-44056976D01*
X2197541Y-44056976D01*
X2197541Y-44056977D01*
X2007364Y-44130651D01*
X2007357Y-44130655D01*
X1833960Y-44238017D01*
X1833958Y-44238019D01*
X1683237Y-44375418D01*
X1560327Y-44538178D01*
X1469422Y-44720739D01*
X1469417Y-44720752D01*
X1413602Y-44916917D01*
X1394785Y-45119999D01*
X1394785Y-45120000D01*
X1413602Y-45323082D01*
X1469417Y-45519247D01*
X1469422Y-45519260D01*
X1560327Y-45701821D01*
X1683237Y-45864581D01*
X1833958Y-46001980D01*
X1833960Y-46001982D01*
X1913872Y-46051461D01*
X2007363Y-46109348D01*
X2197544Y-46183024D01*
X2398024Y-46220500D01*
X2398026Y-46220500D01*
X2601974Y-46220500D01*
X2601976Y-46220500D01*
X2802456Y-46183024D01*
X2892556Y-46148118D01*
X2962174Y-46142256D01*
X3023914Y-46174965D01*
X3025016Y-46176053D01*
X3201364Y-46352402D01*
X3372850Y-46523888D01*
X3388975Y-46543744D01*
X3394913Y-46552832D01*
X3394916Y-46552836D01*
X3422925Y-46574636D01*
X3428687Y-46579725D01*
X3431482Y-46582520D01*
X3450495Y-46596094D01*
X3493811Y-46629809D01*
X3493818Y-46629811D01*
X3500720Y-46633547D01*
X3507796Y-46637006D01*
X3507801Y-46637010D01*
X3560403Y-46652670D01*
X3612338Y-46670500D01*
X3620072Y-46671790D01*
X3627910Y-46672767D01*
X3627912Y-46672768D01*
X3627913Y-46672767D01*
X3627914Y-46672768D01*
X3682756Y-46670500D01*
X4171821Y-46670500D01*
X4238860Y-46690185D01*
X4284615Y-46742989D01*
X4294559Y-46812147D01*
X4265534Y-46875703D01*
X4255367Y-46886129D01*
X4223239Y-46915418D01*
X4223235Y-46915422D01*
X4100327Y-47078178D01*
X4009422Y-47260739D01*
X4009417Y-47260752D01*
X3953602Y-47456917D01*
X3934785Y-47659999D01*
X3934785Y-47660000D01*
X3953602Y-47863082D01*
X4009417Y-48059247D01*
X4009422Y-48059260D01*
X4100327Y-48241821D01*
X4226691Y-48409154D01*
X4225110Y-48410347D01*
X4251837Y-48465175D01*
X4243637Y-48534562D01*
X4199225Y-48588500D01*
X4132702Y-48609866D01*
X4129582Y-48609905D01*
X4032304Y-48609905D01*
X3965265Y-48590220D01*
X3944623Y-48573586D01*
X3559709Y-48188672D01*
X3526224Y-48127349D01*
X3530666Y-48065234D01*
X3529013Y-48064764D01*
X3547440Y-48000000D01*
X3586397Y-47863083D01*
X3605215Y-47660000D01*
X3586397Y-47456917D01*
X3530582Y-47260750D01*
X3525229Y-47250000D01*
X3453669Y-47106287D01*
X3439673Y-47078179D01*
X3316764Y-46915421D01*
X3316762Y-46915418D01*
X3166041Y-46778019D01*
X3166039Y-46778017D01*
X2992642Y-46670655D01*
X2992635Y-46670651D01*
X2826661Y-46606353D01*
X2802456Y-46596976D01*
X2601976Y-46559500D01*
X2398024Y-46559500D01*
X2197544Y-46596976D01*
X2197541Y-46596976D01*
X2197541Y-46596977D01*
X2007364Y-46670651D01*
X2007357Y-46670655D01*
X1833960Y-46778017D01*
X1833958Y-46778019D01*
X1683237Y-46915418D01*
X1560327Y-47078178D01*
X1469422Y-47260739D01*
X1469417Y-47260752D01*
X1413602Y-47456917D01*
X1394785Y-47659999D01*
X1394785Y-47660000D01*
X1413602Y-47863082D01*
X1469417Y-48059247D01*
X1469422Y-48059260D01*
X1560327Y-48241821D01*
X1683237Y-48404581D01*
X1833958Y-48541980D01*
X1833960Y-48541982D01*
X1855389Y-48555250D01*
X2007363Y-48649348D01*
X2197544Y-48723024D01*
X2398024Y-48760500D01*
X2398026Y-48760500D01*
X2601974Y-48760500D01*
X2601976Y-48760500D01*
X2802456Y-48723024D01*
X2892556Y-48688118D01*
X2962174Y-48682256D01*
X3023914Y-48714965D01*
X3025027Y-48716064D01*
X3523254Y-49214291D01*
X3539383Y-49234152D01*
X3545321Y-49243241D01*
X3573334Y-49265044D01*
X3579096Y-49270133D01*
X3581888Y-49272925D01*
X3600891Y-49286493D01*
X3644216Y-49320214D01*
X3644218Y-49320214D01*
X3651123Y-49323951D01*
X3658201Y-49327411D01*
X3658206Y-49327415D01*
X3710808Y-49343074D01*
X3710808Y-49343075D01*
X3762743Y-49360905D01*
X3770477Y-49362195D01*
X3778315Y-49363172D01*
X3778317Y-49363173D01*
X3778318Y-49363172D01*
X3778319Y-49363173D01*
X3833161Y-49360905D01*
X4045586Y-49360905D01*
X4112625Y-49380590D01*
X4158380Y-49433394D01*
X4168324Y-49502552D01*
X4144540Y-49559630D01*
X4131031Y-49577520D01*
X4100327Y-49618178D01*
X4009422Y-49800739D01*
X4009417Y-49800752D01*
X3953602Y-49996917D01*
X3934785Y-50199999D01*
X3934785Y-50200000D01*
X3953602Y-50403082D01*
X4009417Y-50599247D01*
X4009422Y-50599260D01*
X4100327Y-50781821D01*
X4114639Y-50800773D01*
X4139331Y-50866134D01*
X4124766Y-50934469D01*
X4075569Y-50984081D01*
X4015685Y-50999500D01*
X3881899Y-50999500D01*
X3814860Y-50979815D01*
X3794218Y-50963181D01*
X3559709Y-50728672D01*
X3526224Y-50667349D01*
X3530666Y-50605234D01*
X3529013Y-50604764D01*
X3586397Y-50403082D01*
X3592913Y-50332768D01*
X3605215Y-50200000D01*
X3586397Y-49996917D01*
X3530582Y-49800750D01*
X3516617Y-49772705D01*
X3486272Y-49711764D01*
X3439673Y-49618179D01*
X3316764Y-49455421D01*
X3316762Y-49455418D01*
X3166041Y-49318019D01*
X3166039Y-49318017D01*
X2992642Y-49210655D01*
X2992635Y-49210651D01*
X2826501Y-49146291D01*
X2802456Y-49136976D01*
X2601976Y-49099500D01*
X2398024Y-49099500D01*
X2197544Y-49136976D01*
X2197541Y-49136976D01*
X2197541Y-49136977D01*
X2007364Y-49210651D01*
X2007357Y-49210655D01*
X1833960Y-49318017D01*
X1833958Y-49318019D01*
X1683237Y-49455418D01*
X1560327Y-49618178D01*
X1469422Y-49800739D01*
X1469417Y-49800752D01*
X1413602Y-49996917D01*
X1394785Y-50199999D01*
X1394785Y-50200000D01*
X500Y-50200000D01*
X500Y-42580000D01*
X1394785Y-42580000D01*
X1413602Y-42783082D01*
X1469417Y-42979247D01*
X1469422Y-42979260D01*
X1560327Y-43161821D01*
X1683237Y-43324581D01*
X1833958Y-43461980D01*
X1833960Y-43461982D01*
X1933141Y-43523392D01*
X2007363Y-43569348D01*
X2197544Y-43643024D01*
X2398024Y-43680500D01*
X2398026Y-43680500D01*
X2601974Y-43680500D01*
X2601976Y-43680500D01*
X2802456Y-43643024D01*
X2992637Y-43569348D01*
X3166041Y-43461981D01*
X3316764Y-43324579D01*
X3439673Y-43161821D01*
X3530582Y-42979250D01*
X3586397Y-42783083D01*
X3605215Y-42580000D01*
X3586397Y-42376917D01*
X3530582Y-42180750D01*
X3439673Y-41998179D01*
X3316764Y-41835421D01*
X3316762Y-41835418D01*
X3166041Y-41698019D01*
X3166039Y-41698017D01*
X2992642Y-41590655D01*
X2992635Y-41590651D01*
X2847593Y-41534462D01*
X2802456Y-41516976D01*
X2601976Y-41479500D01*
X2398024Y-41479500D01*
X2197544Y-41516976D01*
X2197541Y-41516976D01*
X2197541Y-41516977D01*
X2007364Y-41590651D01*
X2007357Y-41590655D01*
X1833960Y-41698017D01*
X1833958Y-41698019D01*
X1683237Y-41835418D01*
X1560327Y-41998178D01*
X1469422Y-42180739D01*
X1469417Y-42180752D01*
X1413602Y-42376917D01*
X1394785Y-42579999D01*
X1394785Y-42580000D01*
X500Y-42580000D01*
X500Y-40040000D01*
X1394785Y-40040000D01*
X1413602Y-40243082D01*
X1469417Y-40439247D01*
X1469422Y-40439260D01*
X1560327Y-40621821D01*
X1683237Y-40784581D01*
X1833958Y-40921980D01*
X1833960Y-40921982D01*
X1855389Y-40935250D01*
X2007363Y-41029348D01*
X2197544Y-41103024D01*
X2398024Y-41140500D01*
X2398026Y-41140500D01*
X2601974Y-41140500D01*
X2601976Y-41140500D01*
X2802456Y-41103024D01*
X2992637Y-41029348D01*
X3166041Y-40921981D01*
X3316764Y-40784579D01*
X3439673Y-40621821D01*
X3530582Y-40439250D01*
X3586397Y-40243083D01*
X3605215Y-40040000D01*
X3586397Y-39836917D01*
X3530582Y-39640750D01*
X3524447Y-39628430D01*
X3475496Y-39530122D01*
X3439673Y-39458179D01*
X3316764Y-39295421D01*
X3316762Y-39295418D01*
X3166041Y-39158019D01*
X3166039Y-39158017D01*
X2992642Y-39050655D01*
X2992635Y-39050651D01*
X2848114Y-38994664D01*
X2802456Y-38976976D01*
X2601976Y-38939500D01*
X2398024Y-38939500D01*
X2197544Y-38976976D01*
X2197541Y-38976976D01*
X2197541Y-38976977D01*
X2007364Y-39050651D01*
X2007357Y-39050655D01*
X1833960Y-39158017D01*
X1833958Y-39158019D01*
X1683237Y-39295418D01*
X1560327Y-39458178D01*
X1469422Y-39640739D01*
X1469417Y-39640752D01*
X1413602Y-39836917D01*
X1394785Y-40039999D01*
X1394785Y-40040000D01*
X500Y-40040000D01*
X500Y-37500000D01*
X1394785Y-37500000D01*
X1413602Y-37703082D01*
X1469417Y-37899247D01*
X1469422Y-37899260D01*
X1560327Y-38081821D01*
X1683237Y-38244581D01*
X1833958Y-38381980D01*
X1833960Y-38381982D01*
X1933141Y-38443392D01*
X2007363Y-38489348D01*
X2197544Y-38563024D01*
X2398024Y-38600500D01*
X2398026Y-38600500D01*
X2601974Y-38600500D01*
X2601976Y-38600500D01*
X2802456Y-38563024D01*
X2992637Y-38489348D01*
X3166041Y-38381981D01*
X3294122Y-38265219D01*
X3316762Y-38244581D01*
X3321259Y-38238626D01*
X3439673Y-38081821D01*
X3530582Y-37899250D01*
X3586397Y-37703083D01*
X3605215Y-37500000D01*
X3934785Y-37500000D01*
X3953602Y-37703082D01*
X4009417Y-37899247D01*
X4009422Y-37899260D01*
X4100327Y-38081821D01*
X4223237Y-38244581D01*
X4373958Y-38381980D01*
X4373960Y-38381982D01*
X4473141Y-38443392D01*
X4547363Y-38489348D01*
X4737544Y-38563024D01*
X4938024Y-38600500D01*
X4938026Y-38600500D01*
X5141974Y-38600500D01*
X5141976Y-38600500D01*
X5342456Y-38563024D01*
X5532637Y-38489348D01*
X5706041Y-38381981D01*
X5834122Y-38265219D01*
X5856762Y-38244581D01*
X5861259Y-38238626D01*
X5979673Y-38081821D01*
X6070582Y-37899250D01*
X6126397Y-37703083D01*
X6145215Y-37500000D01*
X6126397Y-37296917D01*
X6070582Y-37100750D01*
X6057333Y-37074143D01*
X6002799Y-36964623D01*
X5979673Y-36918179D01*
X5869598Y-36772416D01*
X5856762Y-36755418D01*
X5706041Y-36618019D01*
X5706039Y-36618017D01*
X5532642Y-36510655D01*
X5532635Y-36510651D01*
X5415306Y-36465198D01*
X5342456Y-36436976D01*
X5141976Y-36399500D01*
X4938024Y-36399500D01*
X4737544Y-36436976D01*
X4737541Y-36436976D01*
X4737541Y-36436977D01*
X4547364Y-36510651D01*
X4547357Y-36510655D01*
X4373960Y-36618017D01*
X4373958Y-36618019D01*
X4223237Y-36755418D01*
X4100327Y-36918178D01*
X4009422Y-37100739D01*
X4009417Y-37100752D01*
X3953602Y-37296917D01*
X3934785Y-37499999D01*
X3934785Y-37500000D01*
X3605215Y-37500000D01*
X3586397Y-37296917D01*
X3530582Y-37100750D01*
X3517333Y-37074143D01*
X3462799Y-36964623D01*
X3439673Y-36918179D01*
X3329598Y-36772416D01*
X3316762Y-36755418D01*
X3166041Y-36618019D01*
X3166039Y-36618017D01*
X2992642Y-36510655D01*
X2992635Y-36510651D01*
X2875306Y-36465198D01*
X2802456Y-36436976D01*
X2601976Y-36399500D01*
X2398024Y-36399500D01*
X2197544Y-36436976D01*
X2197541Y-36436976D01*
X2197541Y-36436977D01*
X2007364Y-36510651D01*
X2007357Y-36510655D01*
X1833960Y-36618017D01*
X1833958Y-36618019D01*
X1683237Y-36755418D01*
X1560327Y-36918178D01*
X1469422Y-37100739D01*
X1469417Y-37100752D01*
X1413602Y-37296917D01*
X1394785Y-37499999D01*
X1394785Y-37500000D01*
X500Y-37500000D01*
X500Y-34960000D01*
X1394785Y-34960000D01*
X1413602Y-35163082D01*
X1469417Y-35359247D01*
X1469422Y-35359260D01*
X1560327Y-35541821D01*
X1683237Y-35704581D01*
X1833958Y-35841980D01*
X1833960Y-35841982D01*
X1933141Y-35903392D01*
X2007363Y-35949348D01*
X2197544Y-36023024D01*
X2398024Y-36060500D01*
X2398026Y-36060500D01*
X2601974Y-36060500D01*
X2601976Y-36060500D01*
X2802456Y-36023024D01*
X2992637Y-35949348D01*
X3166041Y-35841981D01*
X3316764Y-35704579D01*
X3439673Y-35541821D01*
X3530582Y-35359250D01*
X3586397Y-35163083D01*
X3605215Y-34960000D01*
X3586397Y-34756917D01*
X3530582Y-34560750D01*
X3530581Y-34560749D01*
X3529013Y-34555236D01*
X3531001Y-34554670D01*
X3525895Y-34494210D01*
X3558588Y-34432462D01*
X3559545Y-34431491D01*
X3794220Y-34196816D01*
X3855542Y-34163334D01*
X3881900Y-34160500D01*
X4015685Y-34160500D01*
X4082724Y-34180185D01*
X4128479Y-34232989D01*
X4138423Y-34302147D01*
X4114639Y-34359227D01*
X4100327Y-34378178D01*
X4009422Y-34560739D01*
X4009417Y-34560752D01*
X3953602Y-34756917D01*
X3934785Y-34959999D01*
X3934785Y-34960000D01*
X3953602Y-35163082D01*
X4009417Y-35359247D01*
X4009422Y-35359260D01*
X4100327Y-35541821D01*
X4223237Y-35704581D01*
X4373958Y-35841980D01*
X4373960Y-35841982D01*
X4473141Y-35903392D01*
X4547363Y-35949348D01*
X4737544Y-36023024D01*
X4938024Y-36060500D01*
X4938026Y-36060500D01*
X5141974Y-36060500D01*
X5141976Y-36060500D01*
X5342456Y-36023024D01*
X5432556Y-35988118D01*
X5502174Y-35982256D01*
X5563914Y-36014965D01*
X5565027Y-36016064D01*
X6668181Y-37119218D01*
X6701666Y-37180541D01*
X6704500Y-37206899D01*
X6704500Y-41610216D01*
X6684815Y-41677255D01*
X6632011Y-41723010D01*
X6562853Y-41732954D01*
X6499297Y-41703929D01*
X6492819Y-41697897D01*
X5803551Y-41008629D01*
X5770066Y-40947306D01*
X5775050Y-40877614D01*
X5807691Y-40829314D01*
X5856764Y-40784579D01*
X5979673Y-40621821D01*
X6070582Y-40439250D01*
X6126397Y-40243083D01*
X6145215Y-40040000D01*
X6126397Y-39836917D01*
X6070582Y-39640750D01*
X6064447Y-39628430D01*
X6015496Y-39530122D01*
X5979673Y-39458179D01*
X5856764Y-39295421D01*
X5856762Y-39295418D01*
X5706041Y-39158019D01*
X5706039Y-39158017D01*
X5532642Y-39050655D01*
X5532635Y-39050651D01*
X5388114Y-38994664D01*
X5342456Y-38976976D01*
X5141976Y-38939500D01*
X4938024Y-38939500D01*
X4737544Y-38976976D01*
X4737541Y-38976976D01*
X4737541Y-38976977D01*
X4547364Y-39050651D01*
X4547357Y-39050655D01*
X4373960Y-39158017D01*
X4373958Y-39158019D01*
X4223237Y-39295418D01*
X4100327Y-39458178D01*
X4009422Y-39640739D01*
X4009417Y-39640752D01*
X3953602Y-39836917D01*
X3934785Y-40039999D01*
X3934785Y-40040000D01*
X3953602Y-40243082D01*
X4009417Y-40439247D01*
X4009422Y-40439260D01*
X4100327Y-40621821D01*
X4223237Y-40784581D01*
X4373958Y-40921980D01*
X4373960Y-40921982D01*
X4395389Y-40935250D01*
X4547363Y-41029348D01*
X4737544Y-41103024D01*
X4820734Y-41118574D01*
X4883014Y-41150242D01*
X4885629Y-41152782D01*
X5002799Y-41269952D01*
X5036284Y-41331275D01*
X5031300Y-41400967D01*
X4989428Y-41456900D01*
X4937904Y-41479522D01*
X4811434Y-41503163D01*
X4737544Y-41516976D01*
X4737542Y-41516976D01*
X4737540Y-41516977D01*
X4547364Y-41590651D01*
X4547357Y-41590655D01*
X4373960Y-41698017D01*
X4373958Y-41698019D01*
X4223237Y-41835418D01*
X4100327Y-41998178D01*
X4009422Y-42180739D01*
X4009417Y-42180752D01*
X3953602Y-42376917D01*
X3934785Y-42579999D01*
X3934785Y-42580000D01*
X3953602Y-42783082D01*
X4009417Y-42979247D01*
X4009422Y-42979260D01*
X4100327Y-43161821D01*
X4223237Y-43324581D01*
X4373958Y-43461980D01*
X4373960Y-43461982D01*
X4473141Y-43523392D01*
X4547363Y-43569348D01*
X4737544Y-43643024D01*
X4938024Y-43680500D01*
X4938026Y-43680500D01*
X5141974Y-43680500D01*
X5141976Y-43680500D01*
X5342456Y-43643024D01*
X5432556Y-43608118D01*
X5502174Y-43602256D01*
X5563914Y-43634965D01*
X5565027Y-43636064D01*
X6462940Y-44533977D01*
X6496425Y-44595300D01*
X6498198Y-44637842D01*
X6484750Y-44739996D01*
X6484750Y-44739999D01*
X6484750Y-44740000D01*
X6498639Y-44845499D01*
X6503670Y-44883708D01*
X6503671Y-44883712D01*
X6559137Y-45017622D01*
X6559138Y-45017624D01*
X6559139Y-45017625D01*
X6647379Y-45132621D01*
X6762375Y-45220861D01*
X6896291Y-45276330D01*
X7023280Y-45293048D01*
X7039999Y-45295250D01*
X7040000Y-45295250D01*
X7040001Y-45295250D01*
X7054977Y-45293278D01*
X7183709Y-45276330D01*
X7317625Y-45220861D01*
X7432621Y-45132621D01*
X7520861Y-45017625D01*
X7576330Y-44883709D01*
X7595250Y-44740000D01*
X7595249Y-44739996D01*
X7581800Y-44637842D01*
X7576330Y-44596291D01*
X7520861Y-44462375D01*
X7432621Y-44347379D01*
X7317625Y-44259139D01*
X7317623Y-44259138D01*
X7225269Y-44220884D01*
X7185041Y-44194004D01*
X6099710Y-43108672D01*
X6066225Y-43047349D01*
X6070667Y-42985234D01*
X6069013Y-42984764D01*
X6082456Y-42937516D01*
X6126397Y-42783083D01*
X6135059Y-42689600D01*
X6160843Y-42624667D01*
X6217643Y-42583978D01*
X6287424Y-42580458D01*
X6346210Y-42613363D01*
X10888431Y-47155584D01*
X10921916Y-47216907D01*
X10924750Y-47243265D01*
X10924750Y-47250000D01*
X10943670Y-47393708D01*
X10943671Y-47393712D01*
X10999137Y-47527622D01*
X10999138Y-47527624D01*
X10999139Y-47527625D01*
X11087379Y-47642621D01*
X11202375Y-47730861D01*
X11336291Y-47786330D01*
X11463280Y-47803048D01*
X11479999Y-47805250D01*
X11480000Y-47805250D01*
X11480001Y-47805250D01*
X11494977Y-47803278D01*
X11623709Y-47786330D01*
X11757625Y-47730861D01*
X11872621Y-47642621D01*
X11960861Y-47527625D01*
X12016330Y-47393709D01*
X12035250Y-47250000D01*
X12016330Y-47106291D01*
X11960861Y-46972375D01*
X11872621Y-46857379D01*
X11757625Y-46769139D01*
X11757624Y-46769138D01*
X11757622Y-46769137D01*
X11623712Y-46713671D01*
X11623710Y-46713670D01*
X11623709Y-46713670D01*
X11573139Y-46707012D01*
X11532869Y-46701710D01*
X11468972Y-46673443D01*
X11461374Y-46666452D01*
X11199056Y-46404134D01*
X11165571Y-46342811D01*
X11170555Y-46273119D01*
X11211248Y-46218080D01*
X11322621Y-46132621D01*
X11410861Y-46017625D01*
X11466330Y-45883709D01*
X11485250Y-45740000D01*
X11466330Y-45596291D01*
X11410861Y-45462375D01*
X11322621Y-45347379D01*
X11207625Y-45259139D01*
X11207624Y-45259138D01*
X11207622Y-45259137D01*
X11066201Y-45200560D01*
X11067242Y-45198045D01*
X11024257Y-45173220D01*
X7491819Y-41640781D01*
X7458334Y-41579458D01*
X7455500Y-41553100D01*
X7455500Y-38407157D01*
X7475185Y-38340118D01*
X7527989Y-38294363D01*
X7597147Y-38284419D01*
X7660703Y-38313444D01*
X7683633Y-38343251D01*
X7684201Y-38342846D01*
X7694742Y-38357609D01*
X7699582Y-38363827D01*
X7739970Y-38401008D01*
X8458181Y-39119218D01*
X8491666Y-39180541D01*
X8494500Y-39206899D01*
X8494500Y-41638196D01*
X8491862Y-41663634D01*
X8489633Y-41674268D01*
X8489633Y-41674269D01*
X8489633Y-41674271D01*
X8494023Y-41709491D01*
X8494500Y-41717167D01*
X8494500Y-41721116D01*
X8498342Y-41744141D01*
X8505134Y-41798627D01*
X8507373Y-41806147D01*
X8509934Y-41813608D01*
X8509935Y-41813610D01*
X8510222Y-41814140D01*
X8536055Y-41861877D01*
X8560174Y-41911211D01*
X8564742Y-41917609D01*
X8569582Y-41923827D01*
X8609971Y-41961009D01*
X13348181Y-46699218D01*
X13381666Y-46760541D01*
X13384500Y-46786899D01*
X13384500Y-47542974D01*
X13364815Y-47610013D01*
X13358882Y-47618452D01*
X13340337Y-47642621D01*
X13279137Y-47722377D01*
X13223671Y-47856287D01*
X13223670Y-47856291D01*
X13204750Y-47999999D01*
X13204750Y-48000000D01*
X13223670Y-48143708D01*
X13223671Y-48143712D01*
X13279137Y-48277622D01*
X13279138Y-48277624D01*
X13279139Y-48277625D01*
X13367379Y-48392621D01*
X13482375Y-48480861D01*
X13616291Y-48536330D01*
X13743280Y-48553048D01*
X13759999Y-48555250D01*
X13760000Y-48555250D01*
X13760001Y-48555250D01*
X13774977Y-48553278D01*
X13903709Y-48536330D01*
X14037625Y-48480861D01*
X14152621Y-48392621D01*
X14240861Y-48277625D01*
X14296330Y-48143709D01*
X14315250Y-48000000D01*
X14296330Y-47856291D01*
X14240861Y-47722375D01*
X14240860Y-47722374D01*
X14240860Y-47722373D01*
X14179663Y-47642621D01*
X14161123Y-47618459D01*
X14135929Y-47553292D01*
X14135500Y-47542997D01*
X14135500Y-46631793D01*
X14138138Y-46606359D01*
X14140367Y-46595731D01*
X14138032Y-46577000D01*
X14135977Y-46560508D01*
X14135500Y-46552832D01*
X14135500Y-46548889D01*
X14135499Y-46548883D01*
X14134641Y-46543744D01*
X14131655Y-46525847D01*
X14124865Y-46471374D01*
X14124865Y-46471373D01*
X14122617Y-46463827D01*
X14120065Y-46456390D01*
X14093942Y-46408119D01*
X14091994Y-46404134D01*
X14069826Y-46358788D01*
X14069823Y-46358785D01*
X14069823Y-46358784D01*
X14065267Y-46352402D01*
X14060423Y-46346178D01*
X14060419Y-46346174D01*
X14020041Y-46309003D01*
X12103908Y-44392870D01*
X82967000Y-44392870D01*
X82967001Y-44392876D01*
X82973408Y-44452483D01*
X83023702Y-44587328D01*
X83023706Y-44587335D01*
X83109952Y-44702544D01*
X83109955Y-44702547D01*
X83225164Y-44788793D01*
X83225171Y-44788797D01*
X83360017Y-44839091D01*
X83360016Y-44839091D01*
X83366944Y-44839835D01*
X83419627Y-44845500D01*
X86615372Y-44845499D01*
X86674983Y-44839091D01*
X86809831Y-44788796D01*
X86925046Y-44702546D01*
X87011296Y-44587331D01*
X87061591Y-44452483D01*
X87068000Y-44392873D01*
X87067999Y-42997128D01*
X87061591Y-42937517D01*
X87011296Y-42802669D01*
X87011295Y-42802668D01*
X87011293Y-42802664D01*
X86925047Y-42687455D01*
X86925044Y-42687452D01*
X86809835Y-42601206D01*
X86809828Y-42601202D01*
X86674982Y-42550908D01*
X86674983Y-42550908D01*
X86615383Y-42544501D01*
X86615381Y-42544500D01*
X86615373Y-42544500D01*
X86615364Y-42544500D01*
X83419629Y-42544500D01*
X83419623Y-42544501D01*
X83360016Y-42550908D01*
X83225171Y-42601202D01*
X83225164Y-42601206D01*
X83109955Y-42687452D01*
X83109952Y-42687455D01*
X83023706Y-42802664D01*
X83023702Y-42802671D01*
X82973408Y-42937517D01*
X82967001Y-42997116D01*
X82967001Y-42997123D01*
X82967000Y-42997135D01*
X82967000Y-44392870D01*
X12103908Y-44392870D01*
X10494119Y-42783081D01*
X9281819Y-41570780D01*
X9248334Y-41509457D01*
X9245500Y-41483099D01*
X9245500Y-39252500D01*
X16927250Y-39252500D01*
X16946170Y-39396208D01*
X16946171Y-39396212D01*
X17001637Y-39530122D01*
X17001638Y-39530124D01*
X17001639Y-39530125D01*
X17089879Y-39645121D01*
X17204875Y-39733361D01*
X17338791Y-39788830D01*
X17465780Y-39805548D01*
X17482499Y-39807750D01*
X17482500Y-39807750D01*
X17482501Y-39807750D01*
X17497477Y-39805778D01*
X17626209Y-39788830D01*
X17760125Y-39733361D01*
X17864040Y-39653623D01*
X17929209Y-39628430D01*
X17939526Y-39628000D01*
X31335601Y-39628000D01*
X31402640Y-39647685D01*
X31423282Y-39664319D01*
X32081314Y-40322352D01*
X32114799Y-40383675D01*
X32116572Y-40393846D01*
X32133670Y-40523708D01*
X32133671Y-40523712D01*
X32189137Y-40657622D01*
X32189138Y-40657624D01*
X32189139Y-40657625D01*
X32277379Y-40772621D01*
X32392375Y-40860861D01*
X32526291Y-40916330D01*
X32653280Y-40933048D01*
X32669999Y-40935250D01*
X32670000Y-40935250D01*
X32670001Y-40935250D01*
X32684977Y-40933278D01*
X32813709Y-40916330D01*
X32947625Y-40860861D01*
X33062621Y-40772621D01*
X33150861Y-40657625D01*
X33206330Y-40523709D01*
X33223427Y-40393844D01*
X33251694Y-40329949D01*
X33258673Y-40322362D01*
X33308889Y-40272146D01*
X33328746Y-40256022D01*
X33337836Y-40250084D01*
X33359651Y-40222054D01*
X33364719Y-40216316D01*
X33367520Y-40213517D01*
X33381088Y-40194513D01*
X33414809Y-40151189D01*
X33414810Y-40151183D01*
X33418543Y-40144287D01*
X33422006Y-40137203D01*
X33422010Y-40137199D01*
X33437673Y-40084587D01*
X33455500Y-40032660D01*
X33455500Y-40032655D01*
X33456795Y-40024895D01*
X33457769Y-40017086D01*
X33455500Y-39962231D01*
X33455500Y-38637026D01*
X33475185Y-38569987D01*
X33481117Y-38561547D01*
X33560861Y-38457625D01*
X33616330Y-38323709D01*
X33635250Y-38180000D01*
X33616330Y-38036291D01*
X33570783Y-37926328D01*
X33560862Y-37902377D01*
X33560861Y-37902376D01*
X33560861Y-37902375D01*
X33472621Y-37787379D01*
X33357625Y-37699139D01*
X33357624Y-37699138D01*
X33357622Y-37699137D01*
X33223712Y-37643671D01*
X33223710Y-37643670D01*
X33223709Y-37643670D01*
X33151854Y-37634210D01*
X33080001Y-37624750D01*
X33079999Y-37624750D01*
X32936291Y-37643670D01*
X32936287Y-37643671D01*
X32802377Y-37699137D01*
X32687379Y-37787379D01*
X32599137Y-37902377D01*
X32543671Y-38036287D01*
X32543670Y-38036291D01*
X32524750Y-38180000D01*
X32539806Y-38294363D01*
X32543670Y-38323708D01*
X32543671Y-38323712D01*
X32599137Y-38457622D01*
X32599138Y-38457624D01*
X32599139Y-38457625D01*
X32678876Y-38561540D01*
X32704070Y-38626709D01*
X32704500Y-38637026D01*
X32704500Y-39584099D01*
X32684815Y-39651138D01*
X32632011Y-39696893D01*
X32562853Y-39706837D01*
X32499297Y-39677812D01*
X32492819Y-39671780D01*
X31844649Y-39023611D01*
X31828522Y-39003752D01*
X31822586Y-38994667D01*
X31822583Y-38994663D01*
X31799860Y-38976977D01*
X31794572Y-38972861D01*
X31788810Y-38967772D01*
X31786015Y-38964977D01*
X31767005Y-38951406D01*
X31723689Y-38917690D01*
X31716774Y-38913948D01*
X31709700Y-38910490D01*
X31657096Y-38894829D01*
X31605158Y-38876999D01*
X31597423Y-38875708D01*
X31589585Y-38874731D01*
X31534744Y-38877000D01*
X17939526Y-38877000D01*
X17872487Y-38857315D01*
X17864047Y-38851382D01*
X17760125Y-38771639D01*
X17760124Y-38771638D01*
X17760122Y-38771637D01*
X17626212Y-38716171D01*
X17626210Y-38716170D01*
X17626209Y-38716170D01*
X17554354Y-38706709D01*
X17482501Y-38697250D01*
X17482499Y-38697250D01*
X17338791Y-38716170D01*
X17338787Y-38716171D01*
X17204877Y-38771637D01*
X17089879Y-38859879D01*
X17001637Y-38974877D01*
X16946171Y-39108787D01*
X16946170Y-39108791D01*
X16927250Y-39252499D01*
X16927250Y-39252500D01*
X9245500Y-39252500D01*
X9245500Y-39051803D01*
X9248139Y-39026358D01*
X9248715Y-39023611D01*
X9250367Y-39015732D01*
X9247741Y-38994663D01*
X9245977Y-38980507D01*
X9245500Y-38972831D01*
X9245500Y-38968889D01*
X9245498Y-38968876D01*
X9244847Y-38964977D01*
X9241657Y-38945859D01*
X9234866Y-38891374D01*
X9234864Y-38891370D01*
X9232622Y-38883840D01*
X9230065Y-38876392D01*
X9230065Y-38876390D01*
X9203944Y-38828122D01*
X9179826Y-38778789D01*
X9179824Y-38778787D01*
X9179824Y-38778786D01*
X9175276Y-38772416D01*
X9170420Y-38766176D01*
X9170419Y-38766174D01*
X9130029Y-38728992D01*
X8411816Y-38010778D01*
X8378333Y-37949458D01*
X8375499Y-37923109D01*
X8375499Y-37420000D01*
X17109750Y-37420000D01*
X17128670Y-37563708D01*
X17128671Y-37563712D01*
X17184137Y-37697622D01*
X17184138Y-37697624D01*
X17184139Y-37697625D01*
X17272379Y-37812621D01*
X17387375Y-37900861D01*
X17521291Y-37956330D01*
X17648149Y-37973031D01*
X17708128Y-37998119D01*
X17722930Y-38009640D01*
X17728685Y-38014722D01*
X17731482Y-38017519D01*
X17750483Y-38031085D01*
X17757172Y-38036291D01*
X17793811Y-38064809D01*
X17800722Y-38068549D01*
X17807800Y-38072010D01*
X17840755Y-38081821D01*
X17860405Y-38087671D01*
X17912340Y-38105500D01*
X17912342Y-38105500D01*
X17920079Y-38106791D01*
X17927909Y-38107767D01*
X17927911Y-38107768D01*
X17927912Y-38107767D01*
X17927913Y-38107768D01*
X17982755Y-38105500D01*
X26002974Y-38105500D01*
X26070013Y-38125185D01*
X26078452Y-38131117D01*
X26182375Y-38210861D01*
X26316291Y-38266330D01*
X26443280Y-38283048D01*
X26459999Y-38285250D01*
X26460000Y-38285250D01*
X26460001Y-38285250D01*
X26474977Y-38283278D01*
X26603709Y-38266330D01*
X26737625Y-38210861D01*
X26852621Y-38122621D01*
X26940861Y-38007625D01*
X26996330Y-37873709D01*
X27015250Y-37730000D01*
X26996330Y-37586291D01*
X26940861Y-37452375D01*
X26892999Y-37390000D01*
X50434750Y-37390000D01*
X50453670Y-37533708D01*
X50453671Y-37533712D01*
X50509137Y-37667622D01*
X50509138Y-37667624D01*
X50509139Y-37667625D01*
X50597379Y-37782621D01*
X50712375Y-37870861D01*
X50712376Y-37870861D01*
X50712377Y-37870862D01*
X50719258Y-37873712D01*
X50846291Y-37926330D01*
X50973280Y-37943048D01*
X50989999Y-37945250D01*
X50990000Y-37945250D01*
X50990001Y-37945250D01*
X51025927Y-37940520D01*
X51133709Y-37926330D01*
X51197427Y-37899937D01*
X51244876Y-37890500D01*
X52711324Y-37890500D01*
X52778363Y-37910185D01*
X52799005Y-37926819D01*
X57175866Y-42303679D01*
X57202746Y-42343907D01*
X57229139Y-42407625D01*
X57317379Y-42522621D01*
X57432375Y-42610861D01*
X57566291Y-42666330D01*
X57693280Y-42683048D01*
X57709999Y-42685250D01*
X57710000Y-42685250D01*
X57710001Y-42685250D01*
X57724977Y-42683278D01*
X57853709Y-42666330D01*
X57987625Y-42610861D01*
X58102621Y-42522621D01*
X58190861Y-42407625D01*
X58246330Y-42273709D01*
X58265250Y-42130000D01*
X58246330Y-41986291D01*
X58190861Y-41852375D01*
X58102621Y-41737379D01*
X57987625Y-41649139D01*
X57967447Y-41640781D01*
X57923907Y-41622746D01*
X57883679Y-41595866D01*
X53371385Y-37083571D01*
X53354750Y-37062928D01*
X53352145Y-37058874D01*
X53352142Y-37058871D01*
X53345147Y-37052810D01*
X53312932Y-37024896D01*
X53309700Y-37021886D01*
X53298596Y-37010782D01*
X53298588Y-37010775D01*
X53286013Y-37001362D01*
X53282583Y-36998598D01*
X53243373Y-36964623D01*
X53243371Y-36964622D01*
X53243367Y-36964619D01*
X53238983Y-36962617D01*
X53216194Y-36949096D01*
X53212331Y-36946204D01*
X53212329Y-36946203D01*
X53163716Y-36928071D01*
X53159642Y-36926383D01*
X53112457Y-36904835D01*
X53112455Y-36904834D01*
X53107682Y-36904148D01*
X53082000Y-36897593D01*
X53077485Y-36895909D01*
X53025740Y-36892207D01*
X53021343Y-36891734D01*
X53005799Y-36889500D01*
X52990094Y-36889500D01*
X52985671Y-36889342D01*
X52968083Y-36888084D01*
X52933929Y-36885641D01*
X52933925Y-36885641D01*
X52929215Y-36886666D01*
X52902857Y-36889500D01*
X51244876Y-36889500D01*
X51197427Y-36880062D01*
X51133709Y-36853670D01*
X51133708Y-36853669D01*
X51133706Y-36853669D01*
X50990001Y-36834750D01*
X50989999Y-36834750D01*
X50846291Y-36853670D01*
X50846287Y-36853671D01*
X50712377Y-36909137D01*
X50597379Y-36997379D01*
X50509137Y-37112377D01*
X50453671Y-37246287D01*
X50453670Y-37246291D01*
X50434750Y-37389999D01*
X50434750Y-37390000D01*
X26892999Y-37390000D01*
X26852621Y-37337379D01*
X26737625Y-37249139D01*
X26737624Y-37249138D01*
X26737622Y-37249137D01*
X26603712Y-37193671D01*
X26603710Y-37193670D01*
X26603709Y-37193670D01*
X26531854Y-37184210D01*
X26460001Y-37174750D01*
X26459999Y-37174750D01*
X26316291Y-37193670D01*
X26316287Y-37193671D01*
X26182377Y-37249137D01*
X26146995Y-37276287D01*
X26078459Y-37328876D01*
X26013291Y-37354070D01*
X26002974Y-37354500D01*
X18316579Y-37354500D01*
X18249540Y-37334815D01*
X18203785Y-37282011D01*
X18202018Y-37277952D01*
X18145862Y-37142377D01*
X18145861Y-37142376D01*
X18145861Y-37142375D01*
X18057621Y-37027379D01*
X17942625Y-36939139D01*
X17942624Y-36939138D01*
X17942622Y-36939137D01*
X17808712Y-36883671D01*
X17808710Y-36883670D01*
X17808709Y-36883670D01*
X17736854Y-36874210D01*
X17665001Y-36864750D01*
X17664999Y-36864750D01*
X17521291Y-36883670D01*
X17521287Y-36883671D01*
X17387377Y-36939137D01*
X17272379Y-37027379D01*
X17184137Y-37142377D01*
X17128671Y-37276287D01*
X17128670Y-37276291D01*
X17109750Y-37419999D01*
X17109750Y-37420000D01*
X8375499Y-37420000D01*
X8375499Y-36310105D01*
X8378139Y-36284654D01*
X8380367Y-36274030D01*
X8380367Y-36274029D01*
X8375977Y-36238805D01*
X8375500Y-36231129D01*
X8375500Y-36227188D01*
X8375498Y-36227175D01*
X8371657Y-36204158D01*
X8364866Y-36149675D01*
X8364866Y-36149673D01*
X8364864Y-36149669D01*
X8362622Y-36142139D01*
X8360065Y-36134691D01*
X8360065Y-36134689D01*
X8333944Y-36086421D01*
X8309826Y-36037088D01*
X8309824Y-36037086D01*
X8309824Y-36037085D01*
X8305276Y-36030715D01*
X8300420Y-36024475D01*
X8300419Y-36024473D01*
X8291284Y-36016064D01*
X8260030Y-35987292D01*
X5915609Y-33642870D01*
X83017000Y-33642870D01*
X83017001Y-33642876D01*
X83023408Y-33702483D01*
X83073702Y-33837328D01*
X83073706Y-33837335D01*
X83159952Y-33952544D01*
X83159955Y-33952547D01*
X83275164Y-34038793D01*
X83275171Y-34038797D01*
X83410017Y-34089091D01*
X83410016Y-34089091D01*
X83416944Y-34089835D01*
X83469627Y-34095500D01*
X86665372Y-34095499D01*
X86724983Y-34089091D01*
X86859831Y-34038796D01*
X86975046Y-33952546D01*
X87061296Y-33837331D01*
X87111591Y-33702483D01*
X87118000Y-33642873D01*
X87117999Y-32247128D01*
X87111591Y-32187517D01*
X87061296Y-32052669D01*
X87061295Y-32052668D01*
X87061293Y-32052664D01*
X86975047Y-31937455D01*
X86975044Y-31937452D01*
X86859835Y-31851206D01*
X86859828Y-31851202D01*
X86724982Y-31800908D01*
X86724983Y-31800908D01*
X86665383Y-31794501D01*
X86665381Y-31794500D01*
X86665373Y-31794500D01*
X86665364Y-31794500D01*
X83469629Y-31794500D01*
X83469623Y-31794501D01*
X83410016Y-31800908D01*
X83275171Y-31851202D01*
X83275164Y-31851206D01*
X83159955Y-31937452D01*
X83159952Y-31937455D01*
X83073706Y-32052664D01*
X83073702Y-32052671D01*
X83023408Y-32187517D01*
X83017001Y-32247116D01*
X83017001Y-32247123D01*
X83017000Y-32247135D01*
X83017000Y-33642870D01*
X5915609Y-33642870D01*
X5828850Y-33556111D01*
X5812723Y-33536252D01*
X5806787Y-33527167D01*
X5806784Y-33527163D01*
X5778775Y-33505363D01*
X5773011Y-33500272D01*
X5770216Y-33497477D01*
X5751206Y-33483906D01*
X5750070Y-33483022D01*
X5739984Y-33475171D01*
X5735295Y-33471521D01*
X5694483Y-33414810D01*
X5690811Y-33345037D01*
X5725444Y-33284354D01*
X5727848Y-33282100D01*
X5856764Y-33164579D01*
X5979673Y-33001821D01*
X6070582Y-32819250D01*
X6126397Y-32623083D01*
X6145215Y-32420000D01*
X6129196Y-32247129D01*
X6126397Y-32216917D01*
X6079664Y-32052671D01*
X6070582Y-32020750D01*
X5979673Y-31838179D01*
X5887656Y-31716329D01*
X5856762Y-31675418D01*
X5706041Y-31538019D01*
X5706039Y-31538017D01*
X5532642Y-31430655D01*
X5532635Y-31430651D01*
X5378974Y-31371123D01*
X5342456Y-31356976D01*
X5141976Y-31319500D01*
X4938024Y-31319500D01*
X4737544Y-31356976D01*
X4737541Y-31356976D01*
X4737541Y-31356977D01*
X4547364Y-31430651D01*
X4547357Y-31430655D01*
X4373960Y-31538017D01*
X4373958Y-31538019D01*
X4223237Y-31675418D01*
X4100327Y-31838178D01*
X4009422Y-32020739D01*
X4009417Y-32020752D01*
X3953602Y-32216917D01*
X3934785Y-32419999D01*
X3934785Y-32420000D01*
X3953602Y-32623082D01*
X4009417Y-32819247D01*
X4009422Y-32819260D01*
X4100327Y-33001821D01*
X4223236Y-33164579D01*
X4255360Y-33193864D01*
X4291640Y-33253573D01*
X4289880Y-33323421D01*
X4250637Y-33381229D01*
X4186371Y-33408643D01*
X4171821Y-33409500D01*
X3726804Y-33409500D01*
X3701359Y-33406861D01*
X3690733Y-33404633D01*
X3690730Y-33404633D01*
X3655508Y-33409023D01*
X3647832Y-33409500D01*
X3643886Y-33409500D01*
X3626615Y-33412381D01*
X3620858Y-33413342D01*
X3566370Y-33420134D01*
X3558857Y-33422371D01*
X3551387Y-33424936D01*
X3503122Y-33451055D01*
X3453792Y-33475171D01*
X3447375Y-33479753D01*
X3441175Y-33484579D01*
X3403992Y-33524970D01*
X3025028Y-33903933D01*
X2963705Y-33937418D01*
X2894013Y-33932434D01*
X2892554Y-33931879D01*
X2802461Y-33896977D01*
X2802456Y-33896976D01*
X2601976Y-33859500D01*
X2398024Y-33859500D01*
X2197544Y-33896976D01*
X2197541Y-33896976D01*
X2197541Y-33896977D01*
X2007364Y-33970651D01*
X2007357Y-33970655D01*
X1833960Y-34078017D01*
X1833958Y-34078019D01*
X1683237Y-34215418D01*
X1560327Y-34378178D01*
X1469422Y-34560739D01*
X1469417Y-34560752D01*
X1413602Y-34756917D01*
X1394785Y-34959999D01*
X1394785Y-34960000D01*
X500Y-34960000D01*
X500Y-32420000D01*
X1394785Y-32420000D01*
X1413602Y-32623082D01*
X1469417Y-32819247D01*
X1469422Y-32819260D01*
X1560327Y-33001821D01*
X1683237Y-33164581D01*
X1833958Y-33301980D01*
X1833960Y-33301982D01*
X1903497Y-33345037D01*
X2007363Y-33409348D01*
X2197544Y-33483024D01*
X2398024Y-33520500D01*
X2398026Y-33520500D01*
X2601974Y-33520500D01*
X2601976Y-33520500D01*
X2802456Y-33483024D01*
X2992637Y-33409348D01*
X3166041Y-33301981D01*
X3316764Y-33164579D01*
X3439673Y-33001821D01*
X3530582Y-32819250D01*
X3586397Y-32623083D01*
X3605215Y-32420000D01*
X3589196Y-32247129D01*
X3586397Y-32216917D01*
X3539664Y-32052671D01*
X3530582Y-32020750D01*
X3439673Y-31838179D01*
X3347656Y-31716329D01*
X3316762Y-31675418D01*
X3166041Y-31538019D01*
X3166039Y-31538017D01*
X2992642Y-31430655D01*
X2992635Y-31430651D01*
X2838974Y-31371123D01*
X2802456Y-31356976D01*
X2601976Y-31319500D01*
X2398024Y-31319500D01*
X2197544Y-31356976D01*
X2197541Y-31356976D01*
X2197541Y-31356977D01*
X2007364Y-31430651D01*
X2007357Y-31430655D01*
X1833960Y-31538017D01*
X1833958Y-31538019D01*
X1683237Y-31675418D01*
X1560327Y-31838178D01*
X1469422Y-32020739D01*
X1469417Y-32020752D01*
X1413602Y-32216917D01*
X1394785Y-32419999D01*
X1394785Y-32420000D01*
X500Y-32420000D01*
X500Y-30040000D01*
X7844750Y-30040000D01*
X7863670Y-30183708D01*
X7863671Y-30183712D01*
X7919137Y-30317622D01*
X7919138Y-30317624D01*
X7919139Y-30317625D01*
X8007379Y-30432621D01*
X8122375Y-30520861D01*
X8122376Y-30520861D01*
X8122377Y-30520862D01*
X8167013Y-30539350D01*
X8256291Y-30576330D01*
X8400000Y-30595250D01*
X8442256Y-30589686D01*
X8511287Y-30600450D01*
X8563544Y-30646829D01*
X8582431Y-30714097D01*
X8561952Y-30780898D01*
X8556816Y-30788111D01*
X8469139Y-30902374D01*
X8469138Y-30902376D01*
X8413671Y-31036287D01*
X8413670Y-31036291D01*
X8394750Y-31179999D01*
X8394750Y-31180000D01*
X8413670Y-31323708D01*
X8413671Y-31323712D01*
X8469137Y-31457622D01*
X8469138Y-31457624D01*
X8469139Y-31457625D01*
X8557379Y-31572621D01*
X8672375Y-31660861D01*
X8806291Y-31716330D01*
X8933280Y-31733048D01*
X8949999Y-31735250D01*
X8950000Y-31735250D01*
X8950001Y-31735250D01*
X8964977Y-31733278D01*
X9093709Y-31716330D01*
X9227625Y-31660861D01*
X9342621Y-31572621D01*
X9430861Y-31457625D01*
X9457252Y-31393907D01*
X9484129Y-31353683D01*
X10012094Y-30825718D01*
X10052316Y-30798842D01*
X10116036Y-30772450D01*
X10231032Y-30684210D01*
X10299486Y-30595000D01*
X44839750Y-30595000D01*
X44853460Y-30699139D01*
X44858670Y-30738708D01*
X44858671Y-30738712D01*
X44914137Y-30872622D01*
X44914138Y-30872624D01*
X44914139Y-30872625D01*
X45002379Y-30987621D01*
X45117375Y-31075861D01*
X45251291Y-31131330D01*
X45378280Y-31148048D01*
X45394999Y-31150250D01*
X45395000Y-31150250D01*
X45395001Y-31150250D01*
X45409977Y-31148278D01*
X45538709Y-31131330D01*
X45672625Y-31075861D01*
X45787621Y-30987621D01*
X45875861Y-30872625D01*
X45931330Y-30738709D01*
X45950250Y-30595000D01*
X45949550Y-30589686D01*
X45943943Y-30547096D01*
X45931330Y-30451291D01*
X45904937Y-30387572D01*
X45895500Y-30340124D01*
X45895500Y-29551610D01*
X83017000Y-29551610D01*
X83056179Y-29761198D01*
X83133202Y-29960019D01*
X83245448Y-30141302D01*
X83353650Y-30259993D01*
X83389093Y-30298872D01*
X83559246Y-30427367D01*
X83750106Y-30522403D01*
X83750108Y-30522403D01*
X83750111Y-30522405D01*
X83955190Y-30580756D01*
X84114306Y-30595500D01*
X84114310Y-30595500D01*
X86020690Y-30595500D01*
X86020694Y-30595500D01*
X86179810Y-30580756D01*
X86384889Y-30522405D01*
X86384893Y-30522403D01*
X86384894Y-30522403D01*
X86575753Y-30427367D01*
X86575753Y-30427366D01*
X86575755Y-30427366D01*
X86745907Y-30298872D01*
X86889552Y-30141302D01*
X87001798Y-29960019D01*
X87078821Y-29761198D01*
X87118000Y-29551610D01*
X87118000Y-29338390D01*
X87078821Y-29128802D01*
X87001798Y-28929981D01*
X86889552Y-28748698D01*
X86745907Y-28591128D01*
X86745906Y-28591127D01*
X86575753Y-28462632D01*
X86384893Y-28367596D01*
X86179810Y-28309244D01*
X86020694Y-28294500D01*
X84114306Y-28294500D01*
X83987013Y-28306295D01*
X83955189Y-28309244D01*
X83750107Y-28367596D01*
X83750105Y-28367596D01*
X83559246Y-28462632D01*
X83389093Y-28591127D01*
X83245447Y-28748699D01*
X83133202Y-28929980D01*
X83133201Y-28929982D01*
X83056180Y-29128799D01*
X83056179Y-29128802D01*
X83017000Y-29338390D01*
X83017000Y-29551610D01*
X45895500Y-29551610D01*
X45895500Y-28238542D01*
X45915185Y-28171503D01*
X45921117Y-28163064D01*
X46005861Y-28052625D01*
X46061330Y-27918709D01*
X46080250Y-27775000D01*
X46061330Y-27631291D01*
X46005861Y-27497375D01*
X45917621Y-27382379D01*
X45802625Y-27294139D01*
X45802624Y-27294138D01*
X45802622Y-27294137D01*
X45668712Y-27238671D01*
X45668710Y-27238670D01*
X45668709Y-27238670D01*
X45596854Y-27229210D01*
X45525001Y-27219750D01*
X45524999Y-27219750D01*
X45381291Y-27238670D01*
X45381287Y-27238671D01*
X45247377Y-27294137D01*
X45132379Y-27382379D01*
X45044136Y-27497378D01*
X45013533Y-27571260D01*
X44992690Y-27605004D01*
X44969624Y-27631625D01*
X44969617Y-27631636D01*
X44967615Y-27636020D01*
X44954100Y-27658799D01*
X44951206Y-27662664D01*
X44951200Y-27662675D01*
X44933078Y-27711264D01*
X44931385Y-27715353D01*
X44909835Y-27762543D01*
X44909833Y-27762550D01*
X44909146Y-27767327D01*
X44902598Y-27792986D01*
X44900910Y-27797513D01*
X44900909Y-27797517D01*
X44897207Y-27849260D01*
X44896734Y-27853656D01*
X44894500Y-27869199D01*
X44894500Y-27884904D01*
X44894342Y-27889329D01*
X44890641Y-27941069D01*
X44890641Y-27941073D01*
X44891666Y-27945785D01*
X44894500Y-27972143D01*
X44894500Y-30340124D01*
X44885062Y-30387572D01*
X44866404Y-30432620D01*
X44858669Y-30451293D01*
X44839750Y-30594999D01*
X44839750Y-30595000D01*
X10299486Y-30595000D01*
X10319272Y-30569214D01*
X10363430Y-30462604D01*
X10370307Y-30450536D01*
X10369543Y-30450119D01*
X10373790Y-30442338D01*
X10373796Y-30442331D01*
X10391935Y-30393694D01*
X10393608Y-30389656D01*
X10415165Y-30342457D01*
X10415850Y-30337685D01*
X10422409Y-30311992D01*
X10424091Y-30307483D01*
X10427791Y-30255740D01*
X10428265Y-30251340D01*
X10430500Y-30235799D01*
X10430500Y-30220094D01*
X10430658Y-30215669D01*
X10432170Y-30194529D01*
X10434359Y-30163927D01*
X10433332Y-30159206D01*
X10430500Y-30132858D01*
X10430500Y-26244875D01*
X10439939Y-26197422D01*
X10466330Y-26133709D01*
X10477139Y-26051610D01*
X83017000Y-26051610D01*
X83056179Y-26261198D01*
X83133202Y-26460019D01*
X83245448Y-26641302D01*
X83268229Y-26666291D01*
X83389093Y-26798872D01*
X83559246Y-26927367D01*
X83750106Y-27022403D01*
X83750108Y-27022403D01*
X83750111Y-27022405D01*
X83955190Y-27080756D01*
X84114306Y-27095500D01*
X84114310Y-27095500D01*
X86020690Y-27095500D01*
X86020694Y-27095500D01*
X86179810Y-27080756D01*
X86384889Y-27022405D01*
X86384893Y-27022403D01*
X86384894Y-27022403D01*
X86575753Y-26927367D01*
X86575753Y-26927366D01*
X86575755Y-26927366D01*
X86745907Y-26798872D01*
X86889552Y-26641302D01*
X87001798Y-26460019D01*
X87078821Y-26261198D01*
X87118000Y-26051610D01*
X87118000Y-25838390D01*
X87078821Y-25628802D01*
X87001798Y-25429981D01*
X86889552Y-25248698D01*
X86745907Y-25091128D01*
X86629318Y-25003083D01*
X86575753Y-24962632D01*
X86384893Y-24867596D01*
X86179810Y-24809244D01*
X86020694Y-24794500D01*
X84114306Y-24794500D01*
X83987013Y-24806295D01*
X83955189Y-24809244D01*
X83750107Y-24867596D01*
X83750105Y-24867596D01*
X83559246Y-24962632D01*
X83389093Y-25091127D01*
X83245447Y-25248699D01*
X83133202Y-25429980D01*
X83133201Y-25429982D01*
X83102537Y-25509137D01*
X83056179Y-25628802D01*
X83017000Y-25838390D01*
X83017000Y-26051610D01*
X10477139Y-26051610D01*
X10485250Y-25990000D01*
X10466330Y-25846291D01*
X10410861Y-25712375D01*
X10322621Y-25597379D01*
X10207625Y-25509139D01*
X10207624Y-25509138D01*
X10207622Y-25509137D01*
X10073712Y-25453671D01*
X10073710Y-25453670D01*
X10073709Y-25453670D01*
X10001854Y-25444210D01*
X9930001Y-25434750D01*
X9929999Y-25434750D01*
X9786291Y-25453670D01*
X9786287Y-25453671D01*
X9652377Y-25509137D01*
X9537379Y-25597379D01*
X9449137Y-25712377D01*
X9393671Y-25846287D01*
X9393670Y-25846291D01*
X9374750Y-25989999D01*
X9374750Y-25990000D01*
X9393670Y-26133708D01*
X9393670Y-26133709D01*
X9420061Y-26197422D01*
X9429500Y-26244875D01*
X9429500Y-26278636D01*
X9409815Y-26345675D01*
X9357011Y-26391430D01*
X9287853Y-26401374D01*
X9230015Y-26377012D01*
X9167625Y-26329139D01*
X9167624Y-26329138D01*
X9167622Y-26329137D01*
X9033712Y-26273671D01*
X9033710Y-26273670D01*
X9033709Y-26273670D01*
X8938977Y-26261198D01*
X8890001Y-26254750D01*
X8889999Y-26254750D01*
X8746291Y-26273670D01*
X8746287Y-26273671D01*
X8612377Y-26329137D01*
X8497379Y-26417379D01*
X8409137Y-26532378D01*
X8382747Y-26596089D01*
X8355867Y-26636317D01*
X8093568Y-26898616D01*
X8072938Y-26915243D01*
X8068876Y-26917854D01*
X8068867Y-26917861D01*
X8034905Y-26957055D01*
X8031892Y-26960291D01*
X8020781Y-26971402D01*
X8011354Y-26983996D01*
X8008587Y-26987428D01*
X7995375Y-27002676D01*
X7974623Y-27026626D01*
X7974617Y-27026636D01*
X7972615Y-27031020D01*
X7959100Y-27053799D01*
X7956206Y-27057664D01*
X7956200Y-27057675D01*
X7938078Y-27106264D01*
X7936385Y-27110353D01*
X7914835Y-27157543D01*
X7914833Y-27157550D01*
X7914146Y-27162327D01*
X7907598Y-27187986D01*
X7905910Y-27192513D01*
X7905909Y-27192517D01*
X7902207Y-27244260D01*
X7901734Y-27248656D01*
X7899500Y-27264199D01*
X7899500Y-27279904D01*
X7899342Y-27284329D01*
X7895641Y-27336069D01*
X7895641Y-27336073D01*
X7896666Y-27340785D01*
X7899500Y-27367143D01*
X7899500Y-29785124D01*
X7890062Y-29832575D01*
X7863669Y-29896293D01*
X7844750Y-30039999D01*
X7844750Y-30040000D01*
X500Y-30040000D01*
X500Y-27340000D01*
X1394785Y-27340000D01*
X1413602Y-27543082D01*
X1469417Y-27739247D01*
X1469422Y-27739260D01*
X1560327Y-27921821D01*
X1683237Y-28084581D01*
X1833958Y-28221980D01*
X1833960Y-28221982D01*
X1860706Y-28238542D01*
X2007363Y-28329348D01*
X2197544Y-28403024D01*
X2398024Y-28440500D01*
X2398026Y-28440500D01*
X2601974Y-28440500D01*
X2601976Y-28440500D01*
X2802456Y-28403024D01*
X2992637Y-28329348D01*
X3166041Y-28221981D01*
X3316764Y-28084579D01*
X3439673Y-27921821D01*
X3530582Y-27739250D01*
X3586397Y-27543083D01*
X3605215Y-27340000D01*
X3934785Y-27340000D01*
X3953602Y-27543082D01*
X4009417Y-27739247D01*
X4009422Y-27739260D01*
X4100327Y-27921821D01*
X4223237Y-28084581D01*
X4373958Y-28221980D01*
X4373960Y-28221982D01*
X4400706Y-28238542D01*
X4547363Y-28329348D01*
X4737544Y-28403024D01*
X4938024Y-28440500D01*
X4938026Y-28440500D01*
X5141974Y-28440500D01*
X5141976Y-28440500D01*
X5342456Y-28403024D01*
X5532637Y-28329348D01*
X5706041Y-28221981D01*
X5856764Y-28084579D01*
X5979673Y-27921821D01*
X6070582Y-27739250D01*
X6126397Y-27543083D01*
X6145215Y-27340000D01*
X6140965Y-27294139D01*
X6126397Y-27136917D01*
X6112372Y-27087625D01*
X6070582Y-26940750D01*
X6063918Y-26927367D01*
X6026272Y-26851764D01*
X5979673Y-26758179D01*
X5920704Y-26680091D01*
X5856762Y-26595418D01*
X5706041Y-26458019D01*
X5706039Y-26458017D01*
X5532642Y-26350655D01*
X5532635Y-26350651D01*
X5437546Y-26313814D01*
X5342456Y-26276976D01*
X5141976Y-26239500D01*
X4938024Y-26239500D01*
X4737544Y-26276976D01*
X4737541Y-26276976D01*
X4737541Y-26276977D01*
X4547364Y-26350651D01*
X4547357Y-26350655D01*
X4373960Y-26458017D01*
X4373958Y-26458019D01*
X4223237Y-26595418D01*
X4100327Y-26758178D01*
X4009422Y-26940739D01*
X4009417Y-26940752D01*
X3953602Y-27136917D01*
X3934785Y-27339999D01*
X3934785Y-27340000D01*
X3605215Y-27340000D01*
X3600965Y-27294139D01*
X3586397Y-27136917D01*
X3572372Y-27087625D01*
X3530582Y-26940750D01*
X3523918Y-26927367D01*
X3486272Y-26851764D01*
X3439673Y-26758179D01*
X3380704Y-26680091D01*
X3316762Y-26595418D01*
X3166041Y-26458019D01*
X3166039Y-26458017D01*
X2992642Y-26350655D01*
X2992635Y-26350651D01*
X2897546Y-26313814D01*
X2802456Y-26276976D01*
X2601976Y-26239500D01*
X2398024Y-26239500D01*
X2197544Y-26276976D01*
X2197541Y-26276976D01*
X2197541Y-26276977D01*
X2007364Y-26350651D01*
X2007357Y-26350655D01*
X1833960Y-26458017D01*
X1833958Y-26458019D01*
X1683237Y-26595418D01*
X1560327Y-26758178D01*
X1469422Y-26940739D01*
X1469417Y-26940752D01*
X1413602Y-27136917D01*
X1394785Y-27339999D01*
X1394785Y-27340000D01*
X500Y-27340000D01*
X500Y-24800000D01*
X1394785Y-24800000D01*
X1413602Y-25003082D01*
X1469417Y-25199247D01*
X1469422Y-25199260D01*
X1560327Y-25381821D01*
X1683237Y-25544581D01*
X1833958Y-25681980D01*
X1833960Y-25681982D01*
X1883047Y-25712375D01*
X2007363Y-25789348D01*
X2197544Y-25863024D01*
X2398024Y-25900500D01*
X2398026Y-25900500D01*
X2601974Y-25900500D01*
X2601976Y-25900500D01*
X2802456Y-25863024D01*
X2992637Y-25789348D01*
X3166041Y-25681981D01*
X3316764Y-25544579D01*
X3439673Y-25381821D01*
X3530582Y-25199250D01*
X3586397Y-25003083D01*
X3605215Y-24800000D01*
X3934785Y-24800000D01*
X3953602Y-25003082D01*
X4009417Y-25199247D01*
X4009422Y-25199260D01*
X4100327Y-25381821D01*
X4223237Y-25544581D01*
X4373958Y-25681980D01*
X4373960Y-25681982D01*
X4423047Y-25712375D01*
X4547363Y-25789348D01*
X4737544Y-25863024D01*
X4938024Y-25900500D01*
X4938026Y-25900500D01*
X5141974Y-25900500D01*
X5141976Y-25900500D01*
X5342456Y-25863024D01*
X5532637Y-25789348D01*
X5706041Y-25681981D01*
X5856764Y-25544579D01*
X5979673Y-25381821D01*
X6070582Y-25199250D01*
X6126397Y-25003083D01*
X6145215Y-24800000D01*
X6126397Y-24596917D01*
X6070582Y-24400750D01*
X5979673Y-24218179D01*
X5856764Y-24055421D01*
X5856762Y-24055418D01*
X5706041Y-23918019D01*
X5706039Y-23918017D01*
X5532642Y-23810655D01*
X5532635Y-23810651D01*
X5437546Y-23773813D01*
X5342456Y-23736976D01*
X5141976Y-23699500D01*
X4938024Y-23699500D01*
X4737544Y-23736976D01*
X4737541Y-23736976D01*
X4737541Y-23736977D01*
X4547364Y-23810651D01*
X4547357Y-23810655D01*
X4373960Y-23918017D01*
X4373958Y-23918019D01*
X4223237Y-24055418D01*
X4100327Y-24218178D01*
X4009422Y-24400739D01*
X4009417Y-24400752D01*
X3953602Y-24596917D01*
X3934785Y-24799999D01*
X3934785Y-24800000D01*
X3605215Y-24800000D01*
X3586397Y-24596917D01*
X3530582Y-24400750D01*
X3439673Y-24218179D01*
X3316764Y-24055421D01*
X3316762Y-24055418D01*
X3166041Y-23918019D01*
X3166039Y-23918017D01*
X2992642Y-23810655D01*
X2992635Y-23810651D01*
X2897546Y-23773813D01*
X2802456Y-23736976D01*
X2601976Y-23699500D01*
X2398024Y-23699500D01*
X2197544Y-23736976D01*
X2197541Y-23736976D01*
X2197541Y-23736977D01*
X2007364Y-23810651D01*
X2007357Y-23810655D01*
X1833960Y-23918017D01*
X1833958Y-23918019D01*
X1683237Y-24055418D01*
X1560327Y-24218178D01*
X1469422Y-24400739D01*
X1469417Y-24400752D01*
X1413602Y-24596917D01*
X1394785Y-24799999D01*
X1394785Y-24800000D01*
X500Y-24800000D01*
X500Y-22260000D01*
X1394785Y-22260000D01*
X1413602Y-22463082D01*
X1469417Y-22659247D01*
X1469422Y-22659260D01*
X1560327Y-22841821D01*
X1683237Y-23004581D01*
X1833958Y-23141980D01*
X1833960Y-23141982D01*
X1933141Y-23203392D01*
X2007363Y-23249348D01*
X2197544Y-23323024D01*
X2398024Y-23360500D01*
X2398026Y-23360500D01*
X2601974Y-23360500D01*
X2601976Y-23360500D01*
X2802456Y-23323024D01*
X2992637Y-23249348D01*
X3166041Y-23141981D01*
X3316764Y-23004579D01*
X3439673Y-22841821D01*
X3530582Y-22659250D01*
X3586397Y-22463083D01*
X3605215Y-22260000D01*
X3934785Y-22260000D01*
X3953602Y-22463082D01*
X4009417Y-22659247D01*
X4009422Y-22659260D01*
X4100327Y-22841821D01*
X4223237Y-23004581D01*
X4373958Y-23141980D01*
X4373960Y-23141982D01*
X4473141Y-23203392D01*
X4547363Y-23249348D01*
X4737544Y-23323024D01*
X4938024Y-23360500D01*
X4938026Y-23360500D01*
X5141974Y-23360500D01*
X5141976Y-23360500D01*
X5342456Y-23323024D01*
X5532637Y-23249348D01*
X5706041Y-23141981D01*
X5856764Y-23004579D01*
X5979673Y-22841821D01*
X6070582Y-22659250D01*
X6101209Y-22551610D01*
X83017000Y-22551610D01*
X83056179Y-22761198D01*
X83133202Y-22960019D01*
X83245448Y-23141302D01*
X83343942Y-23249344D01*
X83389093Y-23298872D01*
X83559246Y-23427367D01*
X83750106Y-23522403D01*
X83750108Y-23522403D01*
X83750111Y-23522405D01*
X83955190Y-23580756D01*
X84114306Y-23595500D01*
X84114310Y-23595500D01*
X86020690Y-23595500D01*
X86020694Y-23595500D01*
X86179810Y-23580756D01*
X86384889Y-23522405D01*
X86384893Y-23522403D01*
X86384894Y-23522403D01*
X86575753Y-23427367D01*
X86575753Y-23427366D01*
X86575755Y-23427366D01*
X86745907Y-23298872D01*
X86889552Y-23141302D01*
X87001798Y-22960019D01*
X87078821Y-22761198D01*
X87118000Y-22551610D01*
X87118000Y-22338390D01*
X87078821Y-22128802D01*
X87001798Y-21929981D01*
X86889552Y-21748698D01*
X86745907Y-21591128D01*
X86745906Y-21591127D01*
X86575753Y-21462632D01*
X86384893Y-21367596D01*
X86179810Y-21309244D01*
X86020694Y-21294500D01*
X84114306Y-21294500D01*
X83987013Y-21306295D01*
X83955189Y-21309244D01*
X83750107Y-21367596D01*
X83750105Y-21367596D01*
X83559246Y-21462632D01*
X83389093Y-21591127D01*
X83245447Y-21748699D01*
X83133202Y-21929980D01*
X83133201Y-21929982D01*
X83071488Y-22089284D01*
X83056179Y-22128802D01*
X83017000Y-22338390D01*
X83017000Y-22551610D01*
X6101209Y-22551610D01*
X6126397Y-22463083D01*
X6145215Y-22260000D01*
X6126397Y-22056917D01*
X6070582Y-21860750D01*
X6067481Y-21854523D01*
X6026272Y-21771764D01*
X5979673Y-21678179D01*
X5882875Y-21549998D01*
X5856762Y-21515418D01*
X5706041Y-21378019D01*
X5706039Y-21378017D01*
X5532642Y-21270655D01*
X5532635Y-21270651D01*
X5437546Y-21233814D01*
X5342456Y-21196976D01*
X5141976Y-21159500D01*
X4938024Y-21159500D01*
X4737544Y-21196976D01*
X4737541Y-21196976D01*
X4737541Y-21196977D01*
X4547364Y-21270651D01*
X4547357Y-21270655D01*
X4373960Y-21378017D01*
X4373958Y-21378019D01*
X4223237Y-21515418D01*
X4100327Y-21678178D01*
X4009422Y-21860739D01*
X4009417Y-21860752D01*
X3953602Y-22056917D01*
X3934785Y-22259999D01*
X3934785Y-22260000D01*
X3605215Y-22260000D01*
X3586397Y-22056917D01*
X3530582Y-21860750D01*
X3527481Y-21854523D01*
X3486272Y-21771764D01*
X3439673Y-21678179D01*
X3342875Y-21549998D01*
X3316762Y-21515418D01*
X3166041Y-21378019D01*
X3166039Y-21378017D01*
X2992642Y-21270655D01*
X2992635Y-21270651D01*
X2897546Y-21233814D01*
X2802456Y-21196976D01*
X2601976Y-21159500D01*
X2398024Y-21159500D01*
X2197544Y-21196976D01*
X2197541Y-21196976D01*
X2197541Y-21196977D01*
X2007364Y-21270651D01*
X2007357Y-21270655D01*
X1833960Y-21378017D01*
X1833958Y-21378019D01*
X1683237Y-21515418D01*
X1560327Y-21678178D01*
X1469422Y-21860739D01*
X1469417Y-21860752D01*
X1413602Y-22056917D01*
X1394785Y-22259999D01*
X1394785Y-22260000D01*
X500Y-22260000D01*
X500Y-20920000D01*
X12979722Y-20920000D01*
X12998762Y-21076818D01*
X13043762Y-21195471D01*
X13054780Y-21224523D01*
X13144517Y-21354530D01*
X13262760Y-21459283D01*
X13262762Y-21459284D01*
X13402634Y-21532696D01*
X13556014Y-21570500D01*
X13556015Y-21570500D01*
X13713985Y-21570500D01*
X13867365Y-21532696D01*
X13911974Y-21509283D01*
X14007240Y-21459283D01*
X14125483Y-21354530D01*
X14146513Y-21324061D01*
X14200795Y-21280070D01*
X14248564Y-21270500D01*
X15726908Y-21270500D01*
X15785169Y-21287607D01*
X15786119Y-21285798D01*
X15932634Y-21362696D01*
X16086014Y-21400500D01*
X16086015Y-21400500D01*
X16243985Y-21400500D01*
X16397365Y-21362696D01*
X16412928Y-21354528D01*
X16537240Y-21289283D01*
X16655483Y-21184530D01*
X16745220Y-21054523D01*
X16801237Y-20906818D01*
X16815421Y-20790000D01*
X20359722Y-20790000D01*
X20378762Y-20946818D01*
X20433336Y-21090715D01*
X20434780Y-21094523D01*
X20524517Y-21224530D01*
X20642760Y-21329283D01*
X20654860Y-21335633D01*
X20782634Y-21402696D01*
X20936014Y-21440500D01*
X20936015Y-21440500D01*
X21093985Y-21440500D01*
X21247365Y-21402696D01*
X21342824Y-21352594D01*
X21411329Y-21338869D01*
X21476383Y-21364361D01*
X21517327Y-21420976D01*
X21523544Y-21477336D01*
X21514722Y-21549998D01*
X21514722Y-21550000D01*
X21533762Y-21706818D01*
X21589780Y-21854523D01*
X21679517Y-21984530D01*
X21797760Y-22089283D01*
X21797762Y-22089284D01*
X21937634Y-22162696D01*
X22091014Y-22200500D01*
X22091015Y-22200500D01*
X22248985Y-22200500D01*
X22402365Y-22162696D01*
X22466944Y-22128802D01*
X22542240Y-22089283D01*
X22578774Y-22056917D01*
X22629833Y-22011684D01*
X22693066Y-21981963D01*
X22712059Y-21980500D01*
X24671436Y-21980500D01*
X24738475Y-22000185D01*
X24773487Y-22034062D01*
X24794515Y-22064528D01*
X24794516Y-22064529D01*
X24794517Y-22064530D01*
X24912760Y-22169283D01*
X24912762Y-22169284D01*
X25052634Y-22242696D01*
X25206014Y-22280500D01*
X25206015Y-22280500D01*
X25363985Y-22280500D01*
X25517365Y-22242696D01*
X25517365Y-22242695D01*
X25657240Y-22169283D01*
X25775483Y-22064530D01*
X25865220Y-21934523D01*
X25921237Y-21786818D01*
X25940278Y-21630000D01*
X25933054Y-21570500D01*
X25921237Y-21473181D01*
X25890897Y-21393182D01*
X25865220Y-21325477D01*
X25775483Y-21195470D01*
X25657240Y-21090717D01*
X25657238Y-21090716D01*
X25657237Y-21090715D01*
X25517365Y-21017303D01*
X25363986Y-20979500D01*
X25363985Y-20979500D01*
X25206015Y-20979500D01*
X25206014Y-20979500D01*
X25052634Y-21017303D01*
X24954736Y-21068685D01*
X24886227Y-21082411D01*
X24821174Y-21056918D01*
X24780230Y-21000303D01*
X24776888Y-20970000D01*
X27729721Y-20970000D01*
X27748762Y-21126818D01*
X27785818Y-21224524D01*
X27804780Y-21274523D01*
X27894517Y-21404530D01*
X28012760Y-21509283D01*
X28012762Y-21509284D01*
X28152634Y-21582696D01*
X28306014Y-21620500D01*
X28306015Y-21620500D01*
X28463985Y-21620500D01*
X28617365Y-21582696D01*
X28679665Y-21549998D01*
X28757240Y-21509283D01*
X28875483Y-21404530D01*
X28896513Y-21374061D01*
X28950795Y-21330070D01*
X28998564Y-21320500D01*
X30764229Y-21320500D01*
X30831268Y-21340185D01*
X30846454Y-21351682D01*
X30922760Y-21419283D01*
X30922762Y-21419284D01*
X31062634Y-21492696D01*
X31216014Y-21530500D01*
X31216015Y-21530500D01*
X31373985Y-21530500D01*
X31527365Y-21492696D01*
X31527365Y-21492695D01*
X31667240Y-21419283D01*
X31785483Y-21314530D01*
X31875220Y-21184523D01*
X31931237Y-21036818D01*
X31950278Y-20880000D01*
X31943053Y-20820500D01*
X31931237Y-20723182D01*
X31909352Y-20665476D01*
X31904798Y-20653470D01*
X31899432Y-20583808D01*
X31932579Y-20522302D01*
X31993717Y-20488481D01*
X32020741Y-20485500D01*
X32028692Y-20485500D01*
X32095731Y-20505185D01*
X32130742Y-20539061D01*
X32133163Y-20542569D01*
X32134515Y-20544528D01*
X32134517Y-20544530D01*
X32252760Y-20649283D01*
X32252762Y-20649284D01*
X32392634Y-20722696D01*
X32546014Y-20760500D01*
X32546015Y-20760500D01*
X32703985Y-20760500D01*
X32857365Y-20722696D01*
X32882805Y-20709344D01*
X32997240Y-20649283D01*
X33115483Y-20544530D01*
X33205220Y-20414523D01*
X33261237Y-20266818D01*
X33280278Y-20110000D01*
X33277850Y-20089999D01*
X33261237Y-19953181D01*
X33238482Y-19893181D01*
X33205220Y-19805477D01*
X33115483Y-19675470D01*
X32997240Y-19570717D01*
X32997238Y-19570716D01*
X32997237Y-19570715D01*
X32857365Y-19497303D01*
X32703986Y-19459500D01*
X32703985Y-19459500D01*
X32546015Y-19459500D01*
X32546014Y-19459500D01*
X32392634Y-19497303D01*
X32252762Y-19570715D01*
X32134516Y-19675470D01*
X32132089Y-19678987D01*
X32130742Y-19680938D01*
X32076463Y-19724929D01*
X32028692Y-19734500D01*
X30305113Y-19734500D01*
X30238074Y-19714815D01*
X30203064Y-19680941D01*
X30185483Y-19655470D01*
X30067240Y-19550717D01*
X30067238Y-19550716D01*
X30067237Y-19550715D01*
X29927365Y-19477303D01*
X29773986Y-19439500D01*
X29773985Y-19439500D01*
X29616015Y-19439500D01*
X29616014Y-19439500D01*
X29462634Y-19477303D01*
X29322762Y-19550715D01*
X29204516Y-19655471D01*
X29114781Y-19785475D01*
X29114780Y-19785476D01*
X29058762Y-19933181D01*
X29039721Y-20089999D01*
X29039721Y-20090000D01*
X29058762Y-20246818D01*
X29114780Y-20394523D01*
X29114781Y-20394524D01*
X29135858Y-20425060D01*
X29157741Y-20491415D01*
X29140276Y-20559066D01*
X29089008Y-20606536D01*
X29033808Y-20619500D01*
X28998564Y-20619500D01*
X28931525Y-20599815D01*
X28896513Y-20565938D01*
X28875484Y-20535471D01*
X28860619Y-20522302D01*
X28757240Y-20430717D01*
X28757238Y-20430716D01*
X28757237Y-20430715D01*
X28617365Y-20357303D01*
X28463986Y-20319500D01*
X28463985Y-20319500D01*
X28306015Y-20319500D01*
X28306014Y-20319500D01*
X28152634Y-20357303D01*
X28012762Y-20430715D01*
X27894516Y-20535471D01*
X27804781Y-20665475D01*
X27804780Y-20665476D01*
X27748762Y-20813181D01*
X27729721Y-20969999D01*
X27729721Y-20970000D01*
X24776888Y-20970000D01*
X24774014Y-20943944D01*
X24790278Y-20810000D01*
X24771237Y-20653182D01*
X24769758Y-20649283D01*
X24741767Y-20575477D01*
X24715220Y-20505477D01*
X24625483Y-20375470D01*
X24507240Y-20270717D01*
X24507238Y-20270716D01*
X24507237Y-20270715D01*
X24367365Y-20197303D01*
X24213986Y-20159500D01*
X24213985Y-20159500D01*
X24056015Y-20159500D01*
X24056014Y-20159500D01*
X23902634Y-20197303D01*
X23762762Y-20270715D01*
X23644517Y-20375469D01*
X23640897Y-20380715D01*
X23637288Y-20385942D01*
X23583006Y-20429931D01*
X23535240Y-20439500D01*
X21628564Y-20439500D01*
X21561525Y-20419815D01*
X21526513Y-20385938D01*
X21522909Y-20380717D01*
X21505483Y-20355470D01*
X21387240Y-20250717D01*
X21387238Y-20250716D01*
X21387237Y-20250715D01*
X21247365Y-20177303D01*
X21093986Y-20139500D01*
X21093985Y-20139500D01*
X20936015Y-20139500D01*
X20936014Y-20139500D01*
X20782634Y-20177303D01*
X20642762Y-20250715D01*
X20524516Y-20355471D01*
X20434781Y-20485475D01*
X20434780Y-20485476D01*
X20378762Y-20633181D01*
X20359722Y-20789999D01*
X20359722Y-20790000D01*
X16815421Y-20790000D01*
X16820278Y-20750000D01*
X16808557Y-20653472D01*
X16801237Y-20593182D01*
X16794522Y-20575477D01*
X16760243Y-20485091D01*
X16754877Y-20415430D01*
X16788024Y-20353924D01*
X16849162Y-20320102D01*
X16918880Y-20324704D01*
X16933806Y-20331323D01*
X17012635Y-20372696D01*
X17066361Y-20385938D01*
X17166014Y-20410500D01*
X17166015Y-20410500D01*
X17323985Y-20410500D01*
X17477365Y-20372696D01*
X17477365Y-20372695D01*
X17617240Y-20299283D01*
X17735483Y-20194530D01*
X17825220Y-20064523D01*
X17881237Y-19916818D01*
X17900278Y-19760000D01*
X17898515Y-19745476D01*
X17881237Y-19603181D01*
X17848521Y-19516917D01*
X17825220Y-19455477D01*
X17735483Y-19325470D01*
X17617240Y-19220717D01*
X17617238Y-19220716D01*
X17617237Y-19220715D01*
X17477365Y-19147303D01*
X17323986Y-19109500D01*
X17323985Y-19109500D01*
X17166015Y-19109500D01*
X17166014Y-19109500D01*
X17012634Y-19147303D01*
X16872762Y-19220715D01*
X16754515Y-19325471D01*
X16733487Y-19355938D01*
X16679205Y-19399930D01*
X16631436Y-19409500D01*
X15214211Y-19409500D01*
X15188765Y-19406861D01*
X15179685Y-19404957D01*
X15179684Y-19404957D01*
X15179682Y-19404957D01*
X15147061Y-19409023D01*
X15139385Y-19409500D01*
X15135960Y-19409500D01*
X15114455Y-19413087D01*
X15067248Y-19418972D01*
X15022237Y-19416321D01*
X14953988Y-19399500D01*
X14953985Y-19399500D01*
X14796015Y-19399500D01*
X14796014Y-19399500D01*
X14642634Y-19437303D01*
X14502762Y-19510715D01*
X14435033Y-19570717D01*
X14398388Y-19603182D01*
X14384516Y-19615471D01*
X14294781Y-19745475D01*
X14294780Y-19745476D01*
X14238762Y-19893181D01*
X14219722Y-20049999D01*
X14219722Y-20050000D01*
X14238762Y-20206818D01*
X14276836Y-20307208D01*
X14282203Y-20376871D01*
X14249056Y-20438377D01*
X14187918Y-20472199D01*
X14118200Y-20467597D01*
X14078668Y-20443995D01*
X14007240Y-20380717D01*
X14007238Y-20380715D01*
X13867365Y-20307303D01*
X13713986Y-20269500D01*
X13713985Y-20269500D01*
X13556015Y-20269500D01*
X13556014Y-20269500D01*
X13402634Y-20307303D01*
X13262762Y-20380715D01*
X13207208Y-20429931D01*
X13144942Y-20485094D01*
X13144516Y-20485471D01*
X13054781Y-20615475D01*
X13054780Y-20615476D01*
X12998762Y-20763181D01*
X12979722Y-20919999D01*
X12979722Y-20920000D01*
X500Y-20920000D01*
X500Y-19720000D01*
X1394785Y-19720000D01*
X1413602Y-19923082D01*
X1469417Y-20119247D01*
X1469422Y-20119260D01*
X1560327Y-20301821D01*
X1683237Y-20464581D01*
X1833958Y-20601980D01*
X1833960Y-20601982D01*
X1910356Y-20649284D01*
X2007363Y-20709348D01*
X2197544Y-20783024D01*
X2398024Y-20820500D01*
X2398026Y-20820500D01*
X2601974Y-20820500D01*
X2601976Y-20820500D01*
X2802456Y-20783024D01*
X2992637Y-20709348D01*
X3166041Y-20601981D01*
X3308405Y-20472199D01*
X3316762Y-20464581D01*
X3332308Y-20443995D01*
X3439673Y-20301821D01*
X3530582Y-20119250D01*
X3586397Y-19923083D01*
X3605215Y-19720000D01*
X3934785Y-19720000D01*
X3953602Y-19923082D01*
X4009417Y-20119247D01*
X4009422Y-20119260D01*
X4100327Y-20301821D01*
X4223237Y-20464581D01*
X4373958Y-20601980D01*
X4373960Y-20601982D01*
X4450356Y-20649284D01*
X4547363Y-20709348D01*
X4737544Y-20783024D01*
X4938024Y-20820500D01*
X4938026Y-20820500D01*
X5141974Y-20820500D01*
X5141976Y-20820500D01*
X5342456Y-20783024D01*
X5532637Y-20709348D01*
X5706041Y-20601981D01*
X5848405Y-20472199D01*
X5856762Y-20464581D01*
X5872308Y-20443995D01*
X5979673Y-20301821D01*
X6070582Y-20119250D01*
X6126397Y-19923083D01*
X6145215Y-19720000D01*
X6126397Y-19516917D01*
X6070582Y-19320750D01*
X5979673Y-19138179D01*
X5856764Y-18975421D01*
X5856762Y-18975418D01*
X5706041Y-18838019D01*
X5706039Y-18838017D01*
X5532642Y-18730655D01*
X5532635Y-18730651D01*
X5437546Y-18693813D01*
X5342456Y-18656976D01*
X5141976Y-18619500D01*
X4938024Y-18619500D01*
X4737544Y-18656976D01*
X4737541Y-18656976D01*
X4737541Y-18656977D01*
X4547364Y-18730651D01*
X4547357Y-18730655D01*
X4373960Y-18838017D01*
X4373958Y-18838019D01*
X4223237Y-18975418D01*
X4100327Y-19138178D01*
X4009422Y-19320739D01*
X4009417Y-19320752D01*
X3953602Y-19516917D01*
X3934785Y-19719999D01*
X3934785Y-19720000D01*
X3605215Y-19720000D01*
X3586397Y-19516917D01*
X3530582Y-19320750D01*
X3439673Y-19138179D01*
X3316764Y-18975421D01*
X3316762Y-18975418D01*
X3166041Y-18838019D01*
X3166039Y-18838017D01*
X2992642Y-18730655D01*
X2992635Y-18730651D01*
X2897546Y-18693813D01*
X2802456Y-18656976D01*
X2601976Y-18619500D01*
X2398024Y-18619500D01*
X2197544Y-18656976D01*
X2197541Y-18656976D01*
X2197541Y-18656977D01*
X2007364Y-18730651D01*
X2007357Y-18730655D01*
X1833960Y-18838017D01*
X1833958Y-18838019D01*
X1683237Y-18975418D01*
X1560327Y-19138178D01*
X1469422Y-19320739D01*
X1469417Y-19320752D01*
X1413602Y-19516917D01*
X1394785Y-19719999D01*
X1394785Y-19720000D01*
X500Y-19720000D01*
X500Y-18050000D01*
X46614750Y-18050000D01*
X46633670Y-18193708D01*
X46633671Y-18193712D01*
X46689137Y-18327622D01*
X46689138Y-18327624D01*
X46689139Y-18327625D01*
X46777379Y-18442621D01*
X46892375Y-18530861D01*
X47026291Y-18586330D01*
X47153280Y-18603048D01*
X47169999Y-18605250D01*
X47170000Y-18605250D01*
X47170001Y-18605250D01*
X47184977Y-18603278D01*
X47313709Y-18586330D01*
X47447625Y-18530861D01*
X47562621Y-18442621D01*
X47650861Y-18327625D01*
X47677252Y-18263907D01*
X47704129Y-18223683D01*
X48796431Y-17131381D01*
X48817068Y-17114751D01*
X48821128Y-17112143D01*
X48855109Y-17072925D01*
X48858092Y-17069720D01*
X48869221Y-17058593D01*
X48878637Y-17046014D01*
X48881417Y-17042564D01*
X48915377Y-17003373D01*
X48917375Y-16998995D01*
X48930907Y-16976189D01*
X48933796Y-16972331D01*
X48951922Y-16923728D01*
X48953614Y-16919645D01*
X48975165Y-16872457D01*
X48975850Y-16867685D01*
X48982409Y-16841992D01*
X48984091Y-16837483D01*
X48987791Y-16785740D01*
X48988265Y-16781340D01*
X48990500Y-16765799D01*
X48990500Y-16750094D01*
X48990658Y-16745669D01*
X48994264Y-16695250D01*
X48994359Y-16693927D01*
X48993332Y-16689206D01*
X48990500Y-16662858D01*
X48990500Y-16424875D01*
X48999939Y-16377422D01*
X49026330Y-16313709D01*
X49045250Y-16170000D01*
X49026330Y-16026291D01*
X48970861Y-15892375D01*
X48882621Y-15777379D01*
X48767625Y-15689139D01*
X48767624Y-15689138D01*
X48767622Y-15689137D01*
X48633712Y-15633671D01*
X48633710Y-15633670D01*
X48633709Y-15633670D01*
X48555011Y-15623309D01*
X48490001Y-15614750D01*
X48489999Y-15614750D01*
X48346291Y-15633670D01*
X48346287Y-15633671D01*
X48212377Y-15689137D01*
X48097379Y-15777379D01*
X48009137Y-15892377D01*
X47953671Y-16026287D01*
X47953670Y-16026291D01*
X47934750Y-16170000D01*
X47953670Y-16313709D01*
X47970321Y-16353909D01*
X47980061Y-16377422D01*
X47989500Y-16424875D01*
X47989500Y-16471322D01*
X47969815Y-16538361D01*
X47953181Y-16559003D01*
X46996317Y-17515867D01*
X46956089Y-17542747D01*
X46892378Y-17569137D01*
X46777379Y-17657379D01*
X46689137Y-17772377D01*
X46633671Y-17906287D01*
X46633670Y-17906291D01*
X46614750Y-18049999D01*
X46614750Y-18050000D01*
X500Y-18050000D01*
X500Y-15660000D01*
X15054750Y-15660000D01*
X15073670Y-15803708D01*
X15073671Y-15803712D01*
X15129137Y-15937622D01*
X15129138Y-15937624D01*
X15129139Y-15937625D01*
X15217379Y-16052621D01*
X15332375Y-16140861D01*
X15466291Y-16196330D01*
X15593280Y-16213048D01*
X15609999Y-16215250D01*
X15610000Y-16215250D01*
X15610001Y-16215250D01*
X15645927Y-16210520D01*
X15753709Y-16196330D01*
X15817427Y-16169937D01*
X15864876Y-16160500D01*
X17561324Y-16160500D01*
X17628363Y-16180185D01*
X17649005Y-16196819D01*
X17765867Y-16313681D01*
X17792747Y-16353909D01*
X17811926Y-16400211D01*
X17819139Y-16417625D01*
X17907379Y-16532621D01*
X18022375Y-16620861D01*
X18156291Y-16676330D01*
X18283280Y-16693048D01*
X18299999Y-16695250D01*
X18300000Y-16695250D01*
X18300001Y-16695250D01*
X18314977Y-16693278D01*
X18443709Y-16676330D01*
X18577625Y-16620861D01*
X18692621Y-16532621D01*
X18780861Y-16417625D01*
X18836330Y-16283709D01*
X18855250Y-16140000D01*
X18836330Y-15996291D01*
X18780861Y-15862375D01*
X18692621Y-15747379D01*
X18577625Y-15659139D01*
X18577623Y-15659138D01*
X18513909Y-15632747D01*
X18473681Y-15605867D01*
X18221385Y-15353571D01*
X18204750Y-15332928D01*
X18202145Y-15328874D01*
X18202142Y-15328871D01*
X18195147Y-15322810D01*
X18162932Y-15294896D01*
X18159700Y-15291886D01*
X18148596Y-15280782D01*
X18148588Y-15280775D01*
X18136013Y-15271362D01*
X18132583Y-15268598D01*
X18093373Y-15234623D01*
X18093371Y-15234622D01*
X18093367Y-15234619D01*
X18088983Y-15232617D01*
X18066194Y-15219096D01*
X18062331Y-15216204D01*
X18062329Y-15216203D01*
X18013716Y-15198071D01*
X18009642Y-15196383D01*
X17962457Y-15174835D01*
X17962455Y-15174834D01*
X17957682Y-15174148D01*
X17932000Y-15167593D01*
X17927485Y-15165909D01*
X17875740Y-15162207D01*
X17871343Y-15161734D01*
X17855799Y-15159500D01*
X17840094Y-15159500D01*
X17835671Y-15159342D01*
X17818083Y-15158084D01*
X17783929Y-15155641D01*
X17783925Y-15155641D01*
X17779215Y-15156666D01*
X17752857Y-15159500D01*
X15864876Y-15159500D01*
X15817427Y-15150062D01*
X15753709Y-15123670D01*
X15753708Y-15123669D01*
X15753706Y-15123669D01*
X15610001Y-15104750D01*
X15609999Y-15104750D01*
X15466291Y-15123670D01*
X15466287Y-15123671D01*
X15332377Y-15179137D01*
X15217379Y-15267379D01*
X15129137Y-15382377D01*
X15073671Y-15516287D01*
X15073670Y-15516291D01*
X15054750Y-15659999D01*
X15054750Y-15660000D01*
X500Y-15660000D01*
X500Y-9390338D01*
X11744671Y-9390338D01*
X11763964Y-9684694D01*
X11763965Y-9684704D01*
X11763966Y-9684711D01*
X11809294Y-9912595D01*
X11821518Y-9974047D01*
X11821521Y-9974061D01*
X11916349Y-10253411D01*
X12046825Y-10517991D01*
X12046829Y-10517998D01*
X12210725Y-10763286D01*
X12405241Y-10985089D01*
X12627044Y-11179605D01*
X12872332Y-11343501D01*
X12872335Y-11343503D01*
X13136923Y-11473983D01*
X13416278Y-11568812D01*
X13705620Y-11626365D01*
X13733888Y-11628217D01*
X13999993Y-11645660D01*
X14000000Y-11645660D01*
X14000007Y-11645660D01*
X14162494Y-11635009D01*
X19909500Y-11635009D01*
X19924032Y-11708066D01*
X19924033Y-11708070D01*
X19924034Y-11708071D01*
X19979399Y-11790932D01*
X20061263Y-11845631D01*
X20062260Y-11846297D01*
X20062264Y-11846298D01*
X20135321Y-11860830D01*
X20135324Y-11860831D01*
X20135326Y-11860831D01*
X21784676Y-11860831D01*
X21784677Y-11860830D01*
X21857740Y-11846297D01*
X21940601Y-11790932D01*
X21995966Y-11708071D01*
X22010500Y-11635005D01*
X22010500Y-10810330D01*
X25444417Y-10810330D01*
X25464699Y-11016263D01*
X25464700Y-11016265D01*
X25524768Y-11214285D01*
X25622315Y-11396781D01*
X25622317Y-11396783D01*
X25753589Y-11556741D01*
X25838429Y-11626366D01*
X25913550Y-11688016D01*
X26096046Y-11785563D01*
X26294066Y-11845631D01*
X26294065Y-11845631D01*
X26312529Y-11847449D01*
X26500000Y-11865914D01*
X26705934Y-11845631D01*
X26903954Y-11785563D01*
X27086450Y-11688016D01*
X27246410Y-11556741D01*
X27377685Y-11396781D01*
X27475232Y-11214285D01*
X27535300Y-11016265D01*
X27555583Y-10810331D01*
X27555583Y-10810330D01*
X30984417Y-10810330D01*
X31004699Y-11016263D01*
X31004700Y-11016265D01*
X31064768Y-11214285D01*
X31162315Y-11396781D01*
X31162317Y-11396783D01*
X31293589Y-11556741D01*
X31378429Y-11626366D01*
X31453550Y-11688016D01*
X31636046Y-11785563D01*
X31834066Y-11845631D01*
X31834065Y-11845631D01*
X31852529Y-11847449D01*
X32040000Y-11865914D01*
X32245934Y-11845631D01*
X32443954Y-11785563D01*
X32626450Y-11688016D01*
X32786410Y-11556741D01*
X32917685Y-11396781D01*
X33015232Y-11214285D01*
X33075300Y-11016265D01*
X33095583Y-10810331D01*
X33075300Y-10604397D01*
X33015232Y-10406377D01*
X32917685Y-10223881D01*
X32865702Y-10160540D01*
X32786410Y-10063920D01*
X32626452Y-9932648D01*
X32626453Y-9932648D01*
X32626450Y-9932646D01*
X32443954Y-9835099D01*
X32245934Y-9775031D01*
X32245932Y-9775030D01*
X32245934Y-9775030D01*
X32058463Y-9756566D01*
X32040000Y-9754748D01*
X32039999Y-9754748D01*
X31834067Y-9775030D01*
X31636043Y-9835100D01*
X31525898Y-9893974D01*
X31453550Y-9932646D01*
X31453548Y-9932647D01*
X31453547Y-9932648D01*
X31293589Y-10063920D01*
X31162317Y-10223878D01*
X31162315Y-10223881D01*
X31146531Y-10253411D01*
X31064769Y-10406374D01*
X31004699Y-10604398D01*
X30984417Y-10810330D01*
X27555583Y-10810330D01*
X27535300Y-10604397D01*
X27475232Y-10406377D01*
X27377685Y-10223881D01*
X27325702Y-10160540D01*
X27246410Y-10063920D01*
X27086452Y-9932648D01*
X27086453Y-9932648D01*
X27086450Y-9932646D01*
X26903954Y-9835099D01*
X26705934Y-9775031D01*
X26705932Y-9775030D01*
X26705934Y-9775030D01*
X26500000Y-9754748D01*
X26294067Y-9775030D01*
X26096043Y-9835100D01*
X25985898Y-9893974D01*
X25913550Y-9932646D01*
X25913548Y-9932647D01*
X25913547Y-9932648D01*
X25753589Y-10063920D01*
X25622317Y-10223878D01*
X25622315Y-10223881D01*
X25606531Y-10253411D01*
X25524769Y-10406374D01*
X25464699Y-10604398D01*
X25444417Y-10810330D01*
X22010500Y-10810330D01*
X22010500Y-9985657D01*
X22010500Y-9985656D01*
X22010500Y-9985654D01*
X22010499Y-9985652D01*
X21995967Y-9912595D01*
X21995966Y-9912591D01*
X21940601Y-9829730D01*
X21858737Y-9775031D01*
X21857739Y-9774364D01*
X21857735Y-9774363D01*
X21784677Y-9759831D01*
X21784674Y-9759831D01*
X20135326Y-9759831D01*
X20135323Y-9759831D01*
X20062264Y-9774363D01*
X20062260Y-9774364D01*
X19979399Y-9829730D01*
X19924033Y-9912591D01*
X19924032Y-9912595D01*
X19909500Y-9985652D01*
X19909500Y-11635009D01*
X14162494Y-11635009D01*
X14235675Y-11630212D01*
X14294380Y-11626365D01*
X14583722Y-11568812D01*
X14863077Y-11473983D01*
X15127665Y-11343503D01*
X15372957Y-11179604D01*
X15594758Y-10985089D01*
X15789273Y-10763288D01*
X15953172Y-10517996D01*
X16083652Y-10253408D01*
X16178481Y-9974053D01*
X16236034Y-9684711D01*
X16255329Y-9390338D01*
X36744671Y-9390338D01*
X36763964Y-9684694D01*
X36763965Y-9684704D01*
X36763966Y-9684711D01*
X36809294Y-9912595D01*
X36821518Y-9974047D01*
X36821521Y-9974061D01*
X36916349Y-10253411D01*
X37046825Y-10517991D01*
X37046829Y-10517998D01*
X37210725Y-10763286D01*
X37405241Y-10985089D01*
X37627044Y-11179605D01*
X37872332Y-11343501D01*
X37872335Y-11343503D01*
X38136923Y-11473983D01*
X38416278Y-11568812D01*
X38705620Y-11626365D01*
X38733888Y-11628217D01*
X38999993Y-11645660D01*
X39000000Y-11645660D01*
X39000007Y-11645660D01*
X39235675Y-11630212D01*
X39294380Y-11626365D01*
X39583722Y-11568812D01*
X39863077Y-11473983D01*
X40127665Y-11343503D01*
X40372957Y-11179604D01*
X40594758Y-10985089D01*
X40789273Y-10763288D01*
X40953172Y-10517996D01*
X41083652Y-10253408D01*
X41178481Y-9974053D01*
X41236034Y-9684711D01*
X41255329Y-9390331D01*
X41255329Y-9390323D01*
X41236035Y-9095967D01*
X41236034Y-9095951D01*
X41178481Y-8806609D01*
X41083652Y-8527254D01*
X40953172Y-8262667D01*
X40789273Y-8017374D01*
X40746655Y-7968778D01*
X40594758Y-7795572D01*
X40372955Y-7601056D01*
X40127667Y-7437160D01*
X40127660Y-7437156D01*
X39863080Y-7306680D01*
X39583730Y-7211852D01*
X39583724Y-7211850D01*
X39583722Y-7211850D01*
X39294380Y-7154297D01*
X39294373Y-7154296D01*
X39294363Y-7154295D01*
X39000007Y-7135002D01*
X38999993Y-7135002D01*
X38705636Y-7154295D01*
X38705624Y-7154296D01*
X38705620Y-7154297D01*
X38705612Y-7154298D01*
X38705609Y-7154299D01*
X38416283Y-7211849D01*
X38416269Y-7211852D01*
X38136919Y-7306680D01*
X37872334Y-7437159D01*
X37627041Y-7601059D01*
X37405241Y-7795572D01*
X37210728Y-8017372D01*
X37046828Y-8262665D01*
X36916349Y-8527250D01*
X36821521Y-8806600D01*
X36821518Y-8806614D01*
X36763968Y-9095940D01*
X36763964Y-9095967D01*
X36744671Y-9390323D01*
X36744671Y-9390338D01*
X16255329Y-9390338D01*
X16255329Y-9390331D01*
X16255329Y-9390323D01*
X16236035Y-9095967D01*
X16236034Y-9095951D01*
X16178481Y-8806609D01*
X16083652Y-8527254D01*
X15953172Y-8262667D01*
X15789273Y-8017374D01*
X15748016Y-7970330D01*
X21289417Y-7970330D01*
X21309699Y-8176263D01*
X21309700Y-8176265D01*
X21369768Y-8374285D01*
X21467315Y-8556781D01*
X21467317Y-8556783D01*
X21598589Y-8716741D01*
X21695209Y-8796033D01*
X21758550Y-8848016D01*
X21941046Y-8945563D01*
X22139066Y-9005631D01*
X22139065Y-9005631D01*
X22159347Y-9007628D01*
X22345000Y-9025914D01*
X22550934Y-9005631D01*
X22748954Y-8945563D01*
X22931450Y-8848016D01*
X23091410Y-8716741D01*
X23222685Y-8556781D01*
X23320232Y-8374285D01*
X23380300Y-8176265D01*
X23400583Y-7970331D01*
X23400583Y-7970330D01*
X24059417Y-7970330D01*
X24079699Y-8176263D01*
X24079700Y-8176265D01*
X24139768Y-8374285D01*
X24237315Y-8556781D01*
X24237317Y-8556783D01*
X24368589Y-8716741D01*
X24465209Y-8796033D01*
X24528550Y-8848016D01*
X24711046Y-8945563D01*
X24909066Y-9005631D01*
X24909065Y-9005631D01*
X24927529Y-9007449D01*
X25115000Y-9025914D01*
X25320934Y-9005631D01*
X25518954Y-8945563D01*
X25701450Y-8848016D01*
X25861410Y-8716741D01*
X25992685Y-8556781D01*
X26090232Y-8374285D01*
X26150300Y-8176265D01*
X26170583Y-7970331D01*
X26170583Y-7970330D01*
X26829417Y-7970330D01*
X26849699Y-8176263D01*
X26849700Y-8176265D01*
X26909768Y-8374285D01*
X27007315Y-8556781D01*
X27007317Y-8556783D01*
X27138589Y-8716741D01*
X27235209Y-8796033D01*
X27298550Y-8848016D01*
X27481046Y-8945563D01*
X27679066Y-9005631D01*
X27679065Y-9005631D01*
X27699347Y-9007628D01*
X27885000Y-9025914D01*
X28090934Y-9005631D01*
X28288954Y-8945563D01*
X28471450Y-8848016D01*
X28631410Y-8716741D01*
X28762685Y-8556781D01*
X28860232Y-8374285D01*
X28920300Y-8176265D01*
X28940583Y-7970331D01*
X29599417Y-7970331D01*
X29619699Y-8176263D01*
X29619700Y-8176265D01*
X29679768Y-8374285D01*
X29777315Y-8556781D01*
X29777317Y-8556783D01*
X29908589Y-8716741D01*
X30005209Y-8796033D01*
X30068550Y-8848016D01*
X30251046Y-8945563D01*
X30449066Y-9005631D01*
X30449065Y-9005631D01*
X30467529Y-9007449D01*
X30655000Y-9025914D01*
X30860934Y-9005631D01*
X31058954Y-8945563D01*
X31241450Y-8848016D01*
X31401410Y-8716741D01*
X31532685Y-8556781D01*
X31630232Y-8374285D01*
X31690300Y-8176265D01*
X31710583Y-7970331D01*
X31690300Y-7764397D01*
X31630232Y-7566377D01*
X31532685Y-7383881D01*
X31469327Y-7306679D01*
X31401410Y-7223920D01*
X31241452Y-7092648D01*
X31241453Y-7092648D01*
X31241450Y-7092646D01*
X31058954Y-6995099D01*
X30860934Y-6935031D01*
X30860932Y-6935030D01*
X30860934Y-6935030D01*
X30655000Y-6914748D01*
X30449067Y-6935030D01*
X30251043Y-6995100D01*
X30140898Y-7053974D01*
X30068550Y-7092646D01*
X30068548Y-7092647D01*
X30068547Y-7092648D01*
X29908589Y-7223920D01*
X29777317Y-7383878D01*
X29679769Y-7566374D01*
X29619699Y-7764398D01*
X29599417Y-7970331D01*
X28940583Y-7970331D01*
X28920300Y-7764397D01*
X28860232Y-7566377D01*
X28762685Y-7383881D01*
X28699327Y-7306679D01*
X28631410Y-7223920D01*
X28471452Y-7092648D01*
X28471453Y-7092648D01*
X28471450Y-7092646D01*
X28288954Y-6995099D01*
X28090934Y-6935031D01*
X28090932Y-6935030D01*
X28090934Y-6935030D01*
X27903463Y-6916566D01*
X27885000Y-6914748D01*
X27884999Y-6914748D01*
X27679067Y-6935030D01*
X27481043Y-6995100D01*
X27370898Y-7053974D01*
X27298550Y-7092646D01*
X27298548Y-7092647D01*
X27298547Y-7092648D01*
X27138589Y-7223920D01*
X27007317Y-7383878D01*
X26909769Y-7566374D01*
X26849699Y-7764398D01*
X26829417Y-7970330D01*
X26170583Y-7970330D01*
X26150300Y-7764397D01*
X26090232Y-7566377D01*
X25992685Y-7383881D01*
X25929327Y-7306679D01*
X25861410Y-7223920D01*
X25701452Y-7092648D01*
X25701453Y-7092648D01*
X25701450Y-7092646D01*
X25518954Y-6995099D01*
X25320934Y-6935031D01*
X25320932Y-6935030D01*
X25320934Y-6935030D01*
X25133463Y-6916566D01*
X25115000Y-6914748D01*
X25114999Y-6914748D01*
X24909067Y-6935030D01*
X24711043Y-6995100D01*
X24600898Y-7053974D01*
X24528550Y-7092646D01*
X24528548Y-7092647D01*
X24528547Y-7092648D01*
X24368589Y-7223920D01*
X24237317Y-7383878D01*
X24139769Y-7566374D01*
X24079699Y-7764398D01*
X24059417Y-7970330D01*
X23400583Y-7970330D01*
X23380300Y-7764397D01*
X23320232Y-7566377D01*
X23222685Y-7383881D01*
X23159327Y-7306679D01*
X23091410Y-7223920D01*
X22931452Y-7092648D01*
X22931453Y-7092648D01*
X22931450Y-7092646D01*
X22748954Y-6995099D01*
X22550934Y-6935031D01*
X22550932Y-6935030D01*
X22550934Y-6935030D01*
X22345000Y-6914748D01*
X22139067Y-6935030D01*
X21941043Y-6995100D01*
X21830898Y-7053974D01*
X21758550Y-7092646D01*
X21758548Y-7092647D01*
X21758547Y-7092648D01*
X21598589Y-7223920D01*
X21467317Y-7383878D01*
X21369769Y-7566374D01*
X21309699Y-7764398D01*
X21289417Y-7970330D01*
X15748016Y-7970330D01*
X15746655Y-7968778D01*
X15594758Y-7795572D01*
X15372955Y-7601056D01*
X15127667Y-7437160D01*
X15127660Y-7437156D01*
X14863080Y-7306680D01*
X14583730Y-7211852D01*
X14583724Y-7211850D01*
X14583722Y-7211850D01*
X14294380Y-7154297D01*
X14294373Y-7154296D01*
X14294363Y-7154295D01*
X14000007Y-7135002D01*
X13999993Y-7135002D01*
X13705636Y-7154295D01*
X13705624Y-7154296D01*
X13705620Y-7154297D01*
X13705612Y-7154298D01*
X13705609Y-7154299D01*
X13416283Y-7211849D01*
X13416269Y-7211852D01*
X13136919Y-7306680D01*
X12872334Y-7437159D01*
X12627041Y-7601059D01*
X12405241Y-7795572D01*
X12210728Y-8017372D01*
X12046828Y-8262665D01*
X11916349Y-8527250D01*
X11821521Y-8806600D01*
X11821518Y-8806614D01*
X11763968Y-9095940D01*
X11763964Y-9095967D01*
X11744671Y-9390323D01*
X11744671Y-9390338D01*
X500Y-9390338D01*
X500Y-5530370D01*
X53044500Y-5530370D01*
X53044501Y-5530376D01*
X53050908Y-5589983D01*
X53101202Y-5724828D01*
X53101206Y-5724835D01*
X53187452Y-5840044D01*
X53187455Y-5840047D01*
X53302664Y-5926293D01*
X53302671Y-5926297D01*
X53437517Y-5976591D01*
X53437516Y-5976591D01*
X53444444Y-5977335D01*
X53497127Y-5983000D01*
X54892872Y-5982999D01*
X54952483Y-5976591D01*
X55087331Y-5926296D01*
X55202546Y-5840046D01*
X55288796Y-5724831D01*
X55339091Y-5589983D01*
X55345500Y-5530373D01*
X55345499Y-2334628D01*
X55339091Y-2275017D01*
X55288796Y-2140169D01*
X55288795Y-2140168D01*
X55288793Y-2140164D01*
X55202547Y-2024955D01*
X55202544Y-2024952D01*
X55087335Y-1938706D01*
X55087328Y-1938702D01*
X54952482Y-1888408D01*
X54952483Y-1888408D01*
X54892883Y-1882001D01*
X54892881Y-1882000D01*
X54892873Y-1882000D01*
X54892864Y-1882000D01*
X53497129Y-1882000D01*
X53497123Y-1882001D01*
X53437516Y-1888408D01*
X53302671Y-1938702D01*
X53302664Y-1938706D01*
X53187455Y-2024952D01*
X53187452Y-2024955D01*
X53101206Y-2140164D01*
X53101202Y-2140171D01*
X53050908Y-2275017D01*
X53044501Y-2334616D01*
X53044501Y-2334623D01*
X53044500Y-2334635D01*
X53044500Y-5530370D01*
X500Y-5530370D01*
X500Y-124500D01*
X20185Y-57461D01*
X72989Y-11706D01*
X124500Y-500D01*
X88875500Y-500D01*
X88942539Y-20185D01*
G37*
G04 #@! TD.AperFunction*
G04 #@! TD*
M02*
