G04 #@! TF.GenerationSoftware,KiCad,Pcbnew,7.0.7*
G04 #@! TF.CreationDate,2023-09-07T10:59:33+03:00*
G04 #@! TF.ProjectId,colorlight-cnc-proto,636f6c6f-726c-4696-9768-742d636e632d,rev?*
G04 #@! TF.SameCoordinates,Original*
G04 #@! TF.FileFunction,Soldermask,Bot*
G04 #@! TF.FilePolarity,Negative*
%FSLAX46Y46*%
G04 Gerber Fmt 4.6, Leading zero omitted, Abs format (unit mm)*
G04 Created by KiCad (PCBNEW 7.0.7) date 2023-09-07 10:59:33*
%MOMM*%
%LPD*%
G01*
G04 APERTURE LIST*
G04 Aperture macros list*
%AMRoundRect*
0 Rectangle with rounded corners*
0 $1 Rounding radius*
0 $2 $3 $4 $5 $6 $7 $8 $9 X,Y pos of 4 corners*
0 Add a 4 corners polygon primitive as box body*
4,1,4,$2,$3,$4,$5,$6,$7,$8,$9,$2,$3,0*
0 Add four circle primitives for the rounded corners*
1,1,$1+$1,$2,$3*
1,1,$1+$1,$4,$5*
1,1,$1+$1,$6,$7*
1,1,$1+$1,$8,$9*
0 Add four rect primitives between the rounded corners*
20,1,$1+$1,$2,$3,$4,$5,0*
20,1,$1+$1,$4,$5,$6,$7,0*
20,1,$1+$1,$6,$7,$8,$9,0*
20,1,$1+$1,$8,$9,$2,$3,0*%
G04 Aperture macros list end*
%ADD10C,0.800000*%
%ADD11C,6.400000*%
%ADD12RoundRect,0.250000X-0.650000X-1.550000X0.650000X-1.550000X0.650000X1.550000X-0.650000X1.550000X0*%
%ADD13O,1.800000X3.600000*%
%ADD14RoundRect,0.250000X1.550000X-0.650000X1.550000X0.650000X-1.550000X0.650000X-1.550000X-0.650000X0*%
%ADD15O,3.600000X1.800000*%
%ADD16R,1.700000X1.700000*%
%ADD17O,1.700000X1.700000*%
%ADD18RoundRect,0.250000X0.650000X1.550000X-0.650000X1.550000X-0.650000X-1.550000X0.650000X-1.550000X0*%
%ADD19C,4.000000*%
%ADD20R,1.600000X1.600000*%
%ADD21C,1.600000*%
G04 APERTURE END LIST*
D10*
G04 #@! TO.C,H3*
X82902944Y-71302944D03*
X83605888Y-69605888D03*
X83605888Y-73000000D03*
X85302944Y-68902944D03*
D11*
X85302944Y-71302944D03*
D10*
X85302944Y-73702944D03*
X87000000Y-69605888D03*
X87000000Y-73000000D03*
X87702944Y-71302944D03*
G04 #@! TD*
D12*
G04 #@! TO.C,J4*
X19675000Y-71097500D03*
D13*
X23175000Y-71097500D03*
X26675000Y-71097500D03*
X30175000Y-71097500D03*
X33675000Y-71097500D03*
G04 #@! TD*
D14*
G04 #@! TO.C,J6*
X85067500Y-32945000D03*
D15*
X85067500Y-29445000D03*
X85067500Y-25945000D03*
X85067500Y-22445000D03*
X85067500Y-18945000D03*
G04 #@! TD*
D10*
G04 #@! TO.C,H2*
X1200000Y-71000000D03*
X1902944Y-69302944D03*
X1902944Y-72697056D03*
X3600000Y-68600000D03*
D11*
X3600000Y-71000000D03*
D10*
X3600000Y-73400000D03*
X5297056Y-69302944D03*
X5297056Y-72697056D03*
X6000000Y-71000000D03*
G04 #@! TD*
D16*
G04 #@! TO.C,J1*
X5040000Y-55280000D03*
D17*
X2500000Y-55280000D03*
X5040000Y-52740000D03*
X2500000Y-52740000D03*
X5040000Y-50200000D03*
X2500000Y-50200000D03*
X5040000Y-47660000D03*
X2500000Y-47660000D03*
X5040000Y-45120000D03*
X2500000Y-45120000D03*
X5040000Y-42580000D03*
X2500000Y-42580000D03*
X5040000Y-40040000D03*
X2500000Y-40040000D03*
X5040000Y-37500000D03*
X2500000Y-37500000D03*
X5040000Y-34960000D03*
X2500000Y-34960000D03*
X5040000Y-32420000D03*
X2500000Y-32420000D03*
X5040000Y-29880000D03*
X2500000Y-29880000D03*
X5040000Y-27340000D03*
X2500000Y-27340000D03*
X5040000Y-24800000D03*
X2500000Y-24800000D03*
X5040000Y-22260000D03*
X2500000Y-22260000D03*
X5040000Y-19720000D03*
X2500000Y-19720000D03*
G04 #@! TD*
D14*
G04 #@! TO.C,J3*
X85067500Y-59945000D03*
D15*
X85067500Y-56445000D03*
X85067500Y-52945000D03*
G04 #@! TD*
D10*
G04 #@! TO.C,H1*
X1200000Y-3697056D03*
X1902944Y-2000000D03*
X1902944Y-5394112D03*
X3600000Y-1297056D03*
D11*
X3600000Y-3697056D03*
D10*
X3600000Y-6097056D03*
X5297056Y-2000000D03*
X5297056Y-5394112D03*
X6000000Y-3697056D03*
G04 #@! TD*
D14*
G04 #@! TO.C,J7*
X85017500Y-43695000D03*
D15*
X85017500Y-40195000D03*
G04 #@! TD*
D18*
G04 #@! TO.C,J2*
X54195000Y-3932500D03*
D13*
X50695000Y-3932500D03*
G04 #@! TD*
D19*
G04 #@! TO.C,J8*
X39000000Y-9390331D03*
X14000000Y-9390331D03*
D20*
X20960000Y-10810331D03*
D21*
X23730000Y-10810331D03*
X26500000Y-10810331D03*
X29270000Y-10810331D03*
X32040000Y-10810331D03*
X22345000Y-7970331D03*
X25115000Y-7970331D03*
X27885000Y-7970331D03*
X30655000Y-7970331D03*
G04 #@! TD*
D10*
G04 #@! TO.C,H4*
X82902944Y-3697056D03*
X83605888Y-2000000D03*
X83605888Y-5394112D03*
X85302944Y-1297056D03*
D11*
X85302944Y-3697056D03*
D10*
X85302944Y-6097056D03*
X87000000Y-2000000D03*
X87000000Y-5394112D03*
X87702944Y-3697056D03*
G04 #@! TD*
M02*
