M48
; DRILL file {KiCad 7.0.7} date Thu Sep  7 10:59:33 2023
; FORMAT={-:-/ absolute / metric / decimal}
; #@! TF.CreationDate,2023-09-07T10:59:33+03:00
; #@! TF.GenerationSoftware,Kicad,Pcbnew,7.0.7
; #@! TF.FileFunction,MixedPlating,1,2
FMAT,2
METRIC
; #@! TA.AperFunction,Plated,PTH,ViaDrill
T1C0.400
; #@! TA.AperFunction,Plated,PTH,ComponentDrill
T2C0.500
; #@! TA.AperFunction,Plated,PTH,ComponentDrill
T3C1.000
; #@! TA.AperFunction,Plated,PTH,ComponentDrill
T4C1.200
; #@! TA.AperFunction,Plated,PTH,ComponentDrill
T5C3.200
%
G90
G05
T1
X7.04Y-44.74
X7.93Y-41.05
X8.04Y-44.66
X8.28Y-21.77
X8.4Y-30.04
X8.67Y-56.46
X8.7Y-37.29
X8.89Y-26.81
X8.95Y-31.18
X9.838Y-30.292
X9.93Y-25.99
X10.785Y-27.8
X10.895Y-21.58
X10.93Y-45.74
X11.48Y-47.25
X12.18Y-16.29
X12.25Y-50.58
X12.66Y-49.29
X12.86Y-42.52
X13.635Y-20.92
X13.76Y-48.0
X14.5Y-51.24
X14.68Y-63.59
X14.875Y-20.05
X15.57Y-34.46
X15.61Y-15.66
X15.8Y-52.29
X16.165Y-20.75
X16.32Y-32.49
X17.245Y-19.76
X17.482Y-39.252
X17.665Y-37.42
X17.765Y-27.38
X17.95Y-42.47
X18.3Y-16.14
X18.465Y-10.13
X19.685Y-28.35
X19.71Y-58.605
X20.85Y-18.67
X21.015Y-20.79
X21.03Y-60.225
X22.17Y-21.55
X22.67Y-19.16
X22.99Y-36.81
X22.995Y-33.09
X23.33Y-44.08
X23.35Y-58.425
X24.135Y-20.81
X25.285Y-21.63
X25.86Y-34.61
X25.905Y-26.165
X26.06Y-43.51
X26.24Y-40.72
X26.46Y-37.73
X26.74Y-58.615
X27.055Y-27.57
X28.28Y-15.13
X28.385Y-20.97
X28.41Y-59.585
X29.695Y-20.09
X30.1Y-46.46
X30.44Y-58.765
X30.445Y-32.76
X31.295Y-20.88
X31.96Y-59.535
X32.56Y-50.62
X32.625Y-20.11
X32.67Y-40.38
X33.04Y-15.13
X33.08Y-38.18
X33.14Y-42.35
X33.345Y-25.29
X34.68Y-53.75
X35.385Y-10.02
X35.98Y-32.45
X36.08Y-49.45
X36.56Y-17.07
X39.215Y-33.115
X39.29Y-35.07
X39.71Y-51.57
X40.355Y-31.315
X43.12Y-4.12
X44.73Y-18.43
X45.22Y-24.53
X45.395Y-30.595
X45.525Y-27.775
X47.16Y-9.95
X47.17Y-18.05
X47.34Y-14.42
X48.46Y-19.69
X48.49Y-16.17
X49.88Y-46.71
X49.94Y-25.56
X50.99Y-37.39
X51.22Y-41.74
X51.33Y-48.83
X51.36Y-33.94
X55.236Y-17.919
X55.475Y-61.88
X57.16Y-35.93
X57.71Y-42.13
X59.25Y-1.38
X60.867Y-7.19
X61.135Y-64.25
X61.36Y-3.94
X61.758Y-7.13
X63.54Y-30.39
X64.19Y-34.54
X64.507Y-10.01
X65.7Y-51.67
X67.105Y-40.64
X67.567Y-10.11
X69.108Y-9.15
X69.46Y-70.16
X70.005Y-66.03
X70.028Y-9.12
X70.7Y-71.75
X70.71Y-58.11
X71.35Y-53.96
X72.19Y-55.57
X72.955Y-44.07
X74.565Y-60.54
X74.852Y-7.42
X77.015Y-64.5
X77.565Y-65.46
X78.08Y-24.87
X78.38Y-31.88
X79.093Y-14.36
X79.39Y-19.19
X81.432Y-13.1
X82.05Y-63.8
X82.52Y-18.14
X82.52Y-50.82
X84.82Y-36.93
X84.82Y-48.71
X85.18Y-15.01
X87.96Y-9.8
T2
X1.2Y-3.697
X1.2Y-71.0
X1.903Y-2.0
X1.903Y-5.394
X1.903Y-69.303
X1.903Y-72.697
X3.6Y-1.297
X3.6Y-6.097
X3.6Y-68.6
X3.6Y-73.4
X5.297Y-2.0
X5.297Y-5.394
X5.297Y-69.303
X5.297Y-72.697
X6.0Y-3.697
X6.0Y-71.0
X82.903Y-3.697
X82.903Y-71.303
X83.606Y-2.0
X83.606Y-5.394
X83.606Y-69.606
X83.606Y-73.0
X85.303Y-1.297
X85.303Y-6.097
X85.303Y-68.903
X85.303Y-73.703
X87.0Y-2.0
X87.0Y-5.394
X87.0Y-69.606
X87.0Y-73.0
X87.703Y-3.697
X87.703Y-71.303
T3
X2.5Y-19.72
X2.5Y-22.26
X2.5Y-24.8
X2.5Y-27.34
X2.5Y-29.88
X2.5Y-32.42
X2.5Y-34.96
X2.5Y-37.5
X2.5Y-40.04
X2.5Y-42.58
X2.5Y-45.12
X2.5Y-47.66
X2.5Y-50.2
X2.5Y-52.74
X2.5Y-55.28
X5.04Y-19.72
X5.04Y-22.26
X5.04Y-24.8
X5.04Y-27.34
X5.04Y-29.88
X5.04Y-32.42
X5.04Y-34.96
X5.04Y-37.5
X5.04Y-40.04
X5.04Y-42.58
X5.04Y-45.12
X5.04Y-47.66
X5.04Y-50.2
X5.04Y-52.74
X5.04Y-55.28
X20.96Y-10.81
X22.345Y-7.97
X23.73Y-10.81
X25.115Y-7.97
X26.5Y-10.81
X27.885Y-7.97
X29.27Y-10.81
X30.655Y-7.97
X32.04Y-10.81
T4
X19.675Y-71.097
X23.175Y-71.097
X26.675Y-71.097
X30.175Y-71.097
X33.675Y-71.097
X50.695Y-3.932
X54.195Y-3.932
X85.017Y-40.195
X85.017Y-43.695
X85.067Y-18.945
X85.067Y-22.445
X85.067Y-25.945
X85.067Y-29.445
X85.067Y-32.945
X85.067Y-52.945
X85.067Y-56.445
X85.067Y-59.945
T5
X3.6Y-3.697
X3.6Y-71.0
X14.0Y-9.39
X39.0Y-9.39
X85.303Y-3.697
X85.303Y-71.303
T0
M30
